SplineFontDB: 3.0
FontName: Comme-ExtraLight
FullName: Comme ExtraLight
FamilyName: Comme
Weight: ExtraLight
Copyright: Digitized data Copyright (c) 2011-2014, vernon adams.
Version: 2
ItalicAngle: 0
UnderlinePosition: 0
UnderlineWidth: 0
Ascent: 1638
Descent: 410
UFOAscent: 1560
UFODescent: -556
LayerCount: 2
Layer: 0 0 "Back"  1
Layer: 1 0 "Fore"  0
OS2Version: 0
OS2_WeightWidthSlopeOnly: 0
OS2_UseTypoMetrics: 0
CreationTime: 1390955064
ModificationTime: 1390955752
PfmFamily: 0
TTFWeight: 200
TTFWidth: 5
LineGap: 0
VLineGap: 0
OS2TypoAscent: 2416
OS2TypoAOffset: 0
OS2TypoDescent: -512
OS2TypoDOffset: 0
OS2TypoLinegap: 0
OS2WinAscent: 2416
OS2WinAOffset: 0
OS2WinDescent: 512
OS2WinDOffset: 0
HheadAscent: 0
HheadAOffset: 1
HheadDescent: 0
HheadDOffset: 1
OS2Vendor: 'NeWT'
Lookup: 4 0 1 "ligaStandardLigatureslookup0"  {"ligaStandardLigatureslookup0 subtable"  } ['liga' ('latn' <'dflt' > 'grek' <'dflt' > 'DFLT' <'dflt' > ) ]
DEI: 91125
LangName: 1033 "" "" "" "" "" "Version 2" "" "Comme is a trademark of Vernon Adams and may be registered in certain jurisdictions." "newtypography" "Vernon Adams" "" "newtypography.co.uk" "newtypography.co.uk" "Copyright (c) 2014, vernon adams.+AAoACgAA-This Font Software is licensed under the SIL Open Font License, Version 1.1.+AAoA-This license is available with a FAQ at:+AAoA-http://scripts.sil.org/OFL+AAoA" "http://scripts.sil.org/OFL" "" "Comme" "ExtraLight" 
PickledData: "(dp1
S'public.glyphOrder'
p2
(S'A'
S'Agrave'
S'Aacute'
S'Acircumflex'
S'Atilde'
S'Adieresis'
S'Aring'
S'Amacron'
S'Abreve'
S'Aogonek'
S'uni01CD'
S'uni0200'
S'uni0202'
S'uni0226'
S'B'
S'uni1E02'
S'C'
S'Ccedilla'
S'Cacute'
S'Ccircumflex'
S'Cdotaccent'
S'Ccaron'
S'D'
S'Dcaron'
S'uni1E0A'
S'E'
S'Egrave'
S'Eacute'
S'Ecircumflex'
S'Edieresis'
S'Emacron'
S'Ebreve'
S'Edotaccent'
S'Eogonek'
S'Ecaron'
S'uni0204'
S'uni0206'
S'uni0228'
S'uni1EBC'
S'F'
S'uni1E1E'
S'G'
S'Gcircumflex'
S'Gbreve'
S'Gdotaccent'
S'Gcommaaccent'
S'Gcaron'
S'uni01F4'
S'H'
S'Hcircumflex'
S'uni021E'

StartChar: A
Encoding: 65 65 0
Width: 1323
VWidth: 0
GlyphClass: 2
Flags: HW
PickledData: "(dp1
S'org.pippin.gimp.org.kernagic'
p2
(dp3
S'lstem'
p4
I0
sS'rstem'
p5
I0
ssS'com.typemytype.robofont.layerData'
p6
(dp7
sS'org.robofab.postScriptHintData'
p8
(dp9
s."
AnchorPoint: "bot" 661 0 basechar 0
AnchorPoint: "ogonek" 1204 0 basechar 0
AnchorPoint: "top" 660 1455 basechar 0
LayerCount: 2
Fore
SplineSet
610 1455 m 1
 711 1455 l 1
 1268 0 l 1
 1153 0 l 1
 968 494 l 1
 362 494 l 1
 175 0 l 1
 55 0 l 1
 610 1455 l 1
395 584 m 1
 936 584 l 1
 660 1316 l 1
 395 584 l 1
EndSplineSet
EndChar

StartChar: AE
Encoding: 198 198 1
Width: 1807
VWidth: 0
GlyphClass: 2
Flags: HW
PickledData: "(dp1
S'org.pippin.gimp.org.kernagic'
p2
(dp3
S'lstem'
p4
I0
sS'rstem'
p5
I0
ssS'com.typemytype.robofont.layerData'
p6
(dp7
sS'org.robofab.postScriptHintData'
p8
(dp9
s."
LayerCount: 2
Fore
SplineSet
955 588 m 1
 955 1346 l 1
 491 588 l 1
 955 588 l 1
903 1455 m 1
 1758 1455 l 1
 1754 1360 l 1
 1069 1360 l 1
 1069 800 l 1
 1678 800 l 1
 1678 705 l 1
 1069 705 l 1
 1069 95 l 1
 1762 95 l 1
 1753 0 l 1
 955 0 l 1
 955 498 l 1
 439 498 l 1
 130 0 l 1
 -1 0 l 1
 903 1455 l 1
EndSplineSet
EndChar

StartChar: B
Encoding: 66 66 13
Width: 1366
VWidth: 0
GlyphClass: 2
Flags: HW
PickledData: "(dp1
S'org.pippin.gimp.org.kernagic'
p2
(dp3
S'lstem'
p4
I0
sS'rstem'
p5
I0
ssS'com.typemytype.robofont.layerData'
p6
(dp7
sS'org.robofab.postScriptHintData'
p8
(dp9
s."
AnchorPoint: "top" 674 1456 basechar 0
LayerCount: 2
Fore
SplineSet
564 -12 m 0
 463 -12 347 -7 216 3 c 1
 216 1446 l 1
 355 1459 474 1466 576 1466 c 0
 1105 1466 1180 1302 1180 1102 c 0
 1180 952 1131 835 920 772 c 1
 1138 724 1239 601 1239 412 c 0
 1239 125 1098 -12 564 -12 c 0
338 1361 m 1
 338 821 l 1
 707 821 l 2
 910 821 1070 864 1070 1094 c 0
 1070 1296 968 1371 594 1371 c 0
 520 1371 435 1367 338 1361 c 1
338 727 m 1
 338 92 l 1
 435 87 521 84 595 84 c 0
 1055 84 1118 192 1118 405 c 0
 1118 645 969 727 649 727 c 2
 338 727 l 1
EndSplineSet
EndChar

StartChar: C
Encoding: 67 67 14
Width: 1352
VWidth: 0
GlyphClass: 2
Flags: HW
PickledData: "(dp1
S'org.pippin.gimp.org.kernagic'
p2
(dp3
S'lstem'
p4
I0
sS'rstem'
p5
I0
ssS'com.typemytype.robofont.layerData'
p6
(dp7
sS'org.robofab.postScriptHintData'
p8
(dp9
s."
AnchorPoint: "bot" 812 0 basechar 0
AnchorPoint: "top" 800 1455 basechar 0
LayerCount: 2
Fore
SplineSet
1289 1140 m 1
 1207 1108 l 1
 1193 1108 l 1
 1135 1273 979 1379 799 1379 c 0
 478 1379 273 1140 273 728 c 0
 273 317 478 78 799 78 c 0
 978 78 1136 184 1194 349 c 1
 1207 349 l 1
 1291 317 l 1
 1221 97 1009 -20 796 -20 c 0
 405 -20 151 262 151 728 c 0
 151 1194 404 1476 794 1476 c 0
 1009 1476 1218 1361 1289 1140 c 1
EndSplineSet
EndChar

StartChar: D
Encoding: 68 68 21
Width: 1514
VWidth: 0
GlyphClass: 2
Flags: HW
PickledData: "(dp1
S'org.pippin.gimp.org.kernagic'
p2
(dp3
S'lstem'
p4
I0
sS'rstem'
p5
I0
ssS'com.typemytype.robofont.layerData'
p6
(dp7
sS'com.fontlab.hintData'
p8
(dp9
S'vhints'
p10
((dp11
S'position'
p12
I1280
sS'width'
p13
I122
stp14
sS'hhints'
p15
((dp16
g12
I0
sg13
I94
s(dp17
g12
I1355
sg13
I94
stp18
ssS'org.robofab.postScriptHintData'
p19
(dp20
s."
HStem: 0 94 1355 94
VStem: 1280 122
AnchorPoint: "mid" 279 759 basechar 0
AnchorPoint: "bot" 770 0 basechar 0
AnchorPoint: "top" 752 1455 basechar 0
LayerCount: 2
Fore
SplineSet
216 4 m 1
 216 1446 l 1
 342 1459 456 1465 557 1465 c 0
 1196 1465 1364 1210 1364 735 c 0
 1364 251 1163 -10 503 -10 c 0
 416 -10 320 -5 216 4 c 1
338 87 m 1
 409 81 476 79 537 79 c 0
 1091 79 1242 314 1242 730 c 0
 1242 1166 1095 1371 554 1371 c 0
 488 1371 416 1368 338 1362 c 1
 338 87 l 1
EndSplineSet
EndChar

StartChar: Delta
Encoding: 916 916 24
Width: 1350
VWidth: 0
GlyphClass: 2
Flags: HW
PickledData: "(dp1
S'org.pippin.gimp.org.kernagic'
p2
(dp3
S'lstem'
p4
I0
sS'rstem'
p5
I0
ssS'com.typemytype.robofont.layerData'
p6
(dp7
S'b'
(dp8
S'name'
p9
S'Delta'
p10
sS'lib'
p11
(dp12
sS'unicodes'
p13
(tsS'width'
p14
I1334
sS'contours'
p15
(tsS'components'
p16
(tsS'anchors'
p17
(tsssS'org.robofab.postScriptHintData'
p18
(dp19
s."
LayerCount: 2
Fore
SplineSet
239 110 m 1
 1087 110 l 1
 654 1374 l 1
 239 110 l 1
95 0 m 1
 598 1493 l 1
 716 1493 l 1
 1232 0 l 1
 95 0 l 1
EndSplineSet
EndChar

StartChar: E
Encoding: 69 69 25
Width: 1195
VWidth: 0
GlyphClass: 2
Flags: HW
PickledData: "(dp1
S'org.pippin.gimp.org.kernagic'
p2
(dp3
S'lstem'
p4
I0
sS'rstem'
p5
I0
ssS'com.typemytype.robofont.layerData'
p6
(dp7
sS'org.robofab.postScriptHintData'
p8
(dp9
s."
AnchorPoint: "bot" 622 0 basechar 0
AnchorPoint: "ogonek" 814 0 basechar 0
AnchorPoint: "top" 688 1455 basechar 0
LayerCount: 2
Fore
SplineSet
216 1455 m 1
 1105 1455 l 1
 1102 1360 l 1
 338 1360 l 1
 338 796 l 1
 1025 796 l 1
 1025 701 l 1
 338 701 l 1
 338 95 l 1
 1110 95 l 1
 1101 0 l 1
 216 0 l 1
 216 1455 l 1
EndSplineSet
EndChar

StartChar: Eng
Encoding: 330 330 34
Width: 1528
VWidth: 0
GlyphClass: 2
Flags: HW
PickledData: "(dp1
S'org.robofab.postScriptHintData'
p2
(dp3
s."
LayerCount: 2
Fore
SplineSet
1212 1455 m 1
 1315 1455 l 1
 1315 -30 l 2
 1315 -302 1205 -425 773 -425 c 1
 766 -332 l 1
 1141 -332 1212 -252 1212 -17 c 2
 1212 -15 l 1
 309 1300 l 1
 321 903 l 1
 321 0 l 1
 216 0 l 1
 216 1455 l 1
 329 1455 l 1
 1212 163 l 1
 1212 1455 l 1
EndSplineSet
EndChar

StartChar: Euro
Encoding: 8364 8364 37
Width: 1353
VWidth: 0
GlyphClass: 2
Flags: HW
PickledData: "(dp1
S'org.pippin.gimp.org.kernagic'
p2
(dp3
S'lstem'
p4
I0
sS'rstem'
p5
I0
ssS'com.typemytype.robofont.layerData'
p6
(dp7
S'b'
(dp8
S'name'
p9
S'Euro'
p10
sS'lib'
p11
(dp12
sS'unicodes'
p13
(tsS'width'
p14
I1391
sS'contours'
p15
(tsS'components'
p16
(tsS'anchors'
p17
(tsssS'org.robofab.postScriptHintData'
p18
(dp19
s."
LayerCount: 2
Fore
SplineSet
-15 541 m 1
 -4 635 l 1
 124 635 l 1
 122 665 120 696 120 728 c 0
 120 765 122 801 125 836 c 1
 -6 836 l 1
 4 928 l 1
 137 928 l 1
 200 1273 432 1476 763 1476 c 0
 978 1476 1187 1361 1258 1140 c 1
 1176 1108 l 1
 1162 1108 l 1
 1104 1273 948 1379 768 1379 c 0
 503 1379 317 1216 260 928 c 1
 903 928 l 1
 892 836 l 1
 247 836 l 1
 244 801 242 765 242 728 c 0
 242 696 244 665 246 635 c 1
 892 635 l 1
 881 541 l 1
 258 541 l 1
 312 245 499 78 768 78 c 0
 947 78 1105 184 1163 349 c 1
 1176 349 l 1
 1260 317 l 1
 1190 97 978 -20 765 -20 c 0
 429 -20 195 188 135 541 c 1
 -15 541 l 1
EndSplineSet
EndChar

StartChar: F
Encoding: 70 70 38
Width: 1109
VWidth: 0
GlyphClass: 2
Flags: HW
PickledData: "(dp1
S'org.pippin.gimp.org.kernagic'
p2
(dp3
S'lstem'
p4
I0
sS'rstem'
p5
I705
ssS'com.typemytype.robofont.layerData'
p6
(dp7
sS'org.robofab.postScriptHintData'
p8
(dp9
s."
AnchorPoint: "top" 609 1455 basechar 0
LayerCount: 2
Fore
SplineSet
216 1455 m 1
 1053 1455 l 1
 1044 1360 l 1
 341 1360 l 1
 341 777 l 1
 981 777 l 1
 981 687 l 1
 341 687 l 1
 341 0 l 1
 216 0 l 1
 216 1455 l 1
EndSplineSet
EndChar

StartChar: G
Encoding: 71 71 39
Width: 1479
VWidth: 0
GlyphClass: 2
Flags: HW
PickledData: "(dp1
S'org.pippin.gimp.org.kernagic'
p2
(dp3
S'lstem'
p4
I0
sS'rstem'
p5
I0
ssS'com.typemytype.robofont.layerData'
p6
(dp7
sS'org.robofab.postScriptHintData'
p8
(dp9
s."
AnchorPoint: "bot" 843 0 basechar 0
AnchorPoint: "top" 834 1455 basechar 0
LayerCount: 2
Fore
SplineSet
842 -19 m 0
 379 -19 150 305 150 727 c 0
 150 1187 446 1474 856 1474 c 0
 1025 1474 1187 1421 1310 1332 c 1
 1263 1250 l 1
 1251 1250 l 1
 1149 1322 1015 1375 861 1375 c 0
 524 1375 272 1137 272 728 c 0
 272 339 461 80 865 80 c 0
 1000 80 1127 104 1206 126 c 1
 1206 628 l 1
 865 637 l 1
 876 735 l 1
 1324 735 l 1
 1324 65 l 1
 1181 12 1039 -19 842 -19 c 0
EndSplineSet
EndChar

StartChar: H
Encoding: 72 72 45
Width: 1507
VWidth: 0
GlyphClass: 2
Flags: HW
PickledData: "(dp1
S'org.pippin.gimp.org.kernagic'
p2
(dp3
S'lstem'
p4
I0
sS'rstem'
p5
I0
ssS'com.typemytype.robofont.layerData'
p6
(dp7
sS'org.robofab.postScriptHintData'
p8
(dp9
s."
AnchorPoint: "top" 759 1455 basechar 0
LayerCount: 2
Fore
SplineSet
1169 702 m 1
 337 702 l 1
 337 0 l 1
 215 0 l 1
 215 1455 l 1
 337 1455 l 1
 337 794 l 1
 1169 794 l 1
 1169 1455 l 1
 1291 1455 l 1
 1291 0 l 1
 1169 0 l 1
 1169 702 l 1
EndSplineSet
EndChar

StartChar: Hbar
Encoding: 294 294 46
Width: 1483
VWidth: 0
GlyphClass: 2
Flags: HW
PickledData: "(dp1
S'org.pippin.gimp.org.kernagic'
p2
(dp3
S'lstem'
p4
I0
sS'rstem'
p5
I0
ssS'com.typemytype.robofont.layerData'
p6
(dp7
sS'org.robofab.postScriptHintData'
p8
(dp9
s."
LayerCount: 2
Fore
SplineSet
90 1195 m 1
 1386 1195 l 1
 1386 1114 l 1
 90 1114 l 1
 90 1195 l 1
EndSplineSet
Refer: 45 72 N 1 0 0 1 0 0 2
EndChar

StartChar: I
Encoding: 73 73 48
Width: 826
VWidth: 0
GlyphClass: 2
Flags: HW
PickledData: "(dp1
S'org.pippin.gimp.org.kernagic'
p2
(dp3
S'lstem'
p4
I0
sS'rstem'
p5
I0
ssS'com.typemytype.robofont.layerData'
p6
(dp7
sS'com.fontlab.hintData'
p8
(dp9
S'vhints'
p10
((dp11
S'position'
p12
I111
sS'width'
p13
I529
stp14
sS'hhints'
p15
((dp16
g12
I0
sg13
I86
s(dp17
g12
I1363
sg13
I86
stp18
ssS'org.robofab.postScriptHintData'
p19
(dp20
s."
HStem: 0 86 1363 86
VStem: 111 529
AnchorPoint: "ogonek" 426 0 basechar 0
AnchorPoint: "top" 411 1455 basechar 0
LayerCount: 2
Fore
SplineSet
147 1455 m 1
 676 1455 l 1
 676 1378 l 1
 473 1378 l 1
 473 78 l 1
 676 78 l 1
 676 0 l 1
 147 0 l 1
 147 78 l 1
 351 78 l 1
 351 1378 l 1
 147 1378 l 1
 147 1455 l 1
EndSplineSet
EndChar

StartChar: J
Encoding: 74 74 59
Width: 717
VWidth: 0
GlyphClass: 2
Flags: HW
PickledData: "(dp1
S'org.pippin.gimp.org.kernagic'
p2
(dp3
S'lstem'
p4
I132
sS'rstem'
p5
I0
ssS'com.typemytype.robofont.layerData'
p6
(dp7
sS'org.robofab.postScriptHintData'
p8
(dp9
s."
AnchorPoint: "top" 430 1455 basechar 0
LayerCount: 2
Fore
SplineSet
366 1455 m 1
 488 1455 l 1
 488 63 l 2
 488 -207 433 -257 205 -344 c 1
 140 -368 l 1
 101 -272 l 1
 184 -238 l 2
 334 -176 366 -153 366 40 c 2
 366 1455 l 1
EndSplineSet
EndChar

StartChar: K
Encoding: 75 75 61
Width: 1264
VWidth: 0
GlyphClass: 2
Flags: HW
PickledData: "(dp1
S'org.pippin.gimp.org.kernagic'
p2
(dp3
S'lstem'
p4
I0
sS'rstem'
p5
I851
ssS'com.typemytype.robofont.layerData'
p6
(dp7
sS'org.robofab.postScriptHintData'
p8
(dp9
s."
AnchorPoint: "bot" 644 0 basechar 0
AnchorPoint: "top" 643 1455 basechar 0
LayerCount: 2
Fore
SplineSet
1190 1456 m 1
 1190 1443 l 1
 573 822 l 1
 1229 12 l 1
 1229 0 l 1
 1092 0 l 1
 480 757 l 1
 338 617 l 1
 338 0 l 1
 216 0 l 1
 216 1456 l 1
 338 1456 l 1
 338 732 l 1
 1055 1456 l 1
 1190 1456 l 1
EndSplineSet
EndChar

StartChar: L
Encoding: 76 76 63
Width: 1085
VWidth: 0
GlyphClass: 2
Flags: HW
PickledData: "(dp1
S'org.pippin.gimp.org.kernagic'
p2
(dp3
S'lstem'
p4
I0
sS'rstem'
p5
I597
ssS'com.typemytype.robofont.layerData'
p6
(dp7
sS'org.robofab.postScriptHintData'
p8
(dp9
s."
AnchorPoint: "mid" 288 728 basechar 0
AnchorPoint: "bot" 638 0 basechar 0
AnchorPoint: "top" 504 1455 basechar 0
LayerCount: 2
Fore
SplineSet
216 1455 m 1
 338 1455 l 1
 338 95 l 1
 1043 95 l 1
 1044 0 l 1
 216 0 l 1
 216 1455 l 1
EndSplineSet
EndChar

StartChar: M
Encoding: 77 77 69
Width: 1780
VWidth: 0
GlyphClass: 2
Flags: HW
PickledData: "(dp1
S'org.pippin.gimp.org.kernagic'
p2
(dp3
S'lstem'
p4
I0
sS'rstem'
p5
I0
ssS'com.typemytype.robofont.guides'
p6
((dp7
S'y'
I378
sS'x'
I548
sS'magnetic'
p8
I5
sS'angle'
p9
I0
sS'isGlobal'
p10
I00
stp11
sS'com.typemytype.robofont.layerData'
p12
(dp13
sS'com.fontlab.hintData'
p14
(dp15
S'vhints'
p16
((dp17
S'position'
p18
I185
sS'width'
p19
I166
s(dp20
g18
I214
sg19
I151
s(dp21
g18
I332
sg19
I33
s(dp22
g18
I1463
sg19
I149
s(dp23
g18
I1463
sg19
I39
s(dp24
g18
I1477
sg19
I164
stp25
ssS'org.robofab.postScriptHintData'
p26
(dp27
s."
VStem: 185 166 214 151 332 33 1463 149 1463 39 1477 164
AnchorPoint: "top" 896 1455 basechar 0
LayerCount: 2
Fore
SplineSet
198 0 m 1
 198 539 l 1
 217 1455 l 1
 377 1455 l 1
 893 280 l 1
 1409 1455 l 1
 1562 1455 l 1
 1583 539 l 1
 1583 0 l 1
 1470 0 l 1
 1470 541 l 1
 1461 1311 l 1
 944 147 l 1
 838 147 l 1
 321 1319 l 1
 311 539 l 1
 311 0 l 1
 198 0 l 1
EndSplineSet
EndChar

StartChar: N
Encoding: 78 78 70
Width: 1531
VWidth: 0
GlyphClass: 2
Flags: HW
PickledData: "(dp1
S'org.pippin.gimp.org.kernagic'
p2
(dp3
S'lstem'
p4
I0
sS'rstem'
p5
I0
ssS'com.typemytype.robofont.layerData'
p6
(dp7
sS'org.robofab.postScriptHintData'
p8
(dp9
s."
AnchorPoint: "bot" 772 0 basechar 0
AnchorPoint: "top" 780 1455 basechar 0
LayerCount: 2
Fore
SplineSet
1212 1455 m 1
 1315 1455 l 1
 1315 0 l 1
 1199 0 l 1
 309 1300 l 1
 321 903 l 1
 321 0 l 1
 216 0 l 1
 216 1455 l 1
 329 1455 l 1
 1219 153 l 1
 1212 538 l 1
 1212 1455 l 1
EndSplineSet
EndChar

StartChar: O
Encoding: 79 79 75
Width: 1634
VWidth: 0
GlyphClass: 2
Flags: HW
PickledData: "(dp1
S'org.pippin.gimp.org.kernagic'
p2
(dp3
S'lstem'
p4
I0
sS'rstem'
p5
I0
ssS'com.typemytype.robofont.guides'
p6
(tsS'com.typemytype.robofont.layerData'
p7
(dp8
sS'com.fontlab.hintData'
p9
(dp10
S'vhints'
p11
((dp12
S'position'
p13
I150
sS'width'
p14
I122
s(dp15
g13
I1390
sg14
I122
stp16
sS'hhints'
p17
((dp18
g13
I-19
sg14
I96
s(dp19
g13
I1372
sg14
I96
stp20
ssS'org.robofab.postScriptHintData'
p21
(dp22
s."
HStem: -19 96 1372 96
VStem: 150 122 1390 122
AnchorPoint: "ogonek" 911 0 basechar 0
AnchorPoint: "top" 819 1455 basechar 0
LayerCount: 2
Fore
SplineSet
1360 716 m 0
 1360 1108 1205 1378 821 1378 c 0
 437 1378 275 1111 275 716 c 0
 275 342 421 78 818 78 c 0
 1215 78 1360 342 1360 716 c 0
152 717 m 0
 152 1171 372 1475 822 1475 c 0
 1258 1475 1482 1166 1482 713 c 0
 1482 285 1275 -19 821 -19 c 0
 359 -19 152 277 152 717 c 0
EndSplineSet
EndChar

StartChar: OE
Encoding: 338 338 76
Width: 2608
VWidth: 0
GlyphClass: 2
Flags: HW
PickledData: "(dp1
S'org.pippin.gimp.org.kernagic'
p2
(dp3
S'lstem'
p4
I0
sS'rstem'
p5
I0
ssS'com.typemytype.robofont.layerData'
p6
(dp7
S'b'
(dp8
S'name'
p9
S'OE'
p10
sS'lib'
p11
(dp12
sS'unicodes'
p13
(tsS'width'
p14
I2367
sS'contours'
p15
(tsS'components'
p16
(tsS'anchors'
p17
(tsssS'org.robofab.postScriptHintData'
p18
(dp19
s."
LayerCount: 2
Fore
SplineSet
1355 716 m 0
 1355 1108 1200 1378 815 1378 c 0
 432 1378 269 1111 269 716 c 0
 269 342 416 78 813 78 c 0
 1210 78 1355 342 1355 716 c 0
147 717 m 0
 147 1171 366 1475 816 1475 c 0
 1069 1475 1254 1364 1356 1180 c 1
 1356 1455 l 1
 2245 1455 l 1
 2241 1360 l 1
 1478 1360 l 1
 1478 796 l 1
 2165 796 l 1
 2165 701 l 1
 1478 701 l 1
 1478 95 l 1
 2250 95 l 1
 2241 0 l 1
 1356 0 l 1
 1356 260 l 1
 1257 87 1075 -19 815 -19 c 0
 353 -19 147 277 147 717 c 0
EndSplineSet
EndChar

StartChar: Oslash
Encoding: 216 216 84
Width: 1656
VWidth: 0
GlyphClass: 2
Flags: HW
PickledData: "(dp1
S'org.pippin.gimp.org.kernagic'
p2
(dp3
S'lstem'
p4
I0
sS'rstem'
p5
I0
ssS'com.typemytype.robofont.layerData'
p6
(dp7
sS'org.robofab.postScriptHintData'
p8
(dp9
s."
AnchorPoint: "top" 822 1456 basechar 0
LayerCount: 2
Fore
SplineSet
818 78 m 0
 1215 78 1360 342 1360 716 c 0
 1360 993 1282 1208 1099 1311 c 1
 624 104 l 1
 681 86 745 78 818 78 c 0
554 130 m 1
 1029 1345 l 1
 969 1366 899 1378 821 1378 c 0
 437 1378 275 1111 275 716 c 0
 275 441 354 225 554 130 c 1
494 -230 m 1
 424 -205 l 1
 517 35 l 1
 267 140 152 389 152 717 c 0
 152 1171 372 1475 822 1475 c 0
 912 1475 993 1462 1065 1437 c 1
 1158 1676 l 1
 1232 1649 l 1
 1137 1406 l 1
 1366 1291 1482 1039 1482 713 c 0
 1482 285 1275 -19 821 -19 c 0
 734 -19 657 -9 588 11 c 1
 494 -230 l 1
EndSplineSet
EndChar

StartChar: P
Encoding: 80 80 87
Width: 1235
VWidth: 0
GlyphClass: 2
Flags: HW
PickledData: "(dp1
S'org.pippin.gimp.org.kernagic'
p2
(dp3
S'lstem'
p4
I0
sS'rstem'
p5
I807
ssS'com.typemytype.robofont.layerData'
p6
(dp7
sS'org.robofab.postScriptHintData'
p8
(dp9
s."
AnchorPoint: "top" 634 1455 basechar 0
LayerCount: 2
Fore
SplineSet
216 1446 m 1
 353 1458 472 1464 573 1464 c 0
 1007 1464 1134 1350 1134 1095 c 0
 1134 832 1025 690 557 690 c 0
 491 690 419 693 338 699 c 1
 338 0 l 1
 216 0 l 1
 216 1446 l 1
338 791 m 1
 423 786 497 783 563 783 c 0
 943 783 1019 868 1019 1096 c 0
 1019 1292 931 1372 584 1372 c 0
 513 1372 432 1368 338 1362 c 1
 338 791 l 1
EndSplineSet
EndChar

StartChar: Q
Encoding: 81 81 88
Width: 1624
VWidth: 0
GlyphClass: 2
Flags: HW
PickledData: "(dp1
S'org.pippin.gimp.org.kernagic'
p2
(dp3
S'lstem'
p4
I0
sS'rstem'
p5
I0
ssS'com.typemytype.robofont.layerData'
p6
(dp7
sS'org.robofab.postScriptHintData'
p8
(dp9
s."
LayerCount: 2
Fore
SplineSet
1360 716 m 0
 1360 1108 1205 1378 821 1378 c 0
 437 1378 275 1111 275 716 c 0
 275 342 421 78 818 78 c 0
 1215 78 1360 342 1360 716 c 0
152 717 m 0
 152 1171 372 1475 822 1475 c 0
 1258 1475 1482 1166 1482 713 c 0
 1482 360 1341 92 1038 8 c 1
 1101 -94 1265 -309 1302 -348 c 1
 1230 -409 l 1
 1209 -380 1018 -138 943 -11 c 1
 904 -16 864 -19 821 -19 c 0
 359 -19 152 277 152 717 c 0
EndSplineSet
EndChar

StartChar: R
Encoding: 82 82 89
Width: 1373
VWidth: 0
GlyphClass: 2
Flags: HW
PickledData: "(dp1
S'org.pippin.gimp.org.kernagic'
p2
(dp3
S'lstem'
p4
I0
sS'rstem'
p5
I839
ssS'com.typemytype.robofont.layerData'
p6
(dp7
sS'com.fontlab.hintData'
p8
(dp9
S'vhints'
p10
((dp11
S'position'
p12
I1122
sS'width'
p13
I117
stp14
sS'hhints'
p15
((dp16
g12
I722
sg13
I96
s(dp17
g12
I1355
sg13
I94
stp18
ssS'org.robofab.postScriptHintData'
p19
(dp20
s."
HStem: 722 96 1355 94
VStem: 1122 117
AnchorPoint: "bot" 706 0 basechar 0
AnchorPoint: "top" 700 1456 basechar 0
LayerCount: 2
Fore
SplineSet
1219 1095 m 0
 1219 879 1121 775 934 734 c 1
 1266 16 l 1
 1266 0 l 1
 1145 0 l 1
 810 722 l 1
 338 721 l 1
 338 0 l 1
 216 0 l 1
 216 1446 l 1
 382 1458 521 1465 638 1465 c 0
 1112 1465 1219 1357 1219 1095 c 0
338 1362 m 1
 338 811 l 1
 726 811 l 2
 1040 811 1106 887 1106 1091 c 0
 1106 1285 1039 1376 649 1376 c 0
 562 1376 459 1371 338 1362 c 1
EndSplineSet
EndChar

StartChar: S
Encoding: 83 83 93
Width: 1202
VWidth: 0
GlyphClass: 2
Flags: HW
PickledData: "(dp1
S'org.pippin.gimp.org.kernagic'
p2
(dp3
S'lstem'
p4
I185
sS'rstem'
p5
I826
ssS'com.typemytype.robofont.guides'
p6
((dp7
S'y'
I973
sS'x'
I1035
sS'magnetic'
p8
I5
sS'angle'
p9
F90
sS'isGlobal'
p10
I00
s(dp11
S'y'
I382
sS'x'
I75
sg8
I5
sg9
F90
sg10
I00
stp12
sS'com.typemytype.robofont.layerData'
p13
(dp14
sS'org.robofab.postScriptHintData'
p15
(dp16
s."
AnchorPoint: "bot" 621 0 basechar 0
AnchorPoint: "top" 617 1463 basechar 0
LayerCount: 2
Fore
SplineSet
973 389 m 0
 973 541 905 590 684 679 c 1
 462 770 l 1
 264 850 149 908 149 1108 c 0
 149 1406 410 1475 634 1475 c 0
 809 1475 958 1404 1031 1326 c 1
 979 1256 l 1
 968 1256 l 1
 908 1313 794 1381 630 1381 c 0
 455 1381 265 1321 265 1125 c 0
 265 979 318 945 498 871 c 2
 722 779 l 1
 922 698 1082 634 1082 391 c 0
 1082 75 850 -19 599 -19 c 0
 333 -19 193 89 139 151 c 1
 198 220 l 1
 207 220 l 1
 304 131 418 78 599 78 c 0
 828 78 973 162 973 389 c 0
EndSplineSet
EndChar

StartChar: T
Encoding: 84 84 99
Width: 1127
VWidth: 0
GlyphClass: 2
Flags: HW
PickledData: "(dp1
S'org.pippin.gimp.org.kernagic'
p2
(dp3
S'lstem'
p4
I285
sS'rstem'
p5
I844
ssS'com.typemytype.robofont.layerData'
p6
(dp7
sS'org.robofab.postScriptHintData'
p8
(dp9
s."
AnchorPoint: "mid" 564 757 basechar 0
AnchorPoint: "bot" 565 0 basechar 0
AnchorPoint: "top" 565 1455 basechar 0
LayerCount: 2
Fore
SplineSet
35 1455 m 1
 1093 1455 l 1
 1093 1366 l 1
 622 1366 l 1
 622 0 l 1
 501 0 l 1
 501 1366 l 1
 35 1366 l 1
 35 1455 l 1
EndSplineSet
EndChar

StartChar: Thorn
Encoding: 222 222 104
Width: 1194
VWidth: 0
GlyphClass: 2
Flags: HW
PickledData: "(dp1
S'org.pippin.gimp.org.kernagic'
p2
(dp3
S'lstem'
p4
I0
sS'rstem'
p5
I0
ssS'com.typemytype.robofont.layerData'
p6
(dp7
S'b'
(dp8
S'name'
p9
S'Thorn'
p10
sS'lib'
p11
(dp12
sS'unicodes'
p13
(tsS'width'
p14
I1192
sS'contours'
p15
(tsS'components'
p16
(tsS'anchors'
p17
(tsssS'org.robofab.postScriptHintData'
p18
(dp19
s."
LayerCount: 2
Fore
SplineSet
211 0 m 1
 211 1471 l 1
 332 1471 l 1
 332 1158 l 1
 631 1158 l 2
 884 1158 1063 1064 1063 819 c 0
 1063 568 934 442 626 442 c 2
 333 442 l 1
 333 0 l 1
 211 0 l 1
332 1065 m 1
 332 535 l 1
 633 535 l 2
 847 535 941 597 941 820 c 0
 941 1012 813 1065 628 1065 c 2
 332 1065 l 1
EndSplineSet
EndChar

StartChar: U
Encoding: 85 85 105
Width: 1451
VWidth: 0
GlyphClass: 2
Flags: HW
PickledData: "(dp1
S'org.pippin.gimp.org.kernagic'
p2
(dp3
S'lstem'
p4
I0
sS'rstem'
p5
I0
ssS'com.typemytype.robofont.layerData'
p6
(dp7
sS'org.robofab.postScriptHintData'
p8
(dp9
s."
AnchorPoint: "bot" 723 0 basechar 0
AnchorPoint: "ogonek" 826 8 basechar 0
AnchorPoint: "top" 729 1455 basechar 0
LayerCount: 2
Fore
SplineSet
1154 1456 m 1
 1276 1456 l 1
 1276 539 l 2
 1276 227 1118 -19 725 -19 c 0
 328 -19 174 219 174 543 c 2
 174 1456 l 1
 296 1456 l 1
 296 539 l 2
 296 242 415 78 725 78 c 0
 1019 78 1154 241 1154 539 c 2
 1154 1456 l 1
EndSplineSet
EndChar

StartChar: V
Encoding: 86 86 116
Width: 1379
VWidth: 0
GlyphClass: 2
Flags: HW
PickledData: "(dp1
S'org.pippin.gimp.org.kernagic'
p2
(dp3
S'lstem'
p4
I0
sS'rstem'
p5
I0
ssS'com.typemytype.robofont.layerData'
p6
(dp7
sS'org.robofab.postScriptHintData'
p8
(dp9
s."
LayerCount: 2
Fore
SplineSet
651 0 m 1
 77 1455 l 1
 199 1455 l 1
 361 1028 522 599 686 174 c 1
 850 600 1014 1028 1177 1455 c 1
 1302 1455 l 1
 724 0 l 1
 651 0 l 1
EndSplineSet
EndChar

StartChar: W
Encoding: 87 87 117
Width: 2044
VWidth: 0
GlyphClass: 2
Flags: HW
PickledData: "(dp1
S'org.pippin.gimp.org.kernagic'
p2
(dp3
S'lstem'
p4
I0
sS'rstem'
p5
I0
ssS'com.typemytype.robofont.layerData'
p6
(dp7
sS'org.robofab.postScriptHintData'
p8
(dp9
s."
AnchorPoint: "bot" 1026 0 basechar 0
AnchorPoint: "top" 1027 1455 basechar 0
LayerCount: 2
Fore
SplineSet
1029 1285 m 1
 633 0 l 1
 515 0 l 1
 72 1455 l 1
 179 1455 l 1
 576 154 l 1
 964 1414 l 1
 1090 1414 l 1
 1482 150 l 1
 1856 1455 l 1
 1972 1455 l 1
 1542 0 l 1
 1420 0 l 1
 1029 1285 l 1
EndSplineSet
EndChar

StartChar: X
Encoding: 88 88 122
Width: 1296
VWidth: 0
GlyphClass: 2
Flags: HW
PickledData: "(dp1
S'org.pippin.gimp.org.kernagic'
p2
(dp3
S'lstem'
p4
I0
sS'rstem'
p5
I0
ssS'com.typemytype.robofont.layerData'
p6
(dp7
sS'org.robofab.postScriptHintData'
p8
(dp9
s."
LayerCount: 2
Fore
SplineSet
709 725 m 1
 1186 0 l 1
 1062 0 l 1
 642 638 l 1
 216 0 l 1
 92 0 l 1
 580 731 l 1
 103 1455 l 1
 228 1455 l 1
 649 815 l 1
 1060 1455 l 1
 1185 1455 l 1
 709 725 l 1
EndSplineSet
EndChar

StartChar: Y
Encoding: 89 89 123
Width: 1264
VWidth: 0
GlyphClass: 2
Flags: HW
PickledData: "(dp1
S'org.pippin.gimp.org.kernagic'
p2
(dp3
S'lstem'
p4
I0
sS'rstem'
p5
I0
ssS'com.typemytype.robofont.layerData'
p6
(dp7
sS'org.robofab.postScriptHintData'
p8
(dp9
s."
AnchorPoint: "top" 632 1455 basechar 0
LayerCount: 2
Fore
SplineSet
706 575 m 1
 706 0 l 1
 588 0 l 1
 588 575 l 1
 72 1455 l 1
 180 1455 l 1
 646 675 l 1
 1077 1455 l 1
 1191 1455 l 1
 706 575 l 1
EndSplineSet
EndChar

StartChar: Z
Encoding: 90 90 128
Width: 1195
VWidth: 0
GlyphClass: 2
Flags: HW
PickledData: "(dp1
S'org.pippin.gimp.org.kernagic'
p2
(dp3
S'lstem'
p4
I0
sS'rstem'
p5
I0
ssS'com.typemytype.robofont.layerData'
p6
(dp7
sS'org.robofab.postScriptHintData'
p8
(dp9
s."
AnchorPoint: "bot" 647 0 basechar 0
AnchorPoint: "top" 664 1455 basechar 0
LayerCount: 2
Fore
SplineSet
125 0 m 1
 125 101 l 1
 968 1360 l 1
 169 1360 l 1
 169 1455 l 1
 1084 1455 l 1
 1094 1365 l 1
 244 95 l 1
 1101 95 l 1
 1090 0 l 1
 125 0 l 1
EndSplineSet
EndChar

StartChar: a
Encoding: 97 97 132
Width: 1116
VWidth: 0
GlyphClass: 2
Flags: HW
PickledData: "(dp1
S'org.pippin.gimp.org.kernagic'
p2
(dp3
S'lstem'
p4
I0
sS'rstem'
p5
I0
ssS'com.typemytype.robofont.guides'
p6
(tsS'com.typemytype.robofont.layerData'
p7
(dp8
sS'com.fontlab.hintData'
p9
(dp10
S'vhints'
p11
((dp12
S'position'
p13
I126
sS'width'
p14
I120
s(dp15
g13
I842
sg14
I32
s(dp16
g13
I875
sg14
I86
stp17
sS'hhints'
p18
((dp19
g13
I-15
sg14
I92
s(dp20
g13
I535
sg14
I82
s(dp21
g13
I983
sg14
I92
stp22
ssS'org.robofab.postScriptHintData'
p23
(dp24
s."
HStem: -15 92 535 82 983 92
VStem: 126 120 842 32 875 86
AnchorPoint: "bot" 524 0 basechar 0
AnchorPoint: "ogonek" 899 0 basechar 0
AnchorPoint: "top" 549 1082 basechar 0
LayerCount: 2
Fore
SplineSet
471 76 m 0
 604 76 724 124 825 259 c 1
 825 518 l 1
 621 520 l 1
 610 520 l 2
 300 520 237 435 237 283 c 0
 237 132 343 76 471 76 c 0
117 283 m 0
 117 489 248 604 592 604 c 2
 610 604 l 1
 825 601 l 1
 825 741 l 2
 825 921 732 1011 549 1011 c 0
 441 1011 309 980 213 918 c 1
 171 1011 l 1
 258 1066 416 1104 545 1104 c 0
 784 1104 944 1008 944 725 c 2
 944 1 l 1
 850 1 l 1
 836 165 l 1
 723 22 593 -16 461 -16 c 0
 257 -16 117 86 117 283 c 0
EndSplineSet
EndChar

StartChar: acute
Encoding: 180 180 136
Width: 695
VWidth: 0
GlyphClass: 4
Flags: HW
PickledData: "(dp1
S'org.robofab.postScriptHintData'
p2
(dp3
sS'com.typemytype.robofont.layerData'
p4
(dp5
s."
AnchorPoint: "top" 270 1082 mark 0
LayerCount: 2
Fore
SplineSet
231 1210 m 1
 440 1569 l 1
 581 1569 l 1
 305 1210 l 1
 231 1210 l 1
EndSplineSet
EndChar

StartChar: ae
Encoding: 230 230 138
Width: 1750
VWidth: 0
GlyphClass: 2
Flags: HW
PickledData: "(dp1
S'org.pippin.gimp.org.kernagic'
p2
(dp3
S'lstem'
p4
I0
sS'rstem'
p5
I0
ssS'com.typemytype.robofont.layerData'
p6
(dp7
sS'com.fontlab.hintData'
p8
(dp9
S'vhints'
p10
((dp11
S'position'
p12
I126
sS'width'
p13
I119
s(dp14
g12
I817
sg13
I117
s(dp15
g12
I817
sg13
I82
s(dp16
g12
I1556
sg13
I98
stp17
sS'hhints'
p18
((dp19
g12
I-14
sg13
I98
s(dp20
g12
I518
sg13
I82
s(dp21
g12
I983
sg13
I92
stp22
ssS'org.robofab.postScriptHintData'
p23
(dp24
s."
HStem: -14 98 518 82 983 92
VStem: 126 119 817 117 817 82 1556 98
AnchorPoint: "top" 910 1082 basechar 0
LayerCount: 2
Fore
SplineSet
1267 1005 m 0
 1053 1005 938 835 918 602 c 1
 969 600 1017 599 1061 599 c 0
 1427 599 1525 669 1525 798 c 0
 1525 900 1440 1005 1267 1005 c 0
455 83 m 0
 610 83 771 167 828 303 c 1
 808 351 801 459 801 514 c 2
 801 524 l 1
 767 528 614 530 595 530 c 0
 293 530 226 446 226 303 c 0
 226 142 335 83 455 83 c 0
1634 803 m 0
 1634 561 1458 516 1084 516 c 0
 1032 516 975 517 915 518 c 1
 927 200 1084 75 1296 75 c 0
 1406 75 1480 99 1598 158 c 1
 1637 76 l 1
 1538 20 1427 -19 1278 -19 c 0
 1104 -19 963 57 886 198 c 1
 798 59 597 -16 427 -16 c 0
 250 -12 105 73 105 293 c 0
 105 491 226 614 570 614 c 0
 591 614 766 612 802 608 c 1
 802 740 l 2
 802 918 730 1009 551 1009 c 2
 548 1009 l 2
 443 1009 309 983 198 915 c 1
 150 999 l 1
 251 1061 388 1102 525 1102 c 0
 719 1102 863 1032 884 836 c 1
 934 1018 1102 1101 1265 1101 c 0
 1502 1101 1634 963 1634 803 c 0
EndSplineSet
EndChar

StartChar: ampersand
Encoding: 38 38 143
Width: 1467
VWidth: 0
GlyphClass: 2
Flags: HW
PickledData: "(dp1
S'org.pippin.gimp.org.kernagic'
p2
(dp3
S'lstem'
p4
I0
sS'rstem'
p5
I0
ssS'com.typemytype.robofont.layerData'
p6
(dp7
sS'com.fontlab.hintData'
p8
(dp9
S'vhints'
p10
((dp11
S'position'
p12
I135
sS'width'
p13
I121
s(dp14
g12
I312
sg13
I105
s(dp15
g12
I917
sg13
I110
stp16
sS'hhints'
p17
((dp18
g12
I-19
sg13
I96
s(dp19
g12
I1372
sg13
I96
stp20
ssS'org.robofab.postScriptHintData'
p21
(dp22
s."
HStem: -19 96 1372 96
VStem: 135 121 312 105 917 110
LayerCount: 2
Fore
SplineSet
658 1388 m 0
 494 1388 380 1300 380 1170 c 0
 380 1063 414 997 558 838 c 1
 727 918 893 1013 893 1170 c 0
 893 1303 804 1388 658 1388 c 0
165 371 m 0
 165 557 272 685 470 797 c 1
 336 947 284 1041 284 1168 c 0
 284 1351 435 1475 660 1475 c 0
 856 1475 991 1358 991 1166 c 0
 991 982 822 868 618 774 c 1
 1082 285 l 1
 1158 370 1227 480 1290 615 c 1
 1361 565 l 1
 1313 454 1240 328 1142 222 c 1
 1312 43 l 1
 1246 -24 l 1
 1076 156 l 1
 961 53 817 -19 645 -19 c 0
 334 -19 165 126 165 371 c 0
663 73 m 0
 791 73 909 122 1017 219 c 1
 535 730 l 1
 366 634 278 527 278 377 c 0
 278 181 412 73 663 73 c 0
EndSplineSet
EndChar

StartChar: apostrophemod
Encoding: 700 700 145
Width: 642
VWidth: 0
GlyphClass: 2
Flags: HW
PickledData: "(dp1
S'org.robofab.postScriptHintData'
p2
(dp3
sS'com.typemytype.robofont.layerData'
p4
(dp5
s."
LayerCount: 2
Fore
SplineSet
154 1190 m 1
 154 1190 225 1592 227 1608 c 1
 355 1608 l 1
 349 1576 235 1190 235 1190 c 1
 154 1190 l 1
EndSplineSet
EndChar

StartChar: approxequal
Encoding: 8776 8776 146
Width: 1240
VWidth: 0
GlyphClass: 2
Flags: HW
PickledData: "(dp1
S'org.pippin.gimp.org.kernagic'
p2
(dp3
S'lstem'
p4
I0
sS'rstem'
p5
I0
ssS'com.typemytype.robofont.layerData'
p6
(dp7
S'b'
(dp8
S'name'
p9
S'approxequal'
p10
sS'lib'
p11
(dp12
sS'unicodes'
p13
(tsS'width'
p14
I1136
sS'contours'
p15
(tsS'components'
p16
(tsS'anchors'
p17
(tsssS'org.robofab.postScriptHintData'
p18
(dp19
s."
LayerCount: 2
Fore
SplineSet
900 545 m 0
 981 545 1042 603 1057 713 c 1
 1103 669 l 1
 1081 533 1013 467 903 467 c 0
 824 467 726 503 614 557 c 0
 522 600 440 635 369 635 c 0
 284 635 214 579 183 465 c 1
 138 512 l 1
 174 647 254 715 367 715 c 0
 451 715 538 681 647 630 c 0
 748 583 835 545 900 545 c 0
900 899 m 0
 981 899 1042 957 1057 1067 c 1
 1103 1023 l 1
 1081 887 1013 821 903 821 c 0
 824 821 726 857 614 911 c 0
 522 954 440 989 369 989 c 0
 284 989 214 933 183 819 c 1
 138 866 l 1
 174 1001 254 1069 367 1069 c 0
 451 1069 538 1035 647 984 c 0
 748 937 835 899 900 899 c 0
EndSplineSet
EndChar

StartChar: asciicircum
Encoding: 94 94 149
Width: 1258
VWidth: 0
GlyphClass: 2
Flags: HW
PickledData: "(dp1
S'org.pippin.gimp.org.kernagic'
p2
(dp3
S'lstem'
p4
I0
sS'rstem'
p5
I0
ssS'com.typemytype.robofont.layerData'
p6
(dp7
sS'org.robofab.postScriptHintData'
p8
(dp9
s."
LayerCount: 2
Fore
SplineSet
589 1456 m 1
 657 1456 l 1
 1124 337 l 1
 1022 337 l 1
 625 1313 l 1
 234 337 l 1
 134 337 l 1
 589 1456 l 1
EndSplineSet
EndChar

StartChar: asciitilde
Encoding: 126 126 150
Width: 1208
VWidth: 0
GlyphClass: 2
Flags: HW
PickledData: "(dp1
S'org.pippin.gimp.org.kernagic'
p2
(dp3
S'lstem'
p4
I0
sS'rstem'
p5
I0
ssS'com.typemytype.robofont.layerData'
p6
(dp7
S'b'
(dp8
S'name'
p9
S'asciitilde'
p10
sS'lib'
p11
(dp12
sS'unicodes'
p13
(tsS'width'
p14
I1192
sS'contours'
p15
(tsS'components'
p16
(tsS'anchors'
p17
(tsssS'org.robofab.postScriptHintData'
p18
(dp19
s."
LayerCount: 2
Fore
SplineSet
117 507 m 1
 95 580 l 1
 139 692 227 776 347 776 c 0
 425 776 471 755 578 707 c 0
 679 665 766 619 829 619 c 0
 915 619 1002 706 1023 789 c 1
 1055 725 l 1
 1007 591 948 522 833 522 c 0
 773 522 699 550 621 585 c 0
 502 637 418 676 347 676 c 0
 256 676 166 601 117 507 c 1
EndSplineSet
EndChar

StartChar: asterisk
Encoding: 42 42 151
Width: 1109
VWidth: 0
GlyphClass: 2
Flags: HW
PickledData: "(dp1
S'org.pippin.gimp.org.kernagic'
p2
(dp3
S'lstem'
p4
I0
sS'rstem'
p5
I0
ssS'com.typemytype.robofont.layerData'
p6
(dp7
sS'org.robofab.postScriptHintData'
p8
(dp9
s."
LayerCount: 2
Fore
SplineSet
350 602 m 1
 249 674 l 1
 495 1016 l 1
 129 1100 l 1
 161 1222 l 1
 524 1070 l 1
 487 1482 l 1
 624 1482 l 1
 585 1070 l 1
 949 1222 l 1
 984 1100 l 1
 610 1016 l 1
 650 961 728 850 866 674 c 1
 781 621 847 656 763 603 c 1
 549 978 l 1
 350 602 l 1
EndSplineSet
EndChar

StartChar: at
Encoding: 64 64 152
Width: 2062
VWidth: 0
GlyphClass: 2
Flags: HW
PickledData: "(dp1
S'org.pippin.gimp.org.kernagic'
p2
(dp3
S'lstem'
p4
I0
sS'rstem'
p5
I0
ssS'com.typemytype.robofont.layerData'
p6
(dp7
sS'org.robofab.postScriptHintData'
p8
(dp9
s."
LayerCount: 2
Fore
SplineSet
949 285 m 0
 1109 285 1182 474 1217 684 c 1
 1268 975 l 1
 1212 988 1131 1001 1096 1001 c 0
 890 1001 747 827 747 568 c 0
 747 377 823 285 949 285 c 0
1005 -234 m 0
 510 -234 187 76 187 596 c 0
 187 1115 557 1498 1076 1498 c 0
 1522 1498 1855 1210 1855 745 c 0
 1855 390 1660 213 1480 213 c 0
 1384 213 1266 284 1244 469 c 1
 1190 312 1086 194 934 194 c 0
 749 194 634 335 634 561 c 0
 634 841 794 1083 1085 1083 c 0
 1186 1083 1299 1053 1389 1019 c 1
 1345 754 1324 616 1324 485 c 0
 1324 385 1375 297 1480 297 c 0
 1638 297 1758 492 1758 748 c 0
 1758 1136 1489 1406 1073 1406 c 0
 631 1406 299 1068 299 596 c 0
 299 127 590 -143 1010 -143 c 0
 1183 -143 1354 -103 1493 -16 c 1
 1528 -93 l 1
 1392 -184 1206 -234 1005 -234 c 0
EndSplineSet
EndChar

StartChar: b
Encoding: 98 98 154
Width: 1227
VWidth: 0
GlyphClass: 2
Flags: HW
PickledData: "(dp1
S'org.pippin.gimp.org.kernagic'
p2
(dp3
S'lstem'
p4
I0
sS'rstem'
p5
I0
ssS'com.typemytype.robofont.guides'
p6
(tsS'com.typemytype.robofont.layerData'
p7
(dp8
sS'com.fontlab.hintData'
p9
(dp10
S'vhints'
p11
((dp12
S'position'
p13
I193
sS'width'
p14
I125
s(dp15
g13
I193
sg14
I94
s(dp16
g13
I1018
sg14
I122
stp17
sS'hhints'
p18
((dp19
g13
I-19
sg14
I92
s(dp20
g13
I982
sg14
I92
stp21
ssS'org.robofab.postScriptHintData'
p22
(dp23
s."
HStem: -19 92 982 92
VStem: 193 125 193 94 1018 122
AnchorPoint: "top" 669 1082 basechar 0
LayerCount: 2
Fore
SplineSet
640 72 m 0
 886 72 986 271 986 538 c 0
 986 799 907 1012 650 1012 c 0
 432 1012 296 834 297 575 c 1
 297 275 l 1
 355 160 461 72 640 72 c 0
662 1104 m 0
 960 1104 1109 881 1109 537 c 0
 1109 206 942 -20 642 -20 c 0
 459 -20 345 63 281 158 c 1
 270 0 l 1
 180 0 l 1
 180 1540 l 1
 301 1560 l 1
 301 1084 l 1
 299 870 l 1
 374 1031 512 1104 662 1104 c 0
EndSplineSet
EndChar

StartChar: backslash
Encoding: 92 92 155
Width: 964
VWidth: 0
GlyphClass: 2
Flags: HW
PickledData: "(dp1
S'org.pippin.gimp.org.kernagic'
p2
(dp3
S'lstem'
p4
I0
sS'rstem'
p5
I0
ssS'com.typemytype.robofont.layerData'
p6
(dp7
S'b'
(dp8
S'name'
p9
S'backslash'
p10
sS'lib'
p11
(dp12
sS'unicodes'
p13
(tsS'width'
p14
I937
sS'contours'
p15
(tsS'components'
p16
(tsS'anchors'
p17
(tsssS'org.robofab.postScriptHintData'
p18
(dp19
s."
LayerCount: 2
Fore
SplineSet
703 -51 m 1
 125 1465 l 1
 208 1465 l 1
 787 -51 l 1
 703 -51 l 1
EndSplineSet
EndChar

StartChar: bar
Encoding: 124 124 156
Width: 360
VWidth: 0
GlyphClass: 2
Flags: HW
PickledData: "(dp1
S'org.pippin.gimp.org.kernagic'
p2
(dp3
S'lstem'
p4
I0
sS'rstem'
p5
I0
ssS'com.typemytype.robofont.layerData'
p6
(dp7
S'b'
(dp8
S'name'
p9
S'bar'
p10
sS'lib'
p11
(dp12
sS'unicodes'
p13
(tsS'width'
p14
I681
sS'contours'
p15
(tsS'components'
p16
(tsS'anchors'
p17
(tsssS'org.robofab.postScriptHintData'
p18
(dp19
s."
LayerCount: 2
Fore
SplineSet
123 1529 m 1
 218 1529 l 1
 218 -364 l 1
 123 -364 l 1
 123 1529 l 1
EndSplineSet
EndChar

StartChar: braceleft
Encoding: 123 123 157
Width: 837
VWidth: 0
GlyphClass: 2
Flags: HW
PickledData: "(dp1
S'org.pippin.gimp.org.kernagic'
p2
(dp3
S'lstem'
p4
I0
sS'rstem'
p5
I0
ssS'com.typemytype.robofont.layerData'
p6
(dp7
sS'org.robofab.postScriptHintData'
p8
(dp9
s."
LayerCount: 2
Fore
SplineSet
661 -274 m 1
 408 -274 359 -194 359 52 c 2
 359 261 l 2
 359 466 354 565 150 567 c 1
 150 651 l 1
 353 653 359 752 359 957 c 2
 359 1167 l 2
 359 1413 413 1493 666 1493 c 1
 666 1411 l 1
 514 1410 475 1363 475 1160 c 2
 475 895 l 2
 475 719 444 631 290 609 c 1
 444 587 475 499 475 323 c 2
 475 58 l 2
 475 -144 509 -191 661 -193 c 1
 661 -274 l 1
EndSplineSet
EndChar

StartChar: braceright
Encoding: 125 125 158
Width: 837
VWidth: 0
GlyphClass: 2
Flags: HW
PickledData: "(dp1
S'org.pippin.gimp.org.kernagic'
p2
(dp3
S'lstem'
p4
I0
sS'rstem'
p5
I0
ssS'com.typemytype.robofont.layerData'
p6
(dp7
sS'org.robofab.postScriptHintData'
p8
(dp9
s."
LayerCount: 2
Fore
SplineSet
127 -274 m 1
 127 -193 l 1
 279 -191 312 -144 312 58 c 2
 312 323 l 2
 312 499 344 587 498 609 c 1
 344 631 312 719 312 895 c 2
 312 1160 l 2
 312 1363 274 1410 122 1411 c 1
 122 1493 l 1
 375 1493 429 1413 429 1167 c 2
 429 957 l 2
 429 752 435 653 638 651 c 1
 638 567 l 1
 433 565 429 466 429 261 c 2
 429 52 l 2
 429 -194 380 -274 127 -274 c 1
EndSplineSet
EndChar

StartChar: bracketleft
Encoding: 91 91 159
Width: 699
VWidth: 0
GlyphClass: 2
Flags: HW
PickledData: "(dp1
S'org.pippin.gimp.org.kernagic'
p2
(dp3
S'lstem'
p4
I0
sS'rstem'
p5
I0
ssS'com.typemytype.robofont.layerData'
p6
(dp7
sS'org.robofab.postScriptHintData'
p8
(dp9
s."
LayerCount: 2
Fore
SplineSet
194 -236 m 1
 194 1526 l 1
 633 1526 l 1
 633 1437 l 1
 313 1437 l 1
 313 -149 l 1
 633 -149 l 1
 633 -236 l 1
 194 -236 l 1
EndSplineSet
EndChar

StartChar: bracketright
Encoding: 93 93 160
Width: 758
VWidth: 0
GlyphClass: 2
Flags: HW
PickledData: "(dp1
S'org.pippin.gimp.org.kernagic'
p2
(dp3
S'lstem'
p4
I0
sS'rstem'
p5
I0
ssS'com.typemytype.robofont.layerData'
p6
(dp7
sS'org.robofab.postScriptHintData'
p8
(dp9
s."
LayerCount: 2
Fore
SplineSet
144 -236 m 1
 144 -149 l 1
 463 -149 l 1
 463 1437 l 1
 144 1437 l 1
 144 1526 l 1
 581 1526 l 1
 581 -236 l 1
 144 -236 l 1
EndSplineSet
EndChar

StartChar: breve
Encoding: 728 728 161
Width: 837
VWidth: 0
GlyphClass: 4
Flags: HW
PickledData: "(dp1
S'org.robofab.postScriptHintData'
p2
(dp3
sS'com.typemytype.robofont.layerData'
p4
(dp5
s."
AnchorPoint: "top" 415 1057 mark 0
LayerCount: 2
Fore
SplineSet
410 1269 m 0
 297 1269 198 1333 198 1495 c 1
 272 1495 l 1
 272 1385 348 1341 410 1341 c 0
 472 1341 555 1385 555 1495 c 1
 627 1495 l 1
 627 1334 523 1269 410 1269 c 0
EndSplineSet
EndChar

StartChar: breveinvertedcomb
Encoding: 785 785 162
Width: 752
VWidth: 0
GlyphClass: 4
Flags: HW
PickledData: "(dp1
S'org.robofab.postScriptHintData'
p2
(dp3
sS'com.typemytype.robofont.layerData'
p4
(dp5
s."
AnchorPoint: "top" 391 1057 mark 0
LayerCount: 2
Fore
SplineSet
173 1269 m 1
 173 1431 272 1495 384 1495 c 0
 498 1495 601 1430 601 1269 c 1
 530 1269 l 1
 530 1379 447 1423 384 1423 c 0
 323 1423 246 1379 246 1269 c 1
 173 1269 l 1
EndSplineSet
EndChar

StartChar: brokenbar
Encoding: 166 166 163
Width: 297
VWidth: 0
GlyphClass: 2
Flags: HW
PickledData: "(dp1
S'org.pippin.gimp.org.kernagic'
p2
(dp3
S'lstem'
p4
I0
sS'rstem'
p5
I0
ssS'com.typemytype.robofont.layerData'
p6
(dp7
S'b'
(dp8
S'name'
p9
S'brokenbar'
p10
sS'lib'
p11
(dp12
sS'unicodes'
p13
(tsS'width'
p14
I653
sS'contours'
p15
(tsS'components'
p16
(tsS'anchors'
p17
(tsssS'org.robofab.postScriptHintData'
p18
(dp19
s."
LayerCount: 2
Fore
SplineSet
101 1504 m 1
 187 1504 l 1
 187 802 l 1
 101 802 l 1
 101 1504 l 1
101 546 m 1
 187 546 l 1
 187 -159 l 1
 101 -159 l 1
 101 546 l 1
EndSplineSet
EndChar

StartChar: bullet
Encoding: 8226 8226 164
Width: 845
VWidth: 0
GlyphClass: 2
Flags: HW
PickledData: "(dp1
S'org.pippin.gimp.org.kernagic'
p2
(dp3
S'lstem'
p4
I0
sS'rstem'
p5
I0
ssS'com.typemytype.robofont.layerData'
p6
(dp7
S'b'
(dp8
S'name'
p9
S'bullet'
p10
sS'lib'
p11
(dp12
sS'unicodes'
p13
(tsS'width'
p14
I908
sS'contours'
p15
(tsS'components'
p16
(tsS'anchors'
p17
(tsssS'org.robofab.postScriptHintData'
p18
(dp19
s."
LayerCount: 2
Fore
SplineSet
411 444 m 0
 260 444 111 550 111 763 c 0
 111 980 264 1090 417 1090 c 0
 569 1090 720 982 720 767 c 0
 720 552 564 444 411 444 c 0
EndSplineSet
EndChar

StartChar: c
Encoding: 99 99 165
Width: 1081
VWidth: 0
GlyphClass: 2
Flags: HW
PickledData: "(dp1
S'org.pippin.gimp.org.kernagic'
p2
(dp3
S'lstem'
p4
I0
sS'rstem'
p5
I696
ssS'com.typemytype.robofont.guides'
p6
((dp7
S'y'
I417
sS'x'
I962
sS'magnetic'
p8
I5
sS'angle'
p9
F90
sS'isGlobal'
p10
I00
s(dp11
S'y'
I1020
sS'x'
I565
sg8
I5
sg9
F90
sg10
I00
s(dp12
S'y'
I994
sS'x'
I572
sg8
I5
sg9
F90
sg10
I00
stp13
sS'com.typemytype.robofont.layerData'
p14
(dp15
sS'com.fontlab.hintData'
p16
(dp17
S'vhints'
p18
((dp19
S'position'
p20
I128
sS'width'
p21
I120
stp22
sS'hhints'
p23
((dp24
g20
I-19
sg21
I92
s(dp25
g20
I982
sg21
I92
stp26
ssS'org.robofab.postScriptHintData'
p27
(dp28
s."
HStem: -19 92 982 92
VStem: 128 120
AnchorPoint: "bot" 606 0 basechar 0
AnchorPoint: "top" 614 1082 basechar 0
LayerCount: 2
Fore
SplineSet
894 262 m 1
 911 262 l 1
 981 227 l 1
 941 90 804 -20 596 -20 c 0
 301 -20 118 197 118 542 c 0
 118 887 301 1104 596 1104 c 0
 804 1104 940 994 981 857 c 1
 910 820 l 1
 894 820 l 1
 852 936 744 1012 598 1012 c 0
 369 1012 242 832 242 542 c 0
 242 251 369 71 598 71 c 0
 744 71 851 147 894 262 c 1
EndSplineSet
EndChar

StartChar: caron
Encoding: 711 711 167
Width: 864
VWidth: 0
GlyphClass: 4
Flags: HW
PickledData: "(dp1
S'org.robofab.postScriptHintData'
p2
(dp3
sS'com.typemytype.robofont.layerData'
p4
(dp5
s."
AnchorPoint: "top" 430 1082 mark 0
LayerCount: 2
Fore
SplineSet
354 1215 m 1
 166 1533 l 1
 257 1533 l 1
 419 1293 l 1
 579 1533 l 1
 670 1533 l 1
 482 1215 l 1
 354 1215 l 1
EndSplineSet
EndChar

StartChar: caron.alt
Encoding: 65537 -1 168
Width: 806
VWidth: 0
GlyphClass: 4
Flags: HW
PickledData: "(dp1
S'org.robofab.postScriptHintData'
p2
(dp3
sS'com.typemytype.robofont.layerData'
p4
(dp5
s."
AnchorPoint: "caron.alt" 329 1082 mark 0
LayerCount: 2
Fore
SplineSet
532 1182 m 1
 585 1533 l 1
 714 1533 l 1
 626 1182 l 1
 532 1182 l 1
EndSplineSet
EndChar

StartChar: cedilla
Encoding: 184 184 173
Width: 643
VWidth: 0
GlyphClass: 4
Flags: HW
PickledData: "(dp1
S'org.robofab.postScriptHintData'
p2
(dp3
sS'com.typemytype.robofont.layerData'
p4
(dp5
s."
AnchorPoint: "bot" 336 4 mark 0
LayerCount: 2
Fore
SplineSet
471 -199 m 0
 471 -153 449 -93 349 -93 c 0
 330 -93 308 -95 282 -100 c 1
 281 -60 l 1
 313 -48 346 -42 378 -42 c 0
 469 -42 548 -93 548 -200 c 0
 548 -317 444 -392 299 -392 c 0
 244 -392 194 -381 148 -360 c 1
 172 -298 l 1
 211 -319 257 -330 302 -330 c 0
 389 -330 471 -289 471 -199 c 0
EndSplineSet
EndChar

StartChar: cent
Encoding: 162 162 174
Width: 1038
VWidth: 0
GlyphClass: 2
Flags: HW
PickledData: "(dp1
S'org.pippin.gimp.org.kernagic'
p2
(dp3
S'lstem'
p4
I0
sS'rstem'
p5
I0
ssS'com.typemytype.robofont.layerData'
p6
(dp7
sS'org.robofab.postScriptHintData'
p8
(dp9
s."
LayerCount: 2
Fore
SplineSet
547 1380 m 1
 638 1380 l 1
 638 1102 l 1
 822 1088 943 985 981 857 c 1
 910 820 l 1
 894 820 l 1
 852 936 744 1012 598 1012 c 0
 369 1012 242 832 242 542 c 0
 242 251 369 71 598 71 c 0
 744 71 851 147 894 262 c 1
 911 262 l 1
 981 227 l 1
 944 100 824 -3 642 -18 c 1
 635 -296 l 1
 542 -296 l 1
 542 -17 l 1
 279 8 118 219 118 542 c 0
 118 866 279 1077 543 1102 c 1
 547 1380 l 1
EndSplineSet
EndChar

StartChar: circumflex
Encoding: 710 710 175
Width: 859
VWidth: 0
GlyphClass: 4
Flags: HW
PickledData: "(dp1
S'org.robofab.postScriptHintData'
p2
(dp3
sS'com.typemytype.robofont.layerData'
p4
(dp5
s."
AnchorPoint: "top" 426 1082 mark 0
LayerCount: 2
Fore
SplineSet
166 1219 m 1
 353 1538 l 1
 482 1538 l 1
 669 1219 l 1
 579 1219 l 1
 418 1460 l 1
 257 1219 l 1
 166 1219 l 1
EndSplineSet
EndChar

StartChar: colon
Encoding: 58 58 176
Width: 540
VWidth: 0
GlyphClass: 2
Flags: HW
PickledData: "(dp1
S'org.pippin.gimp.org.kernagic'
p2
(dp3
S'lstem'
p4
I0
sS'rstem'
p5
I0
ssS'com.typemytype.robofont.layerData'
p6
(dp7
S'b'
(dp8
S'name'
p9
S'colon'
p10
sS'lib'
p11
(dp12
sS'unicodes'
p13
(tsS'width'
p14
I653
sS'contours'
p15
(tsS'components'
p16
(tsS'anchors'
p17
(tsssS'org.robofab.postScriptHintData'
p18
(dp19
s."
LayerCount: 2
Fore
SplineSet
260 -16 m 0
 188 -16 166 35 166 80 c 0
 166 123 186 175 260 175 c 0
 331 175 351 123 351 80 c 0
 351 34 331 -16 260 -16 c 0
260 873 m 0
 188 873 166 924 166 969 c 0
 166 1013 186 1064 260 1064 c 0
 331 1064 351 1013 351 969 c 0
 351 924 331 873 260 873 c 0
EndSplineSet
EndChar

StartChar: comma
Encoding: 44 44 177
Width: 518
VWidth: 0
GlyphClass: 2
Flags: HW
PickledData: "(dp1
S'org.pippin.gimp.org.kernagic'
p2
(dp3
S'lstem'
p4
I0
sS'rstem'
p5
I0
ssS'com.typemytype.robofont.layerData'
p6
(dp7
sS'org.robofab.postScriptHintData'
p8
(dp9
s."
LayerCount: 2
Fore
SplineSet
171 -296 m 1
 171 -296 189 136 189 211 c 1
 323 211 l 1
 323 162 l 2
 323 132 230 -296 230 -296 c 1
 171 -296 l 1
EndSplineSet
EndChar

StartChar: commaaccent
Encoding: 806 806 178
Width: 604
VWidth: 0
GlyphClass: 4
Flags: HW
PickledData: "(dp1
S'org.robofab.postScriptHintData'
p2
(dp3
s."
AnchorPoint: "bot" 319 0 mark 0
LayerCount: 2
Fore
SplineSet
233 -506 m 1
 233 -506 258 -258 258 -153 c 1
 372 -153 l 1
 374 -217 299 -506 299 -506 c 1
 233 -506 l 1
EndSplineSet
EndChar

StartChar: commaturnedabovecomb
Encoding: 786 786 179
Width: 600
VWidth: 0
GlyphClass: 4
Flags: HW
PickledData: "(dp1
S'org.robofab.postScriptHintData'
p2
(dp3
s."
AnchorPoint: "top" 301 1057 mark 0
LayerCount: 2
Fore
SplineSet
227 1313 m 1
 227 1358 314 1780 314 1780 c 1
 378 1780 l 1
 378 1780 365 1392 365 1287 c 1
 226 1287 l 1
 227 1313 l 1
EndSplineSet
EndChar

StartChar: copyright
Encoding: 169 169 180
Width: 1865
VWidth: 0
GlyphClass: 2
Flags: HW
PickledData: "(dp1
S'org.pippin.gimp.org.kernagic'
p2
(dp3
S'lstem'
p4
I0
sS'rstem'
p5
I0
ssS'com.typemytype.robofont.layerData'
p6
(dp7
sS'org.robofab.postScriptHintData'
p8
(dp9
s."
LayerCount: 2
Fore
SplineSet
892 -37 m 0
 510 -37 106 210 106 749 c 0
 106 1288 510 1537 892 1537 c 0
 1275 1537 1686 1288 1686 749 c 0
 1686 210 1275 -37 892 -37 c 0
892 33 m 0
 1229 33 1593 258 1593 749 c 0
 1593 1240 1229 1465 892 1465 c 0
 555 1465 195 1240 195 749 c 0
 195 257 555 33 892 33 c 0
926 229 m 0
 657 229 419 443 419 748 c 0
 419 1046 651 1264 914 1264 c 0
 1012 1264 1113 1233 1208 1168 c 1
 1170 1089 l 1
 1092 1152 991 1179 916 1179 c 0
 710 1179 529 1002 529 755 c 0
 529 479 710 313 925 313 c 0
 1011 313 1089 331 1185 389 c 1
 1212 315 l 1
 1119 256 1021 229 926 229 c 0
EndSplineSet
EndChar

StartChar: currency
Encoding: 164 164 181
Width: 1347
VWidth: 0
GlyphClass: 2
Flags: HW
PickledData: "(dp1
S'org.pippin.gimp.org.kernagic'
p2
(dp3
S'lstem'
p4
I0
sS'rstem'
p5
I0
ssS'com.typemytype.robofont.layerData'
p6
(dp7
S'b'
(dp8
S'name'
p9
S'currency'
p10
sS'lib'
p11
(dp12
sS'unicodes'
p13
(tsS'width'
p14
I1164
sS'contours'
p15
(tsS'components'
p16
(tsS'anchors'
p17
(tsssS'org.robofab.postScriptHintData'
p18
(dp19
s."
LayerCount: 2
Fore
SplineSet
992 711 m 0
 992 893 872 1054 662 1054 c 0
 454 1054 333 894 333 711 c 0
 333 527 454 369 662 369 c 0
 873 369 992 528 992 711 c 0
933 1019 m 1
 1117 1193 l 1
 1161 1143 l 1
 978 967 l 1
 1038 888 1065 801 1065 711 c 0
 1065 613 1037 526 979 455 c 1
 1160 277 l 1
 1117 227 l 1
 933 401 l 1
 859 338 767 305 662 305 c 0
 558 305 466 338 392 403 c 1
 208 228 l 1
 161 279 l 1
 345 455 l 1
 287 530 258 616 258 711 c 0
 258 805 287 894 345 967 c 1
 160 1146 l 1
 208 1193 l 1
 390 1020 l 1
 466 1086 559 1119 662 1119 c 0
 765 1119 860 1082 933 1019 c 1
EndSplineSet
EndChar

StartChar: d
Encoding: 100 100 182
Width: 1220
VWidth: 0
GlyphClass: 2
Flags: HW
PickledData: "(dp1
S'org.pippin.gimp.org.kernagic'
p2
(dp3
S'lstem'
p4
I0
sS'rstem'
p5
I0
ssS'com.typemytype.robofont.layerData'
p6
(dp7
sS'com.fontlab.hintData'
p8
(dp9
S'vhints'
p10
((dp11
S'position'
p12
I114
sS'width'
p13
I166
s(dp14
g12
I907
sg13
I161
s(dp15
g12
I930
sg13
I138
stp16
sS'hhints'
p17
((dp18
g12
I-19
sg13
I127
s(dp19
g12
I953
sg13
I127
stp20
ssS'org.robofab.postScriptHintData'
p21
(dp22
s."
HStem: -19 127 953 127
VStem: 114 166 907 161 930 138
AnchorPoint: "mid" 989 1275 basechar 0
AnchorPoint: "caron.alt" 1068 1134 basechar 0
AnchorPoint: "top" 576 1082 basechar 0
LayerCount: 2
Fore
SplineSet
589 72 m 0
 742 72 868 140 927 256 c 1
 927 807 l 1
 864 944 741 1012 597 1012 c 0
 371 1012 242 832 242 547 c 0
 242 255 367 72 589 72 c 0
591 1102 m 0
 594 1102 598 1102 601 1102 c 0
 755 1102 869 1040 931 942 c 1
 924 1170 l 1
 924 1540 l 1
 1047 1560 l 1
 1047 0 l 1
 948 0 l 1
 939 149 l 1
 864 40 728 -20 587 -20 c 2
 585 -20 l 2
 291 -20 118 203 118 547 c 0
 118 885 298 1102 591 1102 c 0
EndSplineSet
EndChar

StartChar: dagger
Encoding: 8224 8224 183
Width: 990
VWidth: 0
GlyphClass: 2
Flags: HW
PickledData: "(dp1
S'org.pippin.gimp.org.kernagic'
p2
(dp3
S'lstem'
p4
I0
sS'rstem'
p5
I0
ssS'com.typemytype.robofont.layerData'
p6
(dp7
S'b'
(dp8
S'name'
p9
S'dagger'
p10
sS'lib'
p11
(dp12
sS'unicodes'
p13
(tsS'width'
p14
I1050
sS'contours'
p15
(tsS'components'
p16
(tsS'anchors'
p17
(tsssS'org.robofab.postScriptHintData'
p18
(dp19
s."
LayerCount: 2
Fore
SplineSet
447 1469 m 1
 514 1469 l 1
 514 1071 l 1
 799 1071 l 1
 799 1011 l 1
 520 1011 l 1
 520 123 l 1
 447 123 l 1
 447 1011 l 1
 163 1011 l 1
 163 1071 l 1
 447 1071 l 1
 447 1469 l 1
EndSplineSet
EndChar

StartChar: daggerdbl
Encoding: 8225 8225 184
Width: 1043
VWidth: 0
GlyphClass: 2
Flags: HW
PickledData: "(dp1
S'org.pippin.gimp.org.kernagic'
p2
(dp3
S'lstem'
p4
I0
sS'rstem'
p5
I0
ssS'com.typemytype.robofont.layerData'
p6
(dp7
S'b'
(dp8
S'name'
p9
S'daggerdbl'
p10
sS'lib'
p11
(dp12
sS'unicodes'
p13
(tsS'width'
p14
I1022
sS'contours'
p15
(tsS'components'
p16
(tsS'anchors'
p17
(tsssS'org.robofab.postScriptHintData'
p18
(dp19
s."
LayerCount: 2
Fore
SplineSet
444 1462 m 1
 511 1462 l 1
 511 1065 l 1
 796 1065 l 1
 796 1004 l 1
 517 1004 l 1
 517 546 l 1
 795 546 l 1
 795 486 l 1
 517 486 l 1
 517 123 l 1
 444 123 l 1
 444 486 l 1
 160 486 l 1
 160 546 l 1
 444 546 l 1
 444 1004 l 1
 160 1004 l 1
 160 1065 l 1
 444 1065 l 1
 444 1462 l 1
EndSplineSet
EndChar

StartChar: dblgravecomb
Encoding: 783 783 185
Width: 764
VWidth: 0
GlyphClass: 4
Flags: HW
PickledData: "(dp1
S'org.robofab.postScriptHintData'
p2
(dp3
sS'com.typemytype.robofont.layerData'
p4
(dp5
s."
AnchorPoint: "top" 429 1057 mark 0
LayerCount: 2
Fore
SplineSet
487 1241 m 1
 340 1560 l 1
 445 1560 l 1
 562 1241 l 1
 487 1241 l 1
265 1241 m 1
 72 1560 l 1
 191 1560 l 1
 341 1241 l 1
 265 1241 l 1
EndSplineSet
EndChar

StartChar: degree
Encoding: 176 176 188
Width: 863
VWidth: 0
GlyphClass: 2
Flags: HW
PickledData: "(dp1
S'org.pippin.gimp.org.kernagic'
p2
(dp3
S'lstem'
p4
I0
sS'rstem'
p5
I0
ssS'com.typemytype.robofont.layerData'
p6
(dp7
sS'org.robofab.postScriptHintData'
p8
(dp9
s."
LayerCount: 2
Fore
SplineSet
426 912 m 0
 286 912 130 1020 130 1201 c 0
 130 1377 284 1489 426 1489 c 0
 574 1489 726 1377 726 1201 c 0
 726 1029 577 912 426 912 c 0
428 987 m 0
 548 987 642 1078 642 1200 c 0
 642 1325 548 1414 427 1414 c 0
 310 1414 216 1325 216 1200 c 0
 216 1076 307 987 428 987 c 0
EndSplineSet
EndChar

StartChar: dieresis
Encoding: 168 168 189
Width: 837
VWidth: 0
GlyphClass: 4
Flags: HW
PickledData: "(dp1
S'org.robofab.postScriptHintData'
p2
(dp3
sS'com.typemytype.robofont.layerData'
p4
(dp5
s."
AnchorPoint: "top" 418 1082 mark 0
LayerCount: 2
Fore
SplineSet
599 1329 m 0
 539 1329 521 1370 521 1409 c 0
 521 1447 538 1487 599 1487 c 0
 658 1487 675 1447 675 1409 c 0
 675 1369 658 1329 599 1329 c 0
213 1329 m 0
 154 1329 136 1370 136 1409 c 0
 136 1447 152 1487 213 1487 c 0
 273 1487 289 1447 289 1409 c 0
 289 1370 273 1329 213 1329 c 0
EndSplineSet
EndChar

StartChar: divide
Encoding: 247 247 190
Width: 1078
VWidth: 0
GlyphClass: 2
Flags: HW
PickledData: "(dp1
S'org.pippin.gimp.org.kernagic'
p2
(dp3
S'lstem'
p4
I0
sS'rstem'
p5
I0
ssS'com.typemytype.robofont.layerData'
p6
(dp7
sS'org.robofab.postScriptHintData'
p8
(dp9
s."
LayerCount: 2
Fore
SplineSet
454 1065 m 1
 609 1065 l 1
 609 894 l 1
 454 894 l 1
 454 1065 l 1
454 209 m 1
 609 209 l 1
 609 37 l 1
 454 37 l 1
 454 209 l 1
74 623 m 1
 987 623 l 1
 987 512 l 1
 74 512 l 1
 74 623 l 1
EndSplineSet
EndChar

StartChar: dollar
Encoding: 36 36 191
Width: 1202
VWidth: 0
GlyphClass: 2
Flags: HW
PickledData: "(dp1
S'org.pippin.gimp.org.kernagic'
p2
(dp3
S'lstem'
p4
I0
sS'rstem'
p5
I0
ssS'com.typemytype.robofont.layerData'
p6
(dp7
S'b'
(dp8
S'name'
p9
S'dollar'
p10
sS'lib'
p11
(dp12
sS'unicodes'
p13
(tsS'width'
p14
I1221
sS'contours'
p15
(tsS'components'
p16
(tsS'anchors'
p17
(tsssS'org.robofab.postScriptHintData'
p18
(dp19
s."
LayerCount: 2
Fore
SplineSet
586 1731 m 1
 672 1731 l 1
 672 1474 l 1
 830 1465 963 1398 1031 1326 c 1
 979 1256 l 1
 968 1256 l 1
 908 1313 794 1381 630 1381 c 0
 455 1381 265 1321 265 1125 c 0
 265 979 318 945 498 871 c 2
 722 779 l 1
 922 698 1082 634 1082 391 c 0
 1082 102 887 -2 662 -17 c 1
 656 -320 l 1
 572 -320 l 1
 572 -19 l 1
 323 -12 191 91 139 151 c 1
 198 220 l 1
 207 220 l 1
 304 131 418 78 599 78 c 0
 828 78 973 162 973 389 c 0
 973 541 905 590 684 679 c 1
 462 770 l 1
 264 850 149 908 149 1108 c 0
 149 1382 370 1463 580 1474 c 1
 586 1731 l 1
EndSplineSet
EndChar

StartChar: dotaccent
Encoding: 729 729 192
Width: 347
VWidth: 0
GlyphClass: 4
Flags: HW
PickledData: "(dp1
S'org.robofab.postScriptHintData'
p2
(dp3
sS'com.typemytype.robofont.layerData'
p4
(dp5
s."
AnchorPoint: "top" 170 1082 mark 0
LayerCount: 2
Fore
SplineSet
262 1414 m 0
 262 1355 232 1323 171 1323 c 0
 109 1323 78 1355 78 1414 c 0
 78 1472 109 1504 171 1504 c 0
 232 1504 262 1472 262 1414 c 0
EndSplineSet
EndChar

StartChar: dotlessi
Encoding: 305 305 193
Width: 485
VWidth: 0
GlyphClass: 2
Flags: HW
PickledData: "(dp1
S'org.pippin.gimp.org.kernagic'
p2
(dp3
S'lstem'
p4
I0
sS'rstem'
p5
I0
ssS'com.typemytype.robofont.layerData'
p6
(dp7
sS'org.robofab.postScriptHintData'
p8
(dp9
s."
AnchorPoint: "ogonek" 253 0 basechar 0
AnchorPoint: "top" 253 1082 basechar 0
LayerCount: 2
Fore
SplineSet
189 1082 m 1
 309 1082 l 1
 309 0 l 1
 189 0 l 1
 189 1082 l 1
EndSplineSet
EndChar

StartChar: dotlessj
Encoding: 567 567 194
Width: 526
VWidth: 0
GlyphClass: 2
Flags: HW
PickledData: "(dp1
S'org.pippin.gimp.org.kernagic'
p2
(dp3
S'lstem'
p4
I0
sS'rstem'
p5
I0
ssS'com.typemytype.robofont.layerData'
p6
(dp7
sS'com.fontlab.hintData'
p8
(dp9
S'vhints'
p10
((dp11
S'position'
p12
I111
sS'width'
p13
I142
stp14
sS'hhints'
p15
((dp16
g12
I-479
sg13
I112
stp17
ssS'org.robofab.postScriptHintData'
p18
(dp19
s."
HStem: -479 112
VStem: 111 142
LayerCount: 2
Fore
SplineSet
230 1082 m 1
 351 1082 l 1
 351 -16 l 2
 351 -254 262 -322 91 -333 c 1
 34 -336 l 1
 30 -231 l 1
 76 -227 l 1
 228 -215 230 -158 230 43 c 2
 230 1082 l 1
EndSplineSet
EndChar

StartChar: e
Encoding: 101 101 195
Width: 1122
VWidth: 0
GlyphClass: 2
Flags: HW
PickledData: "(dp1
S'org.pippin.gimp.org.kernagic'
p2
(dp3
S'lstem'
p4
I0
sS'rstem'
p5
I747
ssS'com.typemytype.robofont.layerData'
p6
(dp7
sS'com.fontlab.hintData'
p8
(dp9
S'hhints'
p10
((dp11
S'position'
p12
I-19
sS'width'
p13
I94
s(dp14
g12
I982
sg13
I92
stp15
ssS'org.robofab.postScriptHintData'
p16
(dp17
s."
HStem: -19 94 982 92
AnchorPoint: "bot" 609 0 basechar 0
AnchorPoint: "ogonek" 779 22 basechar 0
AnchorPoint: "top" 592 1082 basechar 0
LayerCount: 2
Fore
SplineSet
242 616 m 1
 905 616 l 1
 899 870 812 1011 611 1011 c 0
 399 1011 264 849 242 616 c 1
998 535 m 1
 238 535 l 1
 250 214 418 74 629 74 c 0
 743 74 835 107 931 160 c 1
 943 160 l 1
 978 77 l 1
 881 21 764 -20 614 -20 c 0
 328 -20 118 198 118 537 c 0
 118 901 346 1104 604 1104 c 0
 853 1104 1004 920 1004 615 c 0
 1004 586 998 535 998 535 c 1
EndSplineSet
EndChar

StartChar: eight
Encoding: 56 56 203
Width: 1217
VWidth: 0
GlyphClass: 2
Flags: HW
PickledData: "(dp1
S'org.pippin.gimp.org.kernagic'
p2
(dp3
S'lstem'
p4
I0
sS'rstem'
p5
I0
ssS'com.typemytype.robofont.layerData'
p6
(dp7
sS'org.robofab.postScriptHintData'
p8
(dp9
s."
LayerCount: 2
Fore
SplineSet
608 802 m 1
 815 846 913 958 913 1126 c 0
 913 1284 794 1379 608 1379 c 0
 424 1379 301 1284 301 1126 c 0
 301 958 404 846 608 802 c 1
608 77 m 0
 848 77 957 167 957 367 c 0
 957 549 809 662 608 703 c 1
 409 662 255 558 255 366 c 0
 255 176 376 77 608 77 c 0
608 -20 m 0
 354 -20 150 100 150 353 c 0
 150 567 267 690 483 756 c 1
 312 803 182 934 182 1120 c 0
 182 1342 350 1476 609 1476 c 0
 867 1476 1032 1342 1032 1120 c 0
 1032 932 913 815 732 759 c 1
 939 703 1066 547 1066 354 c 0
 1066 100 865 -20 608 -20 c 0
EndSplineSet
EndChar

StartChar: emdash
Encoding: 8212 8212 206
Width: 2251
VWidth: 0
GlyphClass: 2
Flags: HW
PickledData: "(dp1
S'org.robofab.postScriptHintData'
p2
(dp3
sS'com.typemytype.robofont.layerData'
p4
(dp5
s."
LayerCount: 2
Fore
SplineSet
60 556 m 1
 60 650 l 1
 2191 650 l 1
 2191 556 l 1
 60 556 l 1
EndSplineSet
EndChar

StartChar: endash
Encoding: 8211 8211 207
Width: 1329
VWidth: 0
GlyphClass: 2
Flags: HW
PickledData: "(dp1
S'org.pippin.gimp.org.kernagic'
p2
(dp3
S'lstem'
p4
I0
sS'rstem'
p5
I0
ssS'com.typemytype.robofont.layerData'
p6
(dp7
sS'org.robofab.postScriptHintData'
p8
(dp9
s."
LayerCount: 2
Fore
SplineSet
130 560 m 1
 130 663 l 1
 1199 663 l 1
 1199 560 l 1
 130 560 l 1
EndSplineSet
EndChar

StartChar: eng
Encoding: 331 331 208
Width: 1177
VWidth: 0
GlyphClass: 2
Flags: HW
PickledData: "(dp1
S'org.robofab.postScriptHintData'
p2
(dp3
sS'com.typemytype.robofont.layerData'
p4
(dp5
s."
LayerCount: 2
Fore
SplineSet
180 0 m 1
 180 1082 l 1
 280 1082 l 1
 295 888 l 1
 356 1028 474 1104 661 1104 c 0
 903 1104 1009 958 1009 657 c 2
 1009 -16 l 2
 1009 -288 929 -407 504 -407 c 1
 496 -314 l 1
 848 -314 888 -239 889 -3 c 1
 889 695 l 2
 889 885 835 1012 649 1012 c 0
 378 1012 301 828 301 648 c 2
 301 0 l 1
 180 0 l 1
EndSplineSet
EndChar

StartChar: equal
Encoding: 61 61 210
Width: 1057
VWidth: 0
GlyphClass: 2
Flags: HW
PickledData: "(dp1
S'org.pippin.gimp.org.kernagic'
p2
(dp3
S'lstem'
p4
I0
sS'rstem'
p5
I0
ssS'com.typemytype.robofont.layerData'
p6
(dp7
S'b'
(dp8
S'name'
p9
S'equal'
p10
sS'lib'
p11
(dp12
sS'unicodes'
p13
(tsS'width'
p14
I1050
sS'contours'
p15
(tsS'components'
p16
(tsS'anchors'
p17
(tsssS'org.robofab.postScriptHintData'
p18
(dp19
s."
LayerCount: 2
Fore
SplineSet
132 556 m 1
 929 556 l 1
 929 455 l 1
 132 455 l 1
 132 556 l 1
132 939 m 1
 929 939 l 1
 929 838 l 1
 132 838 l 1
 132 939 l 1
EndSplineSet
EndChar

StartChar: estimated
Encoding: 8494 8494 211
Width: 849
VWidth: 0
GlyphClass: 2
Flags: HW
PickledData: "(dp1
S'org.robofab.postScriptHintData'
p2
(dp3
sS'com.typemytype.robofont.layerData'
p4
(dp5
S'b'
(dp6
S'name'
p7
S'estimated'
p8
sS'lib'
p9
(dp10
sS'unicodes'
p11
(tsS'width'
p12
I1223
sS'contours'
p13
(tsS'components'
p14
(tsS'anchors'
p15
(tsss."
LayerCount: 2
Fore
SplineSet
873 509 m 1
 873 708 754 882 576 882 c 0
 429 882 301 731 288 509 c 1
 873 509 l 1
101 458 m 0
 101 729 297 933 571 933 c 0
 842 933 968 736 968 441 c 1
 286 441 l 1
 287 206 391 43 586 43 c 0
 739 43 834 112 917 201 c 1
 961 158 l 1
 876 57 762 -19 586 -19 c 0
 261 -19 101 186 101 458 c 0
EndSplineSet
EndChar

StartChar: eth
Encoding: 240 240 212
Width: 1308
VWidth: 0
GlyphClass: 2
Flags: HW
PickledData: "(dp1
S'org.pippin.gimp.org.kernagic'
p2
(dp3
S'lstem'
p4
I0
sS'rstem'
p5
I0
ssS'com.typemytype.robofont.layerData'
p6
(dp7
sS'org.robofab.postScriptHintData'
p8
(dp9
s."
LayerCount: 2
Fore
SplineSet
1015 500 m 0
 1015 687 882 882 636 882 c 0
 407 882 272 707 272 484 c 0
 272 279 387 63 643 63 c 0
 892 63 1015 237 1015 500 c 0
283 1612 m 1
 418 1612 l 1
 594 1439 l 1
 896 1554 l 1
 937 1478 l 1
 659 1375 l 1
 888 1136 986 999 1048 871 c 0
 1095 773 1126 628 1126 494 c 0
 1126 213 979 -27 637 -27 c 0
 304 -27 150 229 150 486 c 0
 150 778 355 976 634 976 c 0
 828 976 917 864 970 810 c 1
 917 935 810 1098 564 1335 c 1
 300 1234 l 1
 260 1312 l 1
 508 1407 l 1
 283 1612 l 1
EndSplineSet
EndChar

StartChar: exclam
Encoding: 33 33 213
Width: 594
VWidth: 0
GlyphClass: 2
Flags: HW
PickledData: "(dp1
S'org.pippin.gimp.org.kernagic'
p2
(dp3
S'lstem'
p4
I0
sS'rstem'
p5
I0
ssS'com.typemytype.robofont.layerData'
p6
(dp7
sS'org.robofab.postScriptHintData'
p8
(dp9
s."
LayerCount: 2
Fore
SplineSet
295 -15 m 0
 218 -15 196 39 196 84 c 0
 196 130 218 182 295 182 c 0
 372 182 394 130 394 84 c 0
 394 36 372 -15 295 -15 c 0
268 413 m 1
 215 1390 l 1
 215 1471 l 1
 361 1471 l 1
 361 1390 l 1
 312 413 l 1
 268 413 l 1
EndSplineSet
EndChar

StartChar: f
Encoding: 102 102 215
Width: 738
VWidth: 0
GlyphClass: 2
Flags: HW
PickledData: "(dp1
S'org.pippin.gimp.org.kernagic'
p2
(dp3
S'lstem'
p4
I182
sS'rstem'
p5
I417
ssS'com.typemytype.robofont.layerData'
p6
(dp7
sS'com.fontlab.hintData'
p8
(dp9
S'vhints'
p10
((dp11
S'position'
p12
I269
sS'width'
p13
I166
stp14
sS'hhints'
p15
((dp16
g12
I952
sg13
I89
s(dp17
g12
I1358
sg13
I122
stp18
ssS'org.robofab.postScriptHintData'
p19
(dp20
s."
HStem: 952 89 1358 122
VStem: 269 166
AnchorPoint: "top" 417 1455 basechar 0
LayerCount: 2
Fore
SplineSet
405 1082 m 1
 666 1082 l 1
 666 1011 l 1
 405 1011 l 1
 405 0 l 1
 284 0 l 1
 284 1011 l 1
 74 1011 l 1
 79 1065 l 1
 284 1080 l 1
 284 1167 l 2
 284 1434 379 1514 561 1514 c 2
 564 1514 l 2
 644 1514 700 1499 700 1499 c 1
 693 1418 l 1
 693 1418 627 1426 585 1426 c 0
 460 1426 405 1393 405 1169 c 2
 405 1082 l 1
EndSplineSet
EndChar

StartChar: five
Encoding: 53 53 216
Width: 1217
VWidth: 0
GlyphClass: 2
Flags: HW
PickledData: "(dp1
S'org.pippin.gimp.org.kernagic'
p2
(dp3
S'lstem'
p4
I0
sS'rstem'
p5
I0
ssS'com.typemytype.robofont.layerData'
p6
(dp7
sS'org.robofab.postScriptHintData'
p8
(dp9
s."
LayerCount: 2
Fore
SplineSet
635 817 m 0
 523 817 413 771 349 700 c 1
 239 712 l 1
 288 1456 l 1
 1010 1456 l 1
 997 1359 l 1
 391 1359 l 1
 347 813 l 1
 434 878 517 913 637 913 c 0
 941 913 1087 698 1087 468 c 0
 1087 170 871 -20 576 -20 c 0
 418 -20 278 41 169 131 c 1
 225 205 l 1
 238 205 l 1
 346 117 452 81 572 81 c 0
 796 81 961 229 961 463 c 0
 961 643 871 817 635 817 c 0
EndSplineSet
EndChar

StartChar: florin
Encoding: 402 402 218
Width: 949
VWidth: 0
GlyphClass: 2
Flags: HW
PickledData: "(dp1
S'org.robofab.postScriptHintData'
p2
(dp3
s."
LayerCount: 2
Fore
SplineSet
506 1194 m 2
 542 1382 625 1487 788 1487 c 0
 901 1487 997 1432 997 1254 c 1
 906 1254 l 1
 906 1365 865 1414 790 1414 c 0
 692 1414 650 1332 623 1193 c 1
 572 920 l 1
 810 920 l 1
 797 853 l 1
 557 853 l 1
 401 140 l 2
 347 -110 249 -220 90 -220 c 0
 55 -220 17 -215 -24 -205 c 1
 -10 -143 l 1
 25 -150 55 -153 81 -153 c 0
 256 -153 252 -9 285 141 c 2
 442 853 l 1
 278 853 l 1
 291 920 l 1
 453 920 l 1
 506 1194 l 2
EndSplineSet
EndChar

StartChar: foundryicon
Encoding: 65540 -1 219
Width: 1347
VWidth: 0
GlyphClass: 2
Flags: HW
PickledData: "(dp1
S'org.robofab.postScriptHintData'
p2
(dp3
s."
LayerCount: 2
Fore
SplineSet
280 2 m 1
 423 461 l 1
 34 755 l 1
 519 755 l 1
 669 1215 l 1
 828 755 l 1
 1313 755 l 1
 922 461 l 1
 1066 2 l 1
 669 278 l 1
 280 2 l 1
485 405 m 1
 591 405 l 1
 591 552 l 1
 761 405 l 1
 867 405 l 1
 867 672 l 1
 761 672 l 1
 761 523 l 1
 591 672 l 1
 485 672 l 1
 485 405 l 1
EndSplineSet
EndChar

StartChar: four
Encoding: 52 52 220
Width: 1217
VWidth: 0
GlyphClass: 2
Flags: HW
PickledData: "(dp1
S'org.pippin.gimp.org.kernagic'
p2
(dp3
S'lstem'
p4
I0
sS'rstem'
p5
I0
ssS'com.typemytype.robofont.layerData'
p6
(dp7
sS'org.robofab.postScriptHintData'
p8
(dp9
s."
LayerCount: 2
Fore
SplineSet
255 493 m 1
 811 493 l 1
 811 1286 l 1
 255 493 l 1
813 0 m 1
 813 396 l 1
 153 396 l 1
 133 515 l 1
 823 1456 l 1
 925 1456 l 1
 926 491 l 1
 1104 491 l 1
 1094 396 l 1
 926 396 l 1
 926 0 l 1
 813 0 l 1
EndSplineSet
EndChar

StartChar: fraction
Encoding: 8260 8260 221
Width: 1141
VWidth: 0
GlyphClass: 2
Flags: HW
PickledData: "(dp1
S'org.robofab.postScriptHintData'
p2
(dp3
s."
LayerCount: 2
Fore
SplineSet
174 0 m 1
 856 1528 l 1
 958 1528 l 1
 282 0 l 1
 174 0 l 1
EndSplineSet
EndChar

StartChar: g
Encoding: 103 103 222
Width: 1237
VWidth: 0
GlyphClass: 2
Flags: HW
PickledData: "(dp1
S'org.pippin.gimp.org.kernagic'
p2
(dp3
S'lstem'
p4
I0
sS'rstem'
p5
I0
ssS'com.typemytype.robofont.layerData'
p6
(dp7
sS'com.fontlab.hintData'
p8
(dp9
S'vhints'
p10
((dp11
S'position'
p12
I128
sS'width'
p13
I122
s(dp14
g12
I977
sg13
I125
s(dp15
g12
I977
sg13
I36
stp16
sS'hhints'
p17
((dp18
g12
I-426
sg13
I101
s(dp19
g12
I0
sg13
I93
s(dp20
g12
I982
sg13
I92
stp21
ssS'org.robofab.postScriptHintData'
p22
(dp23
s."
HStem: -426 101 0 93 982 92
VStem: 128 122 977 125 977 36
AnchorPoint: "top" 612 1082 basechar 0
LayerCount: 2
Fore
SplineSet
596 84 m 0
 812 84 904 209 947 284 c 1
 947 794 l 1
 899 887 808 1012 596 1012 c 0
 337 1012 241 768 241 540 c 0
 241 321 338 84 596 84 c 0
567 -461 m 0
 441 -461 322 -434 265 -413 c 1
 271 -317 l 1
 286 -317 l 1
 346 -342 462 -365 560 -365 c 0
 836 -365 948 -257 948 47 c 2
 948 161 l 1
 879 62 759 -8 597 -8 c 2
 595 -8 l 2
 256 -8 118 268 118 539 c 0
 118 822 250 1104 606 1104 c 0
 773 1104 886 1029 950 930 c 1
 959 1082 l 1
 1065 1082 l 1
 1065 71 l 2
 1065 -267 953 -461 567 -461 c 0
EndSplineSet
EndChar

StartChar: germandbls
Encoding: 223 223 228
Width: 1221
VWidth: 0
GlyphClass: 2
Flags: HW
PickledData: "(dp1
S'org.pippin.gimp.org.kernagic'
p2
(dp3
S'lstem'
p4
I0
sS'rstem'
p5
I0
ssS'com.typemytype.robofont.layerData'
p6
(dp7
S'b'
(dp8
S'name'
p9
S'germandbls'
p10
sS'lib'
p11
(dp12
sS'unicodes'
p13
(tsS'width'
p14
I1278
sS'contours'
p15
(tsS'components'
p16
(tsS'anchors'
p17
(tsssS'org.robofab.postScriptHintData'
p18
(dp19
s."
LayerCount: 2
Fore
SplineSet
815 -19 m 0
 675 -19 537 25 476 61 c 1
 513 158 l 1
 575 125 685 82 811 82 c 0
 959 82 1005 188 1005 272 c 0
 1005 498 616 568 616 768 c 0
 616 934 825 998 825 1221 c 0
 825 1339 758 1425 607 1425 c 0
 408 1425 312 1332 312 1059 c 2
 312 0 l 1
 190 0 l 1
 190 1050 l 2
 190 1342 307 1520 607 1520 c 0
 830 1520 948 1385 948 1216 c 0
 948 1018 723 877 723 777 c 0
 723 652 1120 570 1120 281 c 0
 1120 102 1008 -19 815 -19 c 0
EndSplineSet
EndChar

StartChar: grave
Encoding: 96 96 229
Width: 843
VWidth: 0
GlyphClass: 4
Flags: HW
PickledData: "(dp1
S'org.robofab.postScriptHintData'
p2
(dp3
sS'com.typemytype.robofont.layerData'
p4
(dp5
s."
AnchorPoint: "top" 425 1057 mark 0
LayerCount: 2
Fore
SplineSet
394 1210 m 1
 105 1569 l 1
 260 1569 l 1
 468 1210 l 1
 394 1210 l 1
EndSplineSet
EndChar

StartChar: greater
Encoding: 62 62 230
Width: 1189
VWidth: 0
GlyphClass: 2
Flags: HW
PickledData: "(dp1
S'org.pippin.gimp.org.kernagic'
p2
(dp3
S'lstem'
p4
I0
sS'rstem'
p5
I0
ssS'com.typemytype.robofont.layerData'
p6
(dp7
S'b'
(dp8
S'name'
p9
S'greater'
p10
sS'lib'
p11
(dp12
sS'unicodes'
p13
(tsS'width'
p14
I1107
sS'contours'
p15
(tsS'components'
p16
(tsS'anchors'
p17
(tsssS'org.robofab.postScriptHintData'
p18
(dp19
s."
LayerCount: 2
Fore
SplineSet
129 1023 m 1
 129 1132 l 1
 1062 638 l 1
 1062 566 l 1
 126 124 l 1
 126 231 l 1
 928 607 l 1
 129 1023 l 1
EndSplineSet
EndChar

StartChar: greaterequal
Encoding: 8805 8805 231
Width: 1226
VWidth: 0
GlyphClass: 2
Flags: HW
PickledData: "(dp1
S'org.pippin.gimp.org.kernagic'
p2
(dp3
S'lstem'
p4
I0
sS'rstem'
p5
I0
ssS'com.typemytype.robofont.layerData'
p6
(dp7
S'b'
(dp8
S'name'
p9
S'greaterequal'
p10
sS'lib'
p11
(dp12
sS'unicodes'
p13
(tsS'width'
p14
I1192
sS'contours'
p15
(tsS'components'
p16
(tsS'anchors'
p17
(tsssS'org.robofab.postScriptHintData'
p18
(dp19
s."
LayerCount: 2
Fore
SplineSet
127 11 m 1
 127 115 l 1
 1077 117 l 1
 1077 11 l 1
 127 11 l 1
168 243 m 1
 168 347 l 1
 964 758 l 1
 173 1200 l 1
 173 1307 l 1
 1051 788 l 1
 1051 728 l 1
 168 243 l 1
EndSplineSet
EndChar

StartChar: guillemotleft
Encoding: 171 171 232
Width: 1005
VWidth: 0
GlyphClass: 2
Flags: HW
PickledData: "(dp1
S'org.pippin.gimp.org.kernagic'
p2
(dp3
S'lstem'
p4
I0
sS'rstem'
p5
I0
ssS'com.typemytype.robofont.layerData'
p6
(dp7
S'b'
(dp8
S'name'
p9
S'guillemotleft'
p10
sS'lib'
p11
(dp12
sS'unicodes'
p13
(tsS'width'
p14
I994
sS'contours'
p15
(tsS'components'
p16
(tsS'anchors'
p17
(tsssS'org.robofab.postScriptHintData'
p18
(dp19
s."
LayerCount: 2
Fore
SplineSet
724 157 m 1
 449 542 l 1
 727 928 l 1
 825 920 l 1
 553 545 l 1
 818 165 l 1
 724 157 l 1
396 157 m 1
 121 542 l 1
 400 928 l 1
 498 920 l 1
 226 545 l 1
 490 165 l 1
 396 157 l 1
EndSplineSet
EndChar

StartChar: guillemotright
Encoding: 187 187 233
Width: 976
VWidth: 0
GlyphClass: 2
Flags: HW
PickledData: "(dp1
S'org.pippin.gimp.org.kernagic'
p2
(dp3
S'lstem'
p4
I0
sS'rstem'
p5
I0
ssS'com.typemytype.robofont.layerData'
p6
(dp7
sS'org.robofab.postScriptHintData'
p8
(dp9
s."
LayerCount: 2
Fore
SplineSet
568 157 m 1
 471 165 l 1
 740 541 l 1
 472 921 l 1
 568 928 l 1
 844 542 l 1
 568 157 l 1
239 157 m 1
 142 165 l 1
 412 541 l 1
 144 921 l 1
 240 928 l 1
 516 542 l 1
 239 157 l 1
EndSplineSet
EndChar

StartChar: guilsinglleft
Encoding: 8249 8249 234
Width: 638
VWidth: 0
GlyphClass: 2
Flags: HW
PickledData: "(dp1
S'org.robofab.postScriptHintData'
p2
(dp3
s."
LayerCount: 2
Fore
SplineSet
419 142 m 1
 114 560 l 1
 423 985 l 1
 532 985 l 1
 228 560 l 1
 526 142 l 1
 419 142 l 1
EndSplineSet
EndChar

StartChar: guilsinglright
Encoding: 8250 8250 235
Width: 712
VWidth: 0
GlyphClass: 2
Flags: HW
PickledData: "(dp1
S'org.pippin.gimp.org.kernagic'
p2
(dp3
S'lstem'
p4
I0
sS'rstem'
p5
I0
ssS'com.typemytype.robofont.layerData'
p6
(dp7
S'b'
(dp8
S'name'
p9
S'guilsinglright'
p10
sS'lib'
p11
(dp12
sS'unicodes'
p13
(tsS'width'
p14
I766
sS'contours'
p15
(tsS'components'
p16
(tsS'anchors'
p17
(tsssS'org.robofab.postScriptHintData'
p18
(dp19
s."
LayerCount: 2
Fore
SplineSet
160 142 m 1
 461 576 l 1
 160 1005 l 1
 269 1005 l 1
 579 576 l 1
 268 142 l 1
 160 142 l 1
EndSplineSet
EndChar

StartChar: h
Encoding: 104 104 236
Width: 1190
VWidth: 0
GlyphClass: 2
Flags: HW
PickledData: "(dp1
S'org.pippin.gimp.org.kernagic'
p2
(dp3
S'lstem'
p4
I0
sS'rstem'
p5
I0
ssS'com.typemytype.robofont.layerData'
p6
(dp7
sS'com.fontlab.hintData'
p8
(dp9
S'vhints'
p10
((dp11
S'position'
p12
I193
sS'width'
p13
I122
s(dp14
g12
I910
sg13
I122
stp15
sS'hhints'
p16
((dp17
g12
I982
sg13
I92
stp18
ssS'org.robofab.postScriptHintData'
p19
(dp20
s."
HStem: 982 92
VStem: 193 122 910 122
AnchorPoint: "mid" 271 1265 basechar 0
AnchorPoint: "top" 614 1320 basechar 0
LayerCount: 2
Fore
SplineSet
181 0 m 1
 181 1540 l 1
 302 1560 l 1
 302 1132 l 1
 297 892 l 1
 373 1043 509 1104 673 1104 c 0
 908 1104 1023 938 1023 672 c 2
 1023 0 l 1
 902 0 l 1
 902 674 l 2
 902 896 836 1012 656 1012 c 0
 378 1012 302 803 302 631 c 2
 302 0 l 1
 181 0 l 1
EndSplineSet
EndChar

StartChar: hungarumlaut
Encoding: 733 733 239
Width: 715
VWidth: 0
GlyphClass: 4
Flags: HW
PickledData: "(dp1
S'org.robofab.postScriptHintData'
p2
(dp3
sS'com.typemytype.robofont.layerData'
p4
(dp5
s."
AnchorPoint: "top" 314 1057 mark 0
LayerCount: 2
Fore
SplineSet
398 1241 m 1
 549 1560 l 1
 668 1560 l 1
 474 1241 l 1
 398 1241 l 1
177 1241 m 1
 294 1560 l 1
 400 1560 l 1
 252 1241 l 1
 177 1241 l 1
EndSplineSet
EndChar

StartChar: hyphen
Encoding: 45 45 240
Width: 825
VWidth: 0
GlyphClass: 4
Flags: HW
PickledData: "(dp1
S'org.pippin.gimp.org.kernagic'
p2
(dp3
S'lstem'
p4
I0
sS'rstem'
p5
I0
ssS'com.typemytype.robofont.layerData'
p6
(dp7
sS'org.robofab.postScriptHintData'
p8
(dp9
s."
AnchorPoint: "mid" 384 587 mark 0
LayerCount: 2
Fore
SplineSet
154 534 m 1
 154 630 l 1
 650 630 l 1
 650 534 l 1
 154 534 l 1
EndSplineSet
EndChar

StartChar: infinity
Encoding: 8734 8734 252
Width: 1700
VWidth: 0
GlyphClass: 2
Flags: HW
PickledData: "(dp1
S'org.pippin.gimp.org.kernagic'
p2
(dp3
S'lstem'
p4
I0
sS'rstem'
p5
I0
ssS'com.typemytype.robofont.layerData'
p6
(dp7
S'b'
(dp8
S'name'
p9
S'infinity'
p10
sS'lib'
p11
(dp12
sS'unicodes'
p13
(tsS'width'
p14
I1647
sS'contours'
p15
(tsS'components'
p16
(tsS'anchors'
p17
(tsssS'org.robofab.postScriptHintData'
p18
(dp19
s."
LayerCount: 2
Fore
SplineSet
1499 651 m 0
 1499 793 1398 897 1251 897 c 0
 1114 897 1008 801 898 634 c 1
 1038 438 1138 352 1255 352 c 0
 1408 352 1499 476 1499 651 c 0
802 618 m 1
 689 802 580 897 439 897 c 0
 285 897 185 782 185 626 c 0
 185 471 290 352 446 352 c 0
 579 352 688 445 802 618 c 1
848 707 m 1
 985 897 1104 993 1255 993 c 0
 1467 993 1599 844 1599 629 c 0
 1599 409 1455 260 1253 260 c 0
 1115 260 999 344 853 541 c 1
 712 354 592 260 444 260 c 0
 230 260 95 424 95 646 c 0
 95 848 239 993 440 993 c 0
 585 993 704 899 848 707 c 1
EndSplineSet
EndChar

StartChar: integral
Encoding: 8747 8747 253
Width: 829
VWidth: 0
GlyphClass: 2
Flags: HW
PickledData: "(dp1
S'org.pippin.gimp.org.kernagic'
p2
(dp3
S'lstem'
p4
I0
sS'rstem'
p5
I0
ssS'com.typemytype.robofont.layerData'
p6
(dp7
S'b'
(dp8
S'name'
p9
S'integral'
p10
sS'lib'
p11
(dp12
sS'unicodes'
p13
(tsS'width'
p14
I994
sS'contours'
p15
(tsS'components'
p16
(tsS'anchors'
p17
(tsssS'org.robofab.postScriptHintData'
p18
(dp19
s."
LayerCount: 2
Fore
SplineSet
403 1143 m 2
 403 1380 459 1489 618 1489 c 0
 652 1489 691 1484 735 1474 c 1
 735 1396 l 1
 699 1406 669 1411 642 1411 c 0
 525 1411 501 1333 501 1139 c 2
 501 -37 l 2
 501 -280 437 -411 256 -411 c 0
 223 -411 186 -407 145 -398 c 1
 145 -319 l 1
 181 -328 214 -332 241 -332 c 0
 378 -332 403 -221 403 -45 c 2
 403 1143 l 2
EndSplineSet
EndChar

StartChar: k
Encoding: 107 107 258
Width: 1065
VWidth: 0
GlyphClass: 2
Flags: HW
PickledData: "(dp1
S'org.pippin.gimp.org.kernagic'
p2
(dp3
S'lstem'
p4
I0
sS'rstem'
p5
I671
ssS'com.typemytype.robofont.layerData'
p6
(dp7
sS'org.robofab.postScriptHintData'
p8
(dp9
s."
AnchorPoint: "bot" 586 0 basechar 0
LayerCount: 2
Fore
SplineSet
182 0 m 1
 182 1540 l 1
 303 1560 l 1
 303 716 l 1
 297 506 l 1
 883 1082 l 1
 1017 1082 l 1
 1017 1069 l 1
 516 578 l 1
 1033 12 l 1
 1033 0 l 1
 899 0 l 1
 438 515 l 1
 303 396 l 1
 303 0 l 1
 182 0 l 1
EndSplineSet
EndChar

StartChar: kgreenlandic
Encoding: 312 312 260
Width: 1065
VWidth: 0
GlyphClass: 2
Flags: HW
PickledData: "(dp1
S'org.robofab.postScriptHintData'
p2
(dp3
s."
LayerCount: 2
Fore
SplineSet
175 0 m 1
 175 1082 l 1
 297 1082 l 1
 297 722 l 1
 291 513 l 1
 877 1082 l 1
 1005 1082 l 1
 1005 1064 l 1
 510 584 l 1
 1022 17 l 1
 1022 0 l 1
 892 0 l 1
 432 521 l 1
 297 402 l 1
 297 0 l 1
 175 0 l 1
EndSplineSet
EndChar

StartChar: l
Encoding: 108 108 261
Width: 600
VWidth: 0
GlyphClass: 2
Flags: HW
PickledData: "(dp1
S'org.pippin.gimp.org.kernagic'
p2
(dp3
S'lstem'
p4
I0
sS'rstem'
p5
I238
ssS'com.typemytype.robofont.layerData'
p6
(dp7
sS'com.fontlab.hintData'
p8
(dp9
S'vhints'
p10
((dp11
S'position'
p12
I193
sS'width'
p13
I122
stp14
sS'hhints'
p15
((dp16
g12
I-11
sg13
I87
stp17
ssS'org.robofab.postScriptHintData'
p18
(dp19
s."
HStem: -11 87
VStem: 193 122
AnchorPoint: "mid" 260 810 basechar 0
AnchorPoint: "top" 344 1472 basechar 0
LayerCount: 2
Fore
SplineSet
441 -9 m 0
 309 -9 184 32 184 267 c 2
 184 1540 l 1
 305 1560 l 1
 305 269 l 2
 305 131 334 83 462 80 c 0
 495 80 548 80 555 82 c 1
 549 -6 l 1
 534 -7 478 -9 441 -9 c 0
EndSplineSet
EndChar

StartChar: less
Encoding: 60 60 266
Width: 1180
VWidth: 0
GlyphClass: 2
Flags: HW
PickledData: "(dp1
S'org.pippin.gimp.org.kernagic'
p2
(dp3
S'lstem'
p4
I0
sS'rstem'
p5
I0
ssS'com.typemytype.robofont.layerData'
p6
(dp7
S'b'
(dp8
S'name'
p9
S'less'
p10
sS'lib'
p11
(dp12
sS'unicodes'
p13
(tsS'width'
p14
I1107
sS'contours'
p15
(tsS'components'
p16
(tsS'anchors'
p17
(tsssS'org.robofab.postScriptHintData'
p18
(dp19
s."
LayerCount: 2
Fore
SplineSet
1035 117 m 1
 102 568 l 1
 102 638 l 1
 1038 1124 l 1
 1038 1014 l 1
 225 607 l 1
 1037 223 l 1
 1035 117 l 1
EndSplineSet
EndChar

StartChar: lessequal
Encoding: 8804 8804 267
Width: 1229
VWidth: 0
GlyphClass: 2
Flags: HW
PickledData: "(dp1
S'org.robofab.postScriptHintData'
p2
(dp3
sS'com.typemytype.robofont.layerData'
p4
(dp5
s."
LayerCount: 2
Fore
SplineSet
125 3 m 1
 125 103 l 1
 1080 103 l 1
 1080 3 l 1
 125 3 l 1
1040 232 m 1
 166 721 l 1
 166 784 l 1
 1039 1304 l 1
 1039 1195 l 1
 308 753 l 1
 1040 335 l 1
 1040 232 l 1
EndSplineSet
EndChar

StartChar: logicalnot
Encoding: 172 172 268
Width: 1232
VWidth: 0
GlyphClass: 2
Flags: HW
PickledData: "(dp1
S'org.pippin.gimp.org.kernagic'
p2
(dp3
S'lstem'
p4
I0
sS'rstem'
p5
I0
ssS'com.typemytype.robofont.layerData'
p6
(dp7
sS'org.robofab.postScriptHintData'
p8
(dp9
s."
LayerCount: 2
Fore
SplineSet
109 788 m 1
 1061 788 l 1
 1061 259 l 1
 974 259 l 1
 974 695 l 1
 109 695 l 1
 109 788 l 1
EndSplineSet
EndChar

StartChar: lozenge
Encoding: 9674 9674 269
Width: 1180
VWidth: 0
GlyphClass: 2
Flags: HW
PickledData: "(dp1
S'org.pippin.gimp.org.kernagic'
p2
(dp3
S'lstem'
p4
I0
sS'rstem'
p5
I0
ssS'com.typemytype.robofont.layerData'
p6
(dp7
S'b'
(dp8
S'name'
p9
S'lozenge'
p10
sS'lib'
p11
(dp12
sS'unicodes'
p13
(tsS'width'
p14
I1164
sS'contours'
p15
(tsS'components'
p16
(tsS'anchors'
p17
(tsssS'org.robofab.postScriptHintData'
p18
(dp19
s."
LayerCount: 2
Fore
SplineSet
933 775 m 1
 584 1477 l 1
 221 777 l 1
 573 69 l 1
 933 775 l 1
536 1597 m 1
 625 1597 l 1
 1043 778 l 1
 617 -43 l 1
 530 -43 l 1
 110 775 l 1
 536 1597 l 1
EndSplineSet
EndChar

StartChar: m
Encoding: 109 109 271
Width: 1796
VWidth: 0
GlyphClass: 2
Flags: HW
PickledData: "(dp1
S'org.pippin.gimp.org.kernagic'
p2
(dp3
S'lstem'
p4
I0
sS'rstem'
p5
I0
ssS'com.typemytype.robofont.layerData'
p6
(dp7
sS'com.fontlab.hintData'
p8
(dp9
S'vhints'
p10
((dp11
S'position'
p12
I193
sS'width'
p13
I122
s(dp14
g12
I193
sg13
I98
s(dp15
g12
I845
sg13
I122
s(dp16
g12
I1483
sg13
I122
stp17
sS'hhints'
p18
((dp19
g12
I982
sg13
I92
stp20
ssS'org.robofab.postScriptHintData'
p21
(dp22
s."
HStem: 982 92
VStem: 193 122 193 98 845 122 1483 122
AnchorPoint: "top" 939 1082 basechar 0
LayerCount: 2
Fore
SplineSet
965 634 m 2
 965 0 l 1
 845 0 l 1
 845 671 l 2
 845 890 799 1012 626 1012 c 0
 400 1012 312 837 301 659 c 1
 301 0 l 1
 181 0 l 1
 181 1082 l 1
 281 1082 l 1
 295 887 l 1
 368 1037 488 1104 637 1104 c 0
 803 1104 902 1008 940 855 c 1
 1004 1029 1141 1104 1303 1104 c 0
 1530 1104 1629 966 1629 676 c 2
 1629 0 l 1
 1509 0 l 1
 1509 686 l 2
 1509 865 1476 1012 1292 1012 c 0
 1077 1012 965 840 965 634 c 2
EndSplineSet
EndChar

StartChar: macron
Encoding: 175 175 272
Width: 1205
VWidth: 0
GlyphClass: 4
Flags: HW
PickledData: "(dp1
S'org.robofab.postScriptHintData'
p2
(dp3
sS'com.typemytype.robofont.layerData'
p4
(dp5
s."
AnchorPoint: "mid" 581 1397 mark 0
AnchorPoint: "top" 602 1057 mark 0
LayerCount: 2
Fore
SplineSet
327 1362 m 1
 327 1432 l 1
 835 1432 l 1
 835 1362 l 1
 327 1362 l 1
EndSplineSet
EndChar

StartChar: minus
Encoding: 8722 8722 274
Width: 1115
VWidth: 0
GlyphClass: 2
Flags: HW
PickledData: "(dp1
S'org.pippin.gimp.org.kernagic'
p2
(dp3
S'lstem'
p4
I0
sS'rstem'
p5
I0
ssS'com.typemytype.robofont.layerData'
p6
(dp7
sS'org.robofab.postScriptHintData'
p8
(dp9
s."
LayerCount: 2
Fore
SplineSet
80 674 m 1
 1020 674 l 1
 1020 563 l 1
 80 563 l 1
 80 674 l 1
EndSplineSet
EndChar

StartChar: multiply
Encoding: 215 215 275
Width: 780
VWidth: 0
GlyphClass: 2
Flags: HW
PickledData: "(dp1
S'org.pippin.gimp.org.kernagic'
p2
(dp3
S'lstem'
p4
I0
sS'rstem'
p5
I0
ssS'com.typemytype.robofont.layerData'
p6
(dp7
sS'org.robofab.postScriptHintData'
p8
(dp9
s."
LayerCount: 2
Fore
SplineSet
65 905 m 1
 127 970 l 1
 391 679 l 1
 653 964 l 1
 719 899 l 1
 451 614 l 1
 452 613 723 314 723 314 c 1
 666 251 l 1
 391 549 l 1
 113 251 l 1
 51 310 l 1
 332 614 l 1
 65 905 l 1
EndSplineSet
EndChar

StartChar: n
Encoding: 110 110 276
Width: 1176
VWidth: 0
GlyphClass: 2
Flags: HW
PickledData: "(dp1
S'org.pippin.gimp.org.kernagic'
p2
(dp3
S'lstem'
p4
I0
sS'rstem'
p5
I0
ssS'com.typemytype.robofont.layerData'
p6
(dp7
sS'com.fontlab.hintData'
p8
(dp9
S'vhints'
p10
((dp11
S'position'
p12
I193
sS'width'
p13
I122
s(dp14
g12
I903
sg13
I122
stp15
sS'hhints'
p16
((dp17
g12
I0
sg13
I22
s(dp18
g12
I982
sg13
I92
s(dp19
g12
I1034
sg13
I21
stp20
ssS'org.robofab.postScriptHintData'
p21
(dp22
s."
HStem: 0 22 982 92 1034 21
VStem: 193 122 903 122
AnchorPoint: "bot" 591 0 basechar 0
AnchorPoint: "top" 662 1082 basechar 0
LayerCount: 2
Fore
SplineSet
180 0 m 1
 180 1082 l 1
 280 1082 l 1
 295 888 l 1
 356 1028 474 1104 661 1104 c 0
 903 1104 1009 958 1009 657 c 2
 1009 0 l 1
 889 0 l 1
 889 695 l 2
 889 885 835 1012 649 1012 c 0
 378 1012 301 828 301 648 c 2
 301 0 l 1
 180 0 l 1
EndSplineSet
EndChar

StartChar: nine
Encoding: 57 57 281
Width: 1217
VWidth: 0
GlyphClass: 2
Flags: HW
PickledData: "(dp1
S'org.pippin.gimp.org.kernagic'
p2
(dp3
S'lstem'
p4
I0
sS'rstem'
p5
I0
ssS'com.typemytype.robofont.layerData'
p6
(dp7
sS'org.robofab.postScriptHintData'
p8
(dp9
s."
LayerCount: 2
Fore
SplineSet
976 1033 m 0
 976 1211 861 1379 637 1379 c 0
 416 1379 295 1209 295 1028 c 0
 295 839 415 695 624 695 c 0
 739 695 976 753 976 1033 c 0
359 0 m 1
 359 13 l 1
 527 231 696 448 862 668 c 1
 788 620 692 594 601 594 c 0
 382 594 182 767 182 1027 c 0
 182 1270 352 1476 637 1476 c 0
 939 1476 1085 1245 1085 1022 c 0
 1085 795 985 651 829 447 c 2
 488 0 l 1
 359 0 l 1
EndSplineSet
EndChar

StartChar: notequal
Encoding: 8800 8800 282
Width: 1130
VWidth: 0
GlyphClass: 2
Flags: HW
PickledData: "(dp1
S'org.pippin.gimp.org.kernagic'
p2
(dp3
S'lstem'
p4
I0
sS'rstem'
p5
I0
ssS'com.typemytype.robofont.layerData'
p6
(dp7
S'b'
(dp8
S'name'
p9
S'notequal'
p10
sS'lib'
p11
(dp12
sS'unicodes'
p13
(tsS'width'
p14
I1079
sS'contours'
p15
(tsS'components'
p16
(tsS'anchors'
p17
(tsssS'org.robofab.postScriptHintData'
p18
(dp19
s."
LayerCount: 2
Fore
SplineSet
288 51 m 1
 209 58 l 1
 358 368 l 1
 102 368 l 1
 97 457 l 1
 405 457 l 1
 592 813 l 1
 102 813 l 1
 97 900 l 1
 631 900 l 1
 793 1209 l 1
 871 1204 l 1
 721 900 l 1
 993 900 l 1
 999 814 l 1
 684 814 l 1
 491 457 l 1
 997 457 l 1
 999 368 l 1
 452 368 l 1
 288 51 l 1
EndSplineSet
EndChar

StartChar: numbersign
Encoding: 35 35 284
Width: 1171
VWidth: 0
GlyphClass: 2
Flags: HW
PickledData: "(dp1
S'org.pippin.gimp.org.kernagic'
p2
(dp3
S'lstem'
p4
I0
sS'rstem'
p5
I0
ssS'com.typemytype.robofont.layerData'
p6
(dp7
sS'org.robofab.postScriptHintData'
p8
(dp9
s."
LayerCount: 2
Fore
SplineSet
402 514 m 1
 701 514 l 1
 794 975 l 1
 496 975 l 1
 402 514 l 1
216 -8 m 1
 306 438 l 1
 136 438 l 1
 147 514 l 1
 321 514 l 1
 414 975 l 1
 235 975 l 1
 245 1050 l 1
 430 1050 l 1
 522 1497 l 1
 604 1497 l 1
 512 1050 l 1
 810 1050 l 1
 904 1497 l 1
 983 1497 l 1
 891 1050 l 1
 1077 1050 l 1
 1063 975 l 1
 876 975 l 1
 782 514 l 1
 985 514 l 1
 972 438 l 1
 767 438 l 1
 677 -8 l 1
 597 -8 l 1
 685 438 l 1
 387 438 l 1
 296 -8 l 1
 216 -8 l 1
EndSplineSet
EndChar

StartChar: o
Encoding: 111 111 285
Width: 1199
VWidth: 0
GlyphClass: 2
Flags: HW
PickledData: "(dp1
S'org.pippin.gimp.org.kernagic'
p2
(dp3
S'lstem'
p4
I0
sS'rstem'
p5
I0
ssS'com.typemytype.robofont.guides'
p6
((dp7
S'y'
I1093
sS'x'
I582
sS'magnetic'
p8
I5
sS'angle'
p9
F90
sS'isGlobal'
p10
I00
stp11
sS'com.typemytype.robofont.layerData'
p12
(dp13
sS'com.fontlab.hintData'
p14
(dp15
S'vhints'
p16
((dp17
S'position'
p18
I128
sS'width'
p19
I120
s(dp20
g18
I982
sg19
I120
stp21
sS'hhints'
p22
((dp23
g18
I-19
sg19
I92
s(dp24
g18
I982
sg19
I92
stp25
ssS'org.robofab.postScriptHintData'
p26
(dp27
s."
HStem: -19 92 982 92
VStem: 128 120 982 120
AnchorPoint: "ogonek" 679 0 basechar 0
AnchorPoint: "top" 602 1082 basechar 0
LayerCount: 2
Fore
SplineSet
600 -20 m 0
 302 -20 118 212 118 541 c 0
 118 883 301 1104 600 1104 c 0
 899 1104 1081 883 1081 541 c 0
 1081 212 897 -20 600 -20 c 0
600 71 m 0
 828 71 958 271 958 539 c 0
 958 821 828 1012 600 1012 c 0
 372 1012 242 822 242 540 c 0
 242 271 371 71 600 71 c 0
EndSplineSet
EndChar

StartChar: oe
Encoding: 339 339 290
Width: 1963
VWidth: 0
GlyphClass: 2
Flags: HW
PickledData: "(dp1
S'org.pippin.gimp.org.kernagic'
p2
(dp3
S'lstem'
p4
I0
sS'rstem'
p5
I0
ssS'com.typemytype.robofont.layerData'
p6
(dp7
S'b'
(dp8
S'name'
p9
S'oe'
p10
sS'lib'
p11
(dp12
sS'unicodes'
p13
(tsS'width'
p14
F1915.3599999999999
sS'contours'
p15
(tsS'components'
p16
(tsS'anchors'
p17
(tsssS'org.robofab.postScriptHintData'
p18
(dp19
s."
LayerCount: 2
Fore
SplineSet
1086 604 m 1
 1748 604 l 1
 1743 854 1655 991 1454 991 c 0
 1243 991 1108 831 1086 604 c 1
601 72 m 0
 855 72 960 281 960 527 c 0
 960 784 853 993 601 993 c 0
 354 993 242 785 242 528 c 0
 242 280 354 72 601 72 c 0
1779 164 m 1
 1791 164 l 1
 1822 85 l 1
 1725 28 1625 -19 1456 -19 c 0
 1261 -19 1084 90 1023 293 c 1
 964 99 796 -19 601 -19 c 0
 294 -19 120 213 120 529 c 0
 120 853 294 1084 601 1084 c 0
 813 1084 976 965 1027 767 c 1
 1090 972 1272 1084 1446 1084 c 2
 1448 1084 l 2
 1700 1084 1848 902 1848 606 c 2
 1848 594 l 2
 1848 563 1842 523 1842 523 c 1
 1082 523 l 1
 1082 198 1265 75 1465 75 c 0
 1591 75 1663 105 1779 164 c 1
EndSplineSet
EndChar

StartChar: ogonek
Encoding: 731 731 291
Width: 677
VWidth: 0
GlyphClass: 4
Flags: HW
PickledData: "(dp1
S'org.pippin.gimp.org.kernagic'
p2
(dp3
S'lstem'
p4
I0
sS'rstem'
p5
I0
ssS'com.typemytype.robofont.layerData'
p6
(dp7
sS'org.robofab.postScriptHintData'
p8
(dp9
s."
AnchorPoint: "ogonek" 422 0 mark 0
LayerCount: 2
Fore
SplineSet
362 -400 m 0
 267 -400 196 -356 196 -265 c 0
 196 -168 275 -58 393 2 c 1
 459 2 l 1
 382 -50 297 -149 297 -234 c 0
 297 -298 341 -324 392 -324 c 0
 425 -324 462 -314 486 -303 c 1
 486 -374 l 1
 455 -389 406 -400 362 -400 c 0
EndSplineSet
EndChar

StartChar: one
Encoding: 49 49 295
Width: 1217
VWidth: 0
GlyphClass: 2
Flags: HW
PickledData: "(dp1
S'org.pippin.gimp.org.kernagic'
p2
(dp3
S'lstem'
p4
I0
sS'rstem'
p5
I0
ssS'com.typemytype.robofont.layerData'
p6
(dp7
sS'org.robofab.postScriptHintData'
p8
(dp9
s."
LayerCount: 2
Fore
SplineSet
223 0 m 1
 223 92 l 1
 607 92 l 1
 607 1346 l 1
 502 1288 318 1235 255 1228 c 1
 255 1327 l 1
 321 1338 536 1404 609 1456 c 1
 729 1456 l 1
 729 92 l 1
 1071 92 l 1
 1071 0 l 1
 223 0 l 1
EndSplineSet
EndChar

StartChar: onehalf
Encoding: 189 189 296
Width: 1711
VWidth: 0
GlyphClass: 2
Flags: HW
PickledData: "(dp1
S'org.pippin.gimp.org.kernagic'
p2
(dp3
S'lstem'
p4
I0
sS'rstem'
p5
I0
ssS'com.typemytype.robofont.layerData'
p6
(dp7
sS'org.robofab.postScriptHintData'
p8
(dp9
s."
LayerCount: 2
Fore
SplineSet
375 0 m 1
 1260 1506 l 1
 1359 1506 l 1
 474 0 l 1
 375 0 l 1
122 648 m 1
 122 726 l 1
 281 726 l 1
 281 1392 l 1
 244 1367 161 1334 114 1316 c 1
 114 1398 l 1
 163 1415 255 1454 300 1498 c 1
 381 1498 l 1
 381 726 l 1
 525 726 l 1
 525 648 l 1
 122 648 l 1
1080 0 m 1
 1080 81 l 1
 1157 155 1310 306 1351 347 c 0
 1462 459 1500 520 1500 601 c 0
 1500 701 1431 761 1331 761 c 0
 1240 761 1168 721 1108 629 c 1
 1044 682 l 1
 1099 788 1206 851 1332 851 c 0
 1483 851 1600 760 1600 604 c 0
 1600 482 1538 406 1416 289 c 0
 1379 252 1260 142 1204 86 c 1
 1589 86 l 1
 1589 0 l 1
 1080 0 l 1
EndSplineSet
EndChar

StartChar: onequarter
Encoding: 188 188 297
Width: 1678
VWidth: 0
GlyphClass: 2
Flags: HW
PickledData: "(dp1
S'org.pippin.gimp.org.kernagic'
p2
(dp3
S'lstem'
p4
I0
sS'rstem'
p5
I0
ssS'com.typemytype.robofont.layerData'
p6
(dp7
sS'org.robofab.postScriptHintData'
p8
(dp9
s."
LayerCount: 2
Fore
SplineSet
1086 283 m 1
 1381 283 l 1
 1381 719 l 1
 1086 283 l 1
389 0 m 1
 1274 1506 l 1
 1373 1506 l 1
 487 0 l 1
 389 0 l 1
1381 -1 m 1
 1381 208 l 1
 982 208 l 1
 982 272 l 1
 1371 839 l 1
 1477 839 l 1
 1477 283 l 1
 1593 283 l 1
 1600 208 l 1
 1475 208 l 1
 1475 -1 l 1
 1381 -1 l 1
122 648 m 1
 122 726 l 1
 281 726 l 1
 281 1392 l 1
 244 1367 161 1334 114 1316 c 1
 114 1398 l 1
 163 1415 255 1454 300 1498 c 1
 381 1498 l 1
 381 726 l 1
 525 726 l 1
 525 648 l 1
 122 648 l 1
EndSplineSet
EndChar

StartChar: ordmasculine
Encoding: 186 186 299
Width: 892
VWidth: 0
GlyphClass: 2
Flags: HW
PickledData: "(dp1
S'org.pippin.gimp.org.kernagic'
p2
(dp3
S'lstem'
p4
I0
sS'rstem'
p5
I0
ssS'com.typemytype.robofont.layerData'
p6
(dp7
S'b'
(dp8
S'name'
p9
S'ordmasculine'
p10
sS'lib'
p11
(dp12
sS'unicodes'
p13
(tsS'width'
p14
I965
sS'contours'
p15
(tsS'components'
p16
(tsS'anchors'
p17
(tsssS'org.robofab.postScriptHintData'
p18
(dp19
s."
LayerCount: 2
Fore
SplineSet
672 1139 m 0
 672 1307 595 1435 445 1435 c 0
 300 1435 226 1309 226 1142 c 0
 226 977 299 852 445 852 c 0
 599 852 672 976 672 1139 c 0
112 1141 m 0
 112 1360 233 1520 445 1520 c 0
 663 1520 779 1363 779 1141 c 0
 779 930 645 768 445 768 c 0
 233 768 112 927 112 1141 c 0
EndSplineSet
EndChar

StartChar: oslash
Encoding: 248 248 300
Width: 1199
VWidth: 0
GlyphClass: 2
Flags: HW
PickledData: "(dp1
S'org.pippin.gimp.org.kernagic'
p2
(dp3
S'lstem'
p4
I0
sS'rstem'
p5
I0
ssS'com.typemytype.robofont.layerData'
p6
(dp7
sS'org.robofab.postScriptHintData'
p8
(dp9
s."
LayerCount: 2
Fore
SplineSet
216 -122 m 1
 319 69 l 1
 191 166 118 334 118 541 c 0
 118 883 301 1104 600 1104 c 0
 692 1104 774 1083 842 1044 c 1
 940 1227 l 1
 1006 1195 l 1
 902 1002 l 1
 1017 905 1081 744 1081 541 c 0
 1081 212 897 -20 600 -20 c 0
 517 -20 443 -2 379 31 c 1
 278 -156 l 1
 216 -122 l 1
848 902 m 1
 426 119 l 1
 475 88 533 71 600 71 c 0
 828 71 958 271 958 539 c 0
 958 692 920 819 848 902 c 1
793 953 m 1
 740 991 675 1012 600 1012 c 0
 372 1012 242 822 242 540 c 0
 242 382 287 248 370 164 c 1
 793 953 l 1
EndSplineSet
EndChar

StartChar: p
Encoding: 112 112 303
Width: 1223
VWidth: 0
GlyphClass: 2
Flags: HW
PickledData: "(dp1
S'org.pippin.gimp.org.kernagic'
p2
(dp3
S'lstem'
p4
I0
sS'rstem'
p5
I0
ssS'com.typemytype.robofont.layerData'
p6
(dp7
sS'com.fontlab.hintData'
p8
(dp9
S'vhints'
p10
((dp11
S'position'
p12
I193
sS'width'
p13
I122
s(dp14
g12
I193
sg13
I97
s(dp15
g12
I1009
sg13
I122
stp16
sS'hhints'
p17
((dp18
g12
I-19
sg13
I92
s(dp19
g12
I982
sg13
I92
stp20
ssS'org.robofab.postScriptHintData'
p21
(dp22
s."
HStem: -19 92 982 92
VStem: 193 122 193 97 1009 122
AnchorPoint: "top" 661 1082 basechar 0
LayerCount: 2
Fore
SplineSet
638 72 m 0
 864 72 982 248 982 539 c 0
 982 836 878 1012 649 1012 c 0
 393 1012 295 812 295 557 c 2
 295 300 l 1
 349 158 461 72 638 72 c 0
180 -476 m 1
 180 1082 l 1
 276 1082 l 1
 290 837 l 1
 345 998 468 1104 657 1104 c 0
 941 1104 1105 898 1105 538 c 0
 1105 194 921 -20 641 -20 c 0
 486 -20 364 39 293 149 c 1
 301 -88 l 1
 301 -472 l 1
 180 -476 l 1
EndSplineSet
EndChar

StartChar: paragraph
Encoding: 182 182 304
Width: 1125
VWidth: 0
GlyphClass: 2
Flags: HW
PickledData: "(dp1
S'org.pippin.gimp.org.kernagic'
p2
(dp3
S'lstem'
p4
I0
sS'rstem'
p5
I0
ssS'com.typemytype.robofont.layerData'
p6
(dp7
sS'org.robofab.postScriptHintData'
p8
(dp9
s."
LayerCount: 2
Fore
SplineSet
641 1371 m 1
 641 -196 l 1
 551 -196 l 1
 551 808 l 1
 232 808 145 973 145 1140 c 0
 145 1256 187 1456 527 1456 c 2
 881 1456 l 1
 881 -196 l 1
 791 -196 l 1
 791 1371 l 1
 641 1371 l 1
EndSplineSet
EndChar

StartChar: parenleft
Encoding: 40 40 305
Width: 720
VWidth: 0
GlyphClass: 2
Flags: HW
PickledData: "(dp1
S'org.pippin.gimp.org.kernagic'
p2
(dp3
S'lstem'
p4
I0
sS'rstem'
p5
I0
ssS'com.typemytype.robofont.layerData'
p6
(dp7
S'b'
(dp8
S'name'
p9
S'parenright'
p10
sS'lib'
p11
(dp12
sS'unicodes'
p13
(tsS'width'
p14
I766
sS'contours'
p15
(tsS'components'
p16
(tsS'anchors'
p17
(tsssS'org.robofab.postScriptHintData'
p18
(dp19
s."
LayerCount: 2
Fore
SplineSet
216 693 m 0
 216 1008 298 1317 469 1584 c 1
 575 1584 l 1
 575 1563 l 1
 377 1246 335 979 335 693 c 0
 335 407 377 141 575 -177 c 1
 575 -198 l 1
 469 -198 l 1
 298 70 216 379 216 693 c 0
EndSplineSet
EndChar

StartChar: parenright
Encoding: 41 41 306
Width: 719
VWidth: 0
GlyphClass: 2
Flags: HW
PickledData: "(dp1
S'org.pippin.gimp.org.kernagic'
p2
(dp3
S'lstem'
p4
I0
sS'rstem'
p5
I0
ssS'com.typemytype.robofont.layerData'
p6
(dp7
S'b'
(dp8
S'name'
p9
S'parenright'
p10
sS'lib'
p11
(dp12
sS'unicodes'
p13
(tsS'width'
p14
I766
sS'contours'
p15
(tsS'components'
p16
(tsS'anchors'
p17
(tsssS'org.robofab.postScriptHintData'
p18
(dp19
s."
LayerCount: 2
Fore
SplineSet
507 693 m 0
 507 379 425 70 254 -198 c 1
 148 -198 l 1
 148 -177 l 1
 346 141 388 407 388 693 c 0
 388 979 346 1246 148 1563 c 1
 148 1584 l 1
 254 1584 l 1
 425 1317 507 1008 507 693 c 0
EndSplineSet
EndChar

StartChar: partialdiff
Encoding: 8706 8706 307
Width: 1174
VWidth: 0
GlyphClass: 2
Flags: HW
PickledData: "(dp1
S'org.robofab.postScriptHintData'
p2
(dp3
s."
LayerCount: 2
Fore
SplineSet
480 54 m 0
 745 54 905 489 913 848 c 1
 534 844 312 488 312 254 c 0
 312 139 365 54 480 54 c 0
475 -19 m 0
 273 -19 180 109 180 270 c 0
 180 545 451 917 915 917 c 1
 915 925 l 2
 915 1247 771 1473 514 1473 c 0
 441 1473 358 1454 267 1414 c 1
 240 1482 l 1
 344 1535 444 1560 536 1560 c 0
 822 1560 1029 1318 1029 906 c 0
 1029 380 807 -19 475 -19 c 0
EndSplineSet
EndChar

StartChar: percent
Encoding: 37 37 308
Width: 1721
VWidth: 0
GlyphClass: 2
Flags: HW
PickledData: "(dp1
S'org.pippin.gimp.org.kernagic'
p2
(dp3
S'lstem'
p4
I0
sS'rstem'
p5
I0
ssS'com.typemytype.robofont.layerData'
p6
(dp7
S'b'
(dp8
S'name'
p9
S'percent'
p10
sS'lib'
p11
(dp12
sS'unicodes'
p13
(tsS'width'
p14
I1563
sS'contours'
p15
(tsS'components'
p16
(tsS'anchors'
p17
(tsssS'org.robofab.postScriptHintData'
p18
(dp19
s."
LayerCount: 2
Fore
SplineSet
1273 -8 m 0
 1049 -8 955 158 955 371 c 0
 955 585 1053 749 1273 749 c 0
 1499 749 1592 588 1592 371 c 0
 1592 158 1496 -8 1273 -8 c 0
1275 69 m 0
 1441 69 1496 202 1496 371 c 0
 1496 547 1440 670 1275 670 c 0
 1108 670 1052 541 1052 371 c 0
 1052 197 1109 69 1275 69 c 0
370 0 m 1
 1201 1456 l 1
 1302 1456 l 1
 481 0 l 1
 370 0 l 1
393 712 m 0
 169 712 78 878 78 1091 c 0
 78 1305 173 1469 393 1469 c 0
 619 1469 712 1308 712 1091 c 0
 712 878 616 712 393 712 c 0
396 790 m 0
 561 790 616 922 616 1092 c 0
 616 1268 560 1391 396 1391 c 0
 229 1391 173 1262 173 1092 c 0
 173 917 229 790 396 790 c 0
EndSplineSet
EndChar

StartChar: period
Encoding: 46 46 309
Width: 517
VWidth: 0
GlyphClass: 2
Flags: HW
PickledData: "(dp1
S'org.pippin.gimp.org.kernagic'
p2
(dp3
S'lstem'
p4
I0
sS'rstem'
p5
I0
ssS'com.typemytype.robofont.layerData'
p6
(dp7
S'b'
(dp8
S'name'
p9
S'period'
p10
sS'lib'
p11
(dp12
sS'unicodes'
p13
(tsS'width'
p14
I624
sS'contours'
p15
(tsS'components'
p16
(tsS'anchors'
p17
(tsssS'org.robofab.postScriptHintData'
p18
(dp19
s."
LayerCount: 2
Fore
SplineSet
263 -17 m 0
 195 -17 177 27 177 77 c 0
 177 126 193 170 263 170 c 0
 330 170 348 126 348 77 c 0
 348 27 330 -17 263 -17 c 0
EndSplineSet
EndChar

StartChar: periodcentered
Encoding: 183 183 310
Width: 500
VWidth: 0
GlyphClass: 2
Flags: HW
PickledData: "(dp1
S'org.pippin.gimp.org.kernagic'
p2
(dp3
S'lstem'
p4
I0
sS'rstem'
p5
I0
ssS'com.typemytype.robofont.layerData'
p6
(dp7
S'b'
(dp8
S'name'
p9
S'periodcentered'
p10
sS'lib'
p11
(dp12
sS'unicodes'
p13
(tsS'width'
p14
I653
sS'contours'
p15
(tsS'components'
p16
(tsS'anchors'
p17
(tsssS'org.robofab.postScriptHintData'
p18
(dp19
s."
LayerCount: 2
Fore
SplineSet
247 534 m 0
 183 534 157 579 157 625 c 0
 157 670 181 714 247 714 c 0
 311 714 337 670 337 625 c 0
 337 578 311 534 247 534 c 0
EndSplineSet
EndChar

StartChar: perthousand
Encoding: 8240 8240 311
Width: 2505
VWidth: 0
GlyphClass: 2
Flags: HW
PickledData: "(dp1
S'org.pippin.gimp.org.kernagic'
p2
(dp3
S'lstem'
p4
I0
sS'rstem'
p5
I0
ssS'com.typemytype.robofont.layerData'
p6
(dp7
S'b'
(dp8
S'name'
p9
S'perthousand'
p10
sS'lib'
p11
(dp12
sS'unicodes'
p13
(tsS'width'
p14
I2251
sS'contours'
p15
(tsS'components'
p16
(tsS'anchors'
p17
(tsssS'org.robofab.postScriptHintData'
p18
(dp19
s."
LayerCount: 2
Fore
SplineSet
2057 -8 m 0
 1833 -8 1740 158 1740 371 c 0
 1740 585 1837 749 2057 749 c 0
 2284 749 2377 588 2377 371 c 0
 2377 158 2281 -8 2057 -8 c 0
2060 69 m 0
 2226 69 2280 202 2280 371 c 0
 2280 547 2225 670 2060 670 c 0
 1893 670 1837 541 1837 371 c 0
 1837 197 1893 69 2060 69 c 0
EndSplineSet
Refer: 308 37 N 1 0 0 1 4 0 2
EndChar

StartChar: pi
Encoding: 960 960 312
Width: 1348
VWidth: 0
GlyphClass: 2
Flags: HW
PickledData: "(dp1
S'org.robofab.postScriptHintData'
p2
(dp3
sS'com.typemytype.robofont.layerData'
p4
(dp5
s."
LayerCount: 2
Fore
SplineSet
1080 -9 m 0
 925 -9 872 86 872 281 c 0
 872 441 908 684 949 972 c 1
 551 972 l 1
 489 334 l 2
 468 112 416 4 113 4 c 1
 113 83 l 1
 218 83 354 144 385 364 c 2
 470 972 l 1
 345 972 l 2
 251 972 210 914 198 782 c 1
 127 782 l 1
 127 1002 189 1082 416 1082 c 2
 1277 1082 l 1
 1277 972 l 1
 1037 972 l 1
 1001 728 981 525 981 391 c 0
 981 189 1025 99 1125 99 c 0
 1166 99 1214 116 1242 127 c 1
 1242 44 l 1
 1201 12 1142 -9 1080 -9 c 0
EndSplineSet
EndChar

StartChar: plus
Encoding: 43 43 313
Width: 1146
VWidth: 0
GlyphClass: 2
Flags: HW
PickledData: "(dp1
S'org.pippin.gimp.org.kernagic'
p2
(dp3
S'lstem'
p4
I0
sS'rstem'
p5
I0
ssS'com.typemytype.robofont.layerData'
p6
(dp7
S'b'
(dp8
S'name'
p9
S'plus'
p10
sS'lib'
p11
(dp12
sS'unicodes'
p13
(tsS'width'
p14
I1136
sS'contours'
p15
(tsS'components'
p16
(tsS'anchors'
p17
(tsssS'org.robofab.postScriptHintData'
p18
(dp19
s."
LayerCount: 2
Fore
SplineSet
515 1092 m 1
 625 1092 l 1
 625 704 l 1
 988 704 l 1
 988 607 l 1
 625 607 l 1
 625 209 l 1
 514 209 l 1
 514 607 l 1
 144 607 l 1
 144 704 l 1
 515 704 l 1
 515 1092 l 1
EndSplineSet
EndChar

StartChar: plusminus
Encoding: 177 177 314
Width: 1157
VWidth: 0
GlyphClass: 2
Flags: HW
PickledData: "(dp1
S'org.pippin.gimp.org.kernagic'
p2
(dp3
S'lstem'
p4
I0
sS'rstem'
p5
I0
ssS'com.typemytype.robofont.layerData'
p6
(dp7
sS'org.robofab.postScriptHintData'
p8
(dp9
s."
LayerCount: 2
Fore
SplineSet
110 86 m 1
 1048 86 l 1
 1048 0 l 1
 110 0 l 1
 110 86 l 1
521 1072 m 1
 612 1072 l 1
 612 674 l 1
 984 674 l 1
 984 597 l 1
 613 597 l 1
 613 189 l 1
 521 189 l 1
 521 597 l 1
 140 597 l 1
 140 674 l 1
 521 674 l 1
 521 1072 l 1
EndSplineSet
EndChar

StartChar: product
Encoding: 8719 8719 315
Width: 1470
VWidth: 0
GlyphClass: 2
Flags: HW
PickledData: "(dp1
S'org.pippin.gimp.org.kernagic'
p2
(dp3
S'lstem'
p4
I0
sS'rstem'
p5
I0
ssS'com.typemytype.robofont.layerData'
p6
(dp7
S'b'
(dp8
S'name'
p9
S'product'
p10
sS'lib'
p11
(dp12
sS'unicodes'
p13
(tsS'width'
p14
I1533
sS'contours'
p15
(tsS'components'
p16
(tsS'anchors'
p17
(tsssS'org.robofab.postScriptHintData'
p18
(dp19
s."
LayerCount: 2
Fore
SplineSet
213 1472 m 1
 1299 1472 l 1
 1299 0 l 1
 1178 0 l 1
 1178 1356 l 1
 334 1356 l 1
 334 0 l 1
 213 0 l 1
 213 1472 l 1
EndSplineSet
EndChar

StartChar: q
Encoding: 113 113 316
Width: 1221
VWidth: 0
GlyphClass: 2
Flags: HW
PickledData: "(dp1
S'org.pippin.gimp.org.kernagic'
p2
(dp3
S'lstem'
p4
I0
sS'rstem'
p5
I0
ssS'com.typemytype.robofont.layerData'
p6
(dp7
sS'org.robofab.postScriptHintData'
p8
(dp9
s."
LayerCount: 2
Fore
SplineSet
593 72 m 0
 745 72 867 142 923 259 c 1
 923 803 l 1
 856 944 739 1012 595 1012 c 0
 369 1012 241 831 241 543 c 0
 241 252 364 72 593 72 c 0
920 -477 m 1
 920 -89 l 1
 925 137 l 1
 857 46 741 -20 592 -20 c 2
 590 -20 l 2
 296 -20 117 211 117 543 c 0
 117 877 295 1104 597 1104 c 0
 772 1104 877 1019 932 919 c 1
 940 1082 l 1
 1041 1082 l 1
 1041 -475 l 1
 920 -477 l 1
EndSplineSet
EndChar

StartChar: question
Encoding: 63 63 317
Width: 904
VWidth: 0
GlyphClass: 2
Flags: HW
PickledData: "(dp1
S'org.pippin.gimp.org.kernagic'
p2
(dp3
S'lstem'
p4
I0
sS'rstem'
p5
I0
ssS'com.typemytype.robofont.layerData'
p6
(dp7
sS'org.robofab.postScriptHintData'
p8
(dp9
s."
LayerCount: 2
Fore
SplineSet
367 -15 m 0
 291 -15 270 37 270 82 c 0
 270 128 291 179 367 179 c 0
 444 179 468 128 468 82 c 0
 468 34 444 -15 367 -15 c 0
334 404 m 1
 334 664 613 927 613 1179 c 0
 613 1330 530 1395 391 1395 c 0
 284 1395 174 1333 134 1306 c 1
 116 1410 l 1
 187 1460 286 1500 407 1500 c 0
 591 1500 735 1390 735 1185 c 0
 735 889 495 778 395 404 c 1
 334 404 l 1
EndSplineSet
EndChar

StartChar: quotedbl
Encoding: 34 34 319
Width: 608
VWidth: 0
GlyphClass: 2
Flags: HW
PickledData: "(dp1
S'org.robofab.postScriptHintData'
p2
(dp3
sS'com.typemytype.robofont.layerData'
p4
(dp5
s."
LayerCount: 2
Fore
SplineSet
402 1046 m 1
 359 1512 l 1
 485 1512 l 1
 453 1046 l 1
 402 1046 l 1
161 1046 m 1
 118 1512 l 1
 243 1512 l 1
 212 1046 l 1
 161 1046 l 1
EndSplineSet
EndChar

StartChar: quotedblbase
Encoding: 8222 8222 320
Width: 650
VWidth: 0
GlyphClass: 2
Flags: HW
PickledData: "(dp1
S'org.robofab.postScriptHintData'
p2
(dp3
s."
LayerCount: 2
Fore
SplineSet
362 -274 m 1
 417 173 l 1
 527 173 l 1
 424 -274 l 1
 362 -274 l 1
112 -274 m 1
 171 173 l 1
 274 173 l 1
 179 -274 l 1
 112 -274 l 1
EndSplineSet
EndChar

StartChar: quotedblleft
Encoding: 8220 8220 321
Width: 866
VWidth: 0
GlyphClass: 2
Flags: HW
PickledData: "(dp1
S'org.robofab.postScriptHintData'
p2
(dp3
sS'com.typemytype.robofont.layerData'
p4
(dp5
s."
LayerCount: 2
Fore
SplineSet
495 1011 m 1
 597 1473 l 1
 678 1473 l 1
 626 1011 l 1
 495 1011 l 1
184 1011 m 1
 285 1473 l 1
 367 1473 l 1
 315 1011 l 1
 184 1011 l 1
EndSplineSet
EndChar

StartChar: quotedblright
Encoding: 8221 8221 322
Width: 866
VWidth: 0
GlyphClass: 2
Flags: HW
PickledData: "(dp1
S'org.robofab.postScriptHintData'
p2
(dp3
sS'com.typemytype.robofont.layerData'
p4
(dp5
s."
LayerCount: 2
Fore
SplineSet
184 1011 m 1
 236 1473 l 1
 367 1473 l 1
 265 1011 l 1
 184 1011 l 1
495 1011 m 1
 547 1473 l 1
 678 1473 l 1
 577 1011 l 1
 495 1011 l 1
EndSplineSet
EndChar

StartChar: quoteleft
Encoding: 8216 8216 323
Width: 522
VWidth: 0
GlyphClass: 2
Flags: HW
PickledData: "(dp1
S'org.robofab.postScriptHintData'
p2
(dp3
sS'com.typemytype.robofont.layerData'
p4
(dp5
s."
LayerCount: 2
Fore
SplineSet
367 1473 m 1
 315 1011 l 1
 184 1011 l 1
 285 1473 l 1
 367 1473 l 1
EndSplineSet
EndChar

StartChar: quoteright
Encoding: 8217 8217 324
Width: 522
VWidth: 0
GlyphClass: 2
Flags: HW
PickledData: "(dp1
S'org.robofab.postScriptHintData'
p2
(dp3
sS'com.typemytype.robofont.layerData'
p4
(dp5
s."
LayerCount: 2
Fore
SplineSet
184 1011 m 1
 236 1473 l 1
 367 1473 l 1
 265 1011 l 1
 184 1011 l 1
EndSplineSet
EndChar

StartChar: quotesinglbase
Encoding: 8218 8218 325
Width: 421
VWidth: 0
GlyphClass: 2
Flags: HW
PickledData: "(dp1
S'org.robofab.postScriptHintData'
p2
(dp3
s."
LayerCount: 2
Fore
SplineSet
96 -274 m 1
 161 173 l 1
 272 173 l 1
 166 -274 l 1
 96 -274 l 1
EndSplineSet
EndChar

StartChar: quotesingle
Encoding: 39 39 326
Width: 289
VWidth: 0
GlyphClass: 2
Flags: HW
PickledData: "(dp1
S'org.robofab.postScriptHintData'
p2
(dp3
s."
LayerCount: 2
Fore
SplineSet
102 987 m 1
 80 1473 l 1
 193 1473 l 1
 175 987 l 1
 102 987 l 1
EndSplineSet
EndChar

StartChar: r
Encoding: 114 114 327
Width: 771
VWidth: 0
GlyphClass: 2
Flags: HW
PickledData: "(dp1
S'org.pippin.gimp.org.kernagic'
p2
(dp3
S'lstem'
p4
I0
sS'rstem'
p5
I352
ssS'com.typemytype.robofont.layerData'
p6
(dp7
sS'com.fontlab.hintData'
p8
(dp9
S'vhints'
p10
((dp11
S'position'
p12
I193
sS'width'
p13
I122
s(dp14
g12
I193
sg13
I92
stp15
sS'hhints'
p16
((dp17
g12
I974
sg13
I94
stp18
ssS'org.robofab.postScriptHintData'
p19
(dp20
s."
HStem: 974 94
VStem: 193 122 193 92
AnchorPoint: "bot" 262 0 basechar 0
AnchorPoint: "top" 453 1082 basechar 0
LayerCount: 2
Fore
SplineSet
181 0 m 1
 181 1082 l 1
 272 1082 l 1
 285 834 l 1
 361 1032 492 1096 619 1096 c 0
 652 1096 679 1094 700 1091 c 1
 689 996 l 1
 679 999 647 1000 636 1000 c 0
 433 1000 302 826 302 631 c 2
 302 0 l 1
 181 0 l 1
EndSplineSet
EndChar

StartChar: radical
Encoding: 8730 8730 329
Width: 1199
VWidth: 0
GlyphClass: 2
Flags: HW
PickledData: "(dp1
S'org.pippin.gimp.org.kernagic'
p2
(dp3
S'lstem'
p4
I0
sS'rstem'
p5
I0
ssS'com.typemytype.robofont.layerData'
p6
(dp7
S'b'
(dp8
S'name'
p9
S'radical'
p10
sS'lib'
p11
(dp12
sS'unicodes'
p13
(tsS'width'
p14
I1136
sS'contours'
p15
(tsS'components'
p16
(tsS'anchors'
p17
(tsssS'org.robofab.postScriptHintData'
p18
(dp19
s."
LayerCount: 2
Fore
SplineSet
1040 1690 m 1
 1138 1690 l 1
 691 -162 l 1
 596 -162 l 1
 241 768 l 1
 98 738 l 1
 86 821 l 1
 331 875 l 1
 431 598 538 328 632 45 c 1
 685 268 987 1467 1040 1690 c 1
EndSplineSet
EndChar

StartChar: registered
Encoding: 174 174 332
Width: 1923
VWidth: 0
GlyphClass: 2
Flags: HW
PickledData: "(dp1
S'org.pippin.gimp.org.kernagic'
p2
(dp3
S'lstem'
p4
I0
sS'rstem'
p5
I0
ssS'com.typemytype.robofont.layerData'
p6
(dp7
sS'org.robofab.postScriptHintData'
p8
(dp9
s."
LayerCount: 2
Fore
SplineSet
959 -36 m 0
 580 -36 177 211 177 750 c 0
 177 1289 581 1537 959 1537 c 0
 1338 1537 1744 1289 1744 750 c 0
 1744 211 1338 -36 959 -36 c 0
959 34 m 0
 1293 34 1653 258 1653 750 c 0
 1653 1241 1293 1466 959 1466 c 0
 625 1466 269 1242 269 750 c 0
 269 258 625 34 959 34 c 0
755 853 m 1
 1034 853 l 2
 1185 853 1218 909 1218 1017 c 0
 1218 1152 1158 1177 985 1177 c 2
 755 1177 l 1
 755 853 l 1
659 309 m 1
 659 1260 l 1
 990 1260 l 2
 1246 1260 1307 1181 1307 1021 c 0
 1307 882 1239 787 1109 782 c 1
 1336 309 l 1
 1232 309 l 1
 1232 309 1013 769 1013 770 c 1
 754 770 l 1
 754 309 l 1
 659 309 l 1
EndSplineSet
EndChar

StartChar: ring
Encoding: 730 730 333
Width: 651
VWidth: 0
GlyphClass: 4
Flags: HW
PickledData: "(dp1
S'org.robofab.postScriptHintData'
p2
(dp3
sS'com.typemytype.robofont.layerData'
p4
(dp5
s."
AnchorPoint: "top" 321 1057 mark 0
LayerCount: 2
Fore
SplineSet
322 1201 m 0
 226 1201 150 1272 150 1368 c 0
 150 1464 226 1534 322 1534 c 0
 417 1534 494 1463 494 1368 c 0
 494 1272 417 1201 322 1201 c 0
322 1265 m 0
 377 1265 423 1311 423 1366 c 0
 423 1422 377 1467 322 1467 c 0
 266 1467 223 1422 223 1366 c 0
 223 1311 266 1265 322 1265 c 0
EndSplineSet
EndChar

StartChar: s
Encoding: 115 115 334
Width: 946
VWidth: 0
GlyphClass: 2
Flags: HW
PickledData: "(dp1
S'org.pippin.gimp.org.kernagic'
p2
(dp3
S'lstem'
p4
I168
sS'rstem'
p5
I620
ssS'com.typemytype.robofont.guides'
p6
((dp7
S'y'
I381
sS'x'
I77
sS'magnetic'
p8
I5
sS'angle'
p9
F90
sS'isGlobal'
p10
I00
stp11
sS'com.typemytype.robofont.layerData'
p12
(dp13
sS'com.fontlab.hintData'
p14
(dp15
S'vhints'
p16
((dp17
S'position'
p18
I142
sS'width'
p19
I107
s(dp20
g18
I738
sg19
I104
stp21
sS'hhints'
p22
((dp23
g18
I-19
sg19
I92
s(dp24
g18
I982
sg19
I92
stp25
ssS'org.robofab.postScriptHintData'
p26
(dp27
s."
HStem: -19 92 982 92
VStem: 142 107 738 104
AnchorPoint: "bot" 478 0 basechar 0
AnchorPoint: "top" 499 1082 basechar 0
LayerCount: 2
Fore
SplineSet
736 281 m 0
 736 390 698 446 533 498 c 1
 389 542 l 1
 182 607 124 693 124 828 c 0
 124 1004 274 1104 496 1104 c 0
 627 1104 739 1058 798 1003 c 1
 747 936 l 1
 737 936 l 1
 681 980 596 1011 497 1011 c 0
 346 1011 236 951 236 829 c 0
 236 735 281 680 417 636 c 1
 560 591 l 1
 785 519 842 430 842 284 c 0
 842 73 689 -20 487 -20 c 0
 361 -20 227 17 129 95 c 1
 180 165 l 1
 194 165 l 1
 277 98 386 72 487 72 c 0
 656 72 736 139 736 281 c 0
EndSplineSet
EndChar

StartChar: section
Encoding: 167 167 340
Width: 1055
VWidth: 0
GlyphClass: 2
Flags: HW
PickledData: "(dp1
S'org.pippin.gimp.org.kernagic'
p2
(dp3
S'lstem'
p4
I0
sS'rstem'
p5
I0
ssS'com.typemytype.robofont.layerData'
p6
(dp7
S'b'
(dp8
S'name'
p9
S'section'
p10
sS'lib'
p11
(dp12
sS'unicodes'
p13
(tsS'width'
p14
I1079
sS'contours'
p15
(tsS'components'
p16
(tsS'anchors'
p17
(tsssS'org.robofab.postScriptHintData'
p18
(dp19
s."
LayerCount: 2
Fore
SplineSet
667 513 m 1
 716 545 787 577 787 683 c 0
 787 775 686 825 540 878 c 0
 490 894 406 926 402 928 c 0
 344 902 279 854 279 756 c 0
 279 653 322 634 511 567 c 0
 569 549 655 518 667 513 c 1
502 -61 m 0
 395 -61 280 -35 183 10 c 1
 197 99 l 1
 294 51 401 23 510 23 c 0
 658 23 778 87 778 237 c 0
 778 335 733 396 470 486 c 0
 260 557 179 605 179 752 c 0
 179 854 236 921 315 970 c 1
 218 1026 177 1096 177 1198 c 0
 177 1378 333 1475 542 1475 c 0
 650 1475 753 1451 842 1411 c 1
 815 1331 l 1
 744 1365 649 1393 551 1393 c 0
 389 1393 279 1328 279 1199 c 0
 279 1064 346 1044 578 960 c 0
 800 880 882 820 882 680 c 0
 882 577 826 517 742 470 c 1
 831 418 877 336 877 235 c 0
 877 27 701 -61 502 -61 c 0
EndSplineSet
EndChar

StartChar: semicolon
Encoding: 59 59 341
Width: 553
VWidth: 0
GlyphClass: 2
Flags: HW
PickledData: "(dp1
S'org.pippin.gimp.org.kernagic'
p2
(dp3
S'lstem'
p4
I0
sS'rstem'
p5
I0
ssS'com.typemytype.robofont.layerData'
p6
(dp7
sS'org.robofab.postScriptHintData'
p8
(dp9
s."
LayerCount: 2
Fore
SplineSet
286 865 m 0
 214 865 192 916 192 961 c 0
 192 1005 212 1056 286 1056 c 0
 357 1056 377 1005 377 961 c 0
 377 916 357 865 286 865 c 0
203 -296 m 1
 203 -296 222 136 222 211 c 1
 356 211 l 1
 356 162 l 2
 356 132 263 -296 263 -296 c 1
 203 -296 l 1
EndSplineSet
EndChar

StartChar: seven
Encoding: 55 55 342
Width: 1217
VWidth: 0
GlyphClass: 2
Flags: HW
PickledData: "(dp1
S'org.pippin.gimp.org.kernagic'
p2
(dp3
S'lstem'
p4
I0
sS'rstem'
p5
I0
ssS'com.typemytype.robofont.layerData'
p6
(dp7
sS'org.robofab.postScriptHintData'
p8
(dp9
s."
LayerCount: 2
Fore
SplineSet
372 0 m 1
 926 1361 l 1
 220 1361 l 1
 193 1456 l 1
 1040 1456 l 1
 1040 1365 l 1
 483 0 l 1
 372 0 l 1
EndSplineSet
EndChar

StartChar: six
Encoding: 54 54 343
Width: 1217
VWidth: 0
GlyphClass: 2
Flags: HW
PickledData: "(dp1
S'org.pippin.gimp.org.kernagic'
p2
(dp3
S'lstem'
p4
I0
sS'rstem'
p5
I0
ssS'com.typemytype.robofont.layerData'
p6
(dp7
sS'org.robofab.postScriptHintData'
p8
(dp9
s."
LayerCount: 2
Fore
SplineSet
632 78 m 0
 854 78 972 249 972 431 c 0
 972 620 848 762 640 762 c 0
 528 762 296 700 296 423 c 0
 296 244 409 78 632 78 c 0
634 -20 m 0
 332 -20 186 211 186 434 c 0
 186 661 271 798 417 1009 c 2
 726 1456 l 1
 845 1456 l 1
 845 1437 l 1
 686 1207 525 979 369 746 c 1
 439 808 544 857 670 857 c 0
 887 857 1083 692 1083 431 c 0
 1083 189 919 -20 634 -20 c 0
EndSplineSet
EndChar

StartChar: slash
Encoding: 47 47 344
Width: 999
VWidth: 0
GlyphClass: 2
Flags: HW
PickledData: "(dp1
S'org.pippin.gimp.org.kernagic'
p2
(dp3
S'lstem'
p4
I0
sS'rstem'
p5
I0
ssS'com.typemytype.robofont.layerData'
p6
(dp7
S'b'
(dp8
S'name'
p9
S'slash'
p10
sS'lib'
p11
(dp12
sS'unicodes'
p13
(tsS'width'
p14
I965
sS'contours'
p15
(tsS'components'
p16
(tsS'anchors'
p17
(tsssS'org.robofab.postScriptHintData'
p18
(dp19
s."
LayerCount: 2
Fore
SplineSet
131 -149 m 1
 814 1560 l 1
 902 1560 l 1
 216 -149 l 1
 131 -149 l 1
EndSplineSet
EndChar

StartChar: slashbar
Encoding: 65543 -1 345
Width: 723
VWidth: 0
GlyphClass: 4
Flags: HW
PickledData: "(dp1
S'org.pippin.gimp.org.kernagic'
p2
(dp3
S'lstem'
p4
I0
sS'rstem'
p5
I0
ssS'com.typemytype.robofont.layerData'
p6
(dp7
S'b'
(dp8
S'name'
p9
S'slashbar'
p10
sS'lib'
p11
(dp12
sS'unicodes'
p13
(tsS'width'
p14
I908
sS'contours'
p15
(tsS'components'
p16
(tsS'anchors'
p17
(tsssS'org.robofab.postScriptHintData'
p18
(dp19
s."
AnchorPoint: "mid" 372 782 mark 0
LayerCount: 2
Fore
SplineSet
115 573 m 1
 115 671 l 1
 641 1004 l 1
 641 905 l 1
 115 573 l 1
EndSplineSet
EndChar

StartChar: sterling
Encoding: 163 163 347
Width: 1198
VWidth: 0
GlyphClass: 2
Flags: HW
PickledData: "(dp1
S'org.pippin.gimp.org.kernagic'
p2
(dp3
S'lstem'
p4
I0
sS'rstem'
p5
I0
ssS'com.typemytype.robofont.layerData'
p6
(dp7
S'b'
(dp8
S'name'
p9
S'sterling'
p10
sS'lib'
p11
(dp12
sS'unicodes'
p13
(tsS'width'
p14
I1136
sS'contours'
p15
((dp16
S'points'
p17
((dp18
S'segmentType'
p19
S'line'
p20
sS'x'
I20
sS'smooth'
p21
I00
sS'y'
I0
s(dp22
g19
S'line'
p23
sS'x'
I8
sg21
I00
sS'y'
I115
s(dp24
g19
S'line'
p25
sS'x'
I180
sg21
I00
sS'y'
I132
s(dp26
g19
S'line'
p27
sS'x'
I180
sg21
I00
sS'y'
I683
s(dp28
g19
S'line'
p29
sS'x'
I8
sg21
I00
sS'y'
I683
s(dp30
g19
S'line'
p31
sS'x'
I8
sg21
I00
sS'y'
I806
s(dp32
g19
S'line'
p33
sS'x'
I180
sg21
I00
sS'y'
I806
s(dp34
g19
S'line'
p35
sS'x'
I180
sg21
I01
sS'y'
I920
s(dp36
S'y'
I1183
sS'x'
I180
sg21
I00
s(dp37
S'y'
I1476
sS'x'
I245
sg21
I00
s(dp38
g19
S'curve'
p39
sS'x'
I598
sg21
I01
sS'y'
I1476
s(dp40
S'y'
I1476
sS'x'
I742
sg21
I00
s(dp41
S'y'
I1421
sS'x'
I854
sg21
I00
s(dp42
g19
S'curve'
p43
sS'x'
I939
sg21
I00
sS'y'
I1347
s(dp44
g19
S'line'
p45
sS'x'
I871
sg21
I00
sS'y'
I1229
s(dp46
S'y'
I1297
sS'x'
I785
sg21
I00
s(dp47
S'y'
I1334
sS'x'
I700
sg21
I00
s(dp48
g19
S'curve'
p49
sS'x'
I598
sg21
I01
sS'y'
I1334
s(dp50
S'y'
I1334
sS'x'
I397
sg21
I00
s(dp51
S'y'
I1179
sS'x'
I356
sg21
I00
s(dp52
g19
S'curve'
p53
sS'x'
I356
sg21
I01
sS'y'
I949
s(dp54
g19
S'line'
p55
sS'x'
I356
sg21
I00
sS'y'
I806
s(dp56
g19
S'line'
p57
sS'x'
I739
sg21
I00
sS'y'
I806
s(dp58
g19
S'line'
p59
sS'x'
I739
sg21
I00
sS'y'
I683
s(dp60
g19
S'line'
p61
sS'x'
I356
sg21
I00
sS'y'
I683
s(dp62
g19
S'line'
p63
sS'x'
I356
sg21
I00
sS'y'
I134
s(dp64
g19
S'line'
p65
sS'x'
I953
sg21
I00
sS'y'
I134
s(dp66
g19
S'line'
p67
sS'x'
I940
sg21
I00
sS'y'
I0
stp68
stp69
sS'components'
p70
(tsS'anchors'
p71
(tsssS'org.robofab.postScriptHintData'
p72
(dp73
s."
LayerCount: 2
Fore
SplineSet
415 942 m 2
 415 774 l 1
 829 774 l 1
 829 690 l 1
 415 690 l 1
 415 91 l 1
 1042 91 l 1
 1034 0 l 1
 129 0 l 1
 117 75 l 1
 302 89 l 1
 302 690 l 1
 120 690 l 1
 120 774 l 1
 302 774 l 1
 302 899 l 2
 302 1180 344 1475 707 1475 c 0
 861 1475 965 1415 1038 1348 c 1
 992 1271 l 1
 982 1271 l 1
 901 1337 819 1379 708 1379 c 0
 491 1379 415 1211 415 942 c 2
EndSplineSet
EndChar

StartChar: summation
Encoding: 8721 8721 348
Width: 1238
VWidth: 0
GlyphClass: 2
Flags: HW
PickledData: "(dp1
S'org.pippin.gimp.org.kernagic'
p2
(dp3
S'lstem'
p4
I0
sS'rstem'
p5
I0
ssS'com.typemytype.robofont.layerData'
p6
(dp7
S'b'
(dp8
S'name'
p9
S'summation'
p10
sS'lib'
p11
(dp12
sS'unicodes'
p13
(tsS'width'
p14
I1050
sS'contours'
p15
(tsS'components'
p16
(tsS'anchors'
p17
(tsssS'org.robofab.postScriptHintData'
p18
(dp19
s."
LayerCount: 2
Fore
SplineSet
128 1518 m 1
 1087 1518 l 1
 1087 1402 l 1
 270 1402 l 1
 856 615 l 1
 250 -176 l 1
 1128 -176 l 1
 1128 -302 l 1
 105 -302 l 1
 105 -229 l 1
 690 613 l 1
 128 1442 l 1
 128 1518 l 1
EndSplineSet
EndChar

StartChar: t
Encoding: 116 116 349
Width: 768
VWidth: 0
GlyphClass: 2
Flags: HW
PickledData: "(dp1
S'org.pippin.gimp.org.kernagic'
p2
(dp3
S'lstem'
p4
I189
sS'rstem'
p5
I480
ssS'com.typemytype.robofont.layerData'
p6
(dp7
sS'com.fontlab.hintData'
p8
(dp9
S'vhints'
p10
((dp11
S'position'
p12
I244
sS'width'
p13
I122
s(dp14
g12
I286
sg13
I80
stp15
sS'hhints'
p16
((dp17
g12
I-11
sg13
I83
stp18
ssS'org.robofab.postScriptHintData'
p19
(dp20
s."
HStem: -11 83
VStem: 244 122 286 80
AnchorPoint: "mid" 346 599 basechar 0
AnchorPoint: "bot" 446 0 basechar 0
AnchorPoint: "top" 296 1305 basechar 0
LayerCount: 2
Fore
SplineSet
526 -9 m 0
 325 -9 236 64 236 282 c 2
 236 1009 l 1
 80 1009 l 1
 80 1072 l 1
 238 1082 l 1
 258 1359 l 1
 356 1369 l 1
 356 1082 l 1
 670 1082 l 1
 670 1010 l 1
 356 1010 l 1
 356 287 l 2
 356 115 402 78 531 75 c 0
 576 75 659 79 659 79 c 1
 656 -2 l 1
 656 -2 586 -9 526 -9 c 0
EndSplineSet
EndChar

StartChar: thorn
Encoding: 254 254 354
Width: 1238
VWidth: 0
GlyphClass: 2
Flags: HW
PickledData: "(dp1
S'org.pippin.gimp.org.kernagic'
p2
(dp3
S'lstem'
p4
I0
sS'rstem'
p5
I0
ssS'com.typemytype.robofont.layerData'
p6
(dp7
S'b'
(dp8
S'name'
p9
S'thorn'
p10
sS'lib'
p11
(dp12
sS'unicodes'
p13
(tsS'width'
p14
I1221
sS'contours'
p15
(tsS'components'
p16
(tsS'anchors'
p17
(tsssS'org.robofab.postScriptHintData'
p18
(dp19
s."
LayerCount: 2
Fore
SplineSet
636 1104 m 0
 934 1104 1083 881 1083 537 c 0
 1083 206 916 -20 616 -20 c 0
 447 -20 337 51 271 136 c 1
 271 -493 l 1
 154 -493 l 1
 154 1540 l 1
 275 1560 l 1
 275 1084 l 1
 273 870 l 1
 348 1031 486 1104 636 1104 c 0
271 275 m 1
 329 160 435 72 614 72 c 0
 860 72 960 271 960 538 c 0
 960 799 881 1012 624 1012 c 0
 407 1012 271 835 271 578 c 2
 271 275 l 1
EndSplineSet
EndChar

StartChar: three
Encoding: 51 51 355
Width: 1217
VWidth: 0
GlyphClass: 2
Flags: HW
PickledData: "(dp1
S'org.pippin.gimp.org.kernagic'
p2
(dp3
S'lstem'
p4
I0
sS'rstem'
p5
I0
ssS'com.typemytype.robofont.layerData'
p6
(dp7
sS'org.robofab.postScriptHintData'
p8
(dp9
s."
LayerCount: 2
Fore
SplineSet
585 -20 m 0
 403 -20 244 44 176 135 c 1
 237 199 l 1
 247 199 l 1
 317 122 454 79 590 79 c 0
 804 79 951 172 951 385 c 0
 951 663 748 717 493 720 c 1
 445 720 l 1
 429 825 l 1
 494 825 l 1
 687 832 911 862 911 1113 c 0
 911 1294 773 1376 593 1376 c 2
 584 1376 l 2
 459 1376 330 1333 234 1239 c 1
 226 1239 l 1
 164 1307 l 1
 278 1438 456 1476 589 1476 c 0
 839 1476 1023 1346 1023 1117 c 0
 1023 920 917 814 729 776 c 1
 934 740 1061 612 1061 388 c 0
 1061 154 900 -20 585 -20 c 0
EndSplineSet
EndChar

StartChar: threequarters
Encoding: 190 190 356
Width: 1728
VWidth: 0
GlyphClass: 2
Flags: HW
PickledData: "(dp1
S'org.pippin.gimp.org.kernagic'
p2
(dp3
S'lstem'
p4
I0
sS'rstem'
p5
I0
ssS'com.typemytype.robofont.layerData'
p6
(dp7
sS'org.robofab.postScriptHintData'
p8
(dp9
s."
LayerCount: 2
Fore
SplineSet
1116 283 m 1
 1411 283 l 1
 1411 719 l 1
 1116 283 l 1
422 0 m 1
 1307 1506 l 1
 1406 1506 l 1
 521 0 l 1
 422 0 l 1
1411 -1 m 1
 1411 208 l 1
 1011 208 l 1
 1011 272 l 1
 1401 839 l 1
 1507 839 l 1
 1507 283 l 1
 1623 283 l 1
 1630 208 l 1
 1505 208 l 1
 1505 -1 l 1
 1411 -1 l 1
353 637 m 0
 273 637 189 661 126 706 c 1
 161 778 l 1
 217 743 288 721 352 721 c 0
 444 721 522 765 522 874 c 0
 522 980 458 1041 329 1041 c 2
 246 1041 l 1
 246 1126 l 1
 328 1126 l 2
 446 1126 510 1182 510 1274 c 0
 510 1369 445 1413 360 1413 c 0
 299 1413 228 1390 165 1347 c 1
 123 1416 l 1
 191 1470 281 1499 364 1499 c 0
 492 1499 606 1431 606 1283 c 0
 606 1194 551 1107 453 1087 c 1
 556 1060 623 981 623 876 c 0
 623 710 493 637 353 637 c 0
EndSplineSet
EndChar

StartChar: tilde
Encoding: 732 732 357
Width: 1001
VWidth: 0
GlyphClass: 4
Flags: HW
PickledData: "(dp1
S'org.robofab.postScriptHintData'
p2
(dp3
sS'com.typemytype.robofont.layerData'
p4
(dp5
sS'com.fontlab.hintData'
p6
(dp7
S'vhints'
p8
((dp9
S'position'
p10
I169
sS'width'
p11
I63
s(dp12
g10
I657
sg11
I67
stp13
sS'hhints'
p14
((dp15
g10
I1301
sg11
I88
s(dp16
g10
I1400
sg11
I79
stp17
ss."
HStem: 1301 88 1400 79
VStem: 169 63 657 67
AnchorPoint: "top" 500 1057 mark 0
LayerCount: 2
Fore
SplineSet
187 1317 m 1
 187 1464 258 1498 328 1498 c 0
 440 1498 552 1407 618 1407 c 0
 652 1407 673 1430 679 1497 c 1
 748 1497 l 1
 748 1346 682 1317 625 1317 c 0
 523 1317 394 1416 317 1416 c 0
 281 1416 256 1386 252 1317 c 1
 187 1317 l 1
EndSplineSet
EndChar

StartChar: trademark
Encoding: 8482 8482 358
Width: 2020
VWidth: 0
GlyphClass: 2
Flags: HW
PickledData: "(dp1
S'org.robofab.postScriptHintData'
p2
(dp3
sS'com.typemytype.robofont.layerData'
p4
(dp5
S'b'
(dp6
S'name'
p7
S'trademark'
p8
sS'lib'
p9
(dp10
sS'unicodes'
p11
(tsS'width'
p12
I2216
sS'contours'
p13
(tsS'components'
p14
(tsS'anchors'
p15
(tsss."
LayerCount: 2
Fore
SplineSet
380 540 m 1
 380 1406 l 1
 94 1406 l 1
 94 1469 l 1
 756 1469 l 1
 756 1406 l 1
 459 1406 l 1
 459 540 l 1
 380 540 l 1
924 540 m 1
 937 1469 l 1
 1026 1469 l 1
 1380 727 l 1
 1716 1469 l 1
 1807 1469 l 1
 1820 540 l 1
 1747 540 l 1
 1739 1368 l 1
 1412 646 l 1
 1346 646 l 1
 1002 1373 l 1
 994 540 l 1
 924 540 l 1
EndSplineSet
EndChar

StartChar: two
Encoding: 50 50 359
Width: 1217
VWidth: 0
GlyphClass: 2
Flags: HW
PickledData: "(dp1
S'org.pippin.gimp.org.kernagic'
p2
(dp3
S'lstem'
p4
I0
sS'rstem'
p5
I0
ssS'com.typemytype.robofont.layerData'
p6
(dp7
sS'org.robofab.postScriptHintData'
p8
(dp9
s."
LayerCount: 2
Fore
SplineSet
210 1268 m 1
 197 1268 l 1
 147 1343 l 1
 237 1419 397 1476 557 1476 c 0
 732 1476 1019 1381 1019 1083 c 0
 1019 861 954 789 760 596 c 2
 259 99 l 1
 1021 99 l 1
 1016 0 l 1
 152 0 l 1
 119 102 l 1
 678 664 l 2
 827 813 904 871 904 1069 c 0
 904 1318 703 1379 560 1379 c 0
 436 1379 308 1340 210 1268 c 1
EndSplineSet
EndChar

StartChar: u
Encoding: 117 117 360
Width: 1180
VWidth: 0
GlyphClass: 2
Flags: HW
PickledData: "(dp1
S'org.pippin.gimp.org.kernagic'
p2
(dp3
S'lstem'
p4
I0
sS'rstem'
p5
I0
ssS'com.typemytype.robofont.layerData'
p6
(dp7
sS'com.fontlab.hintData'
p8
(dp9
S'vhints'
p10
((dp11
S'position'
p12
I162
sS'width'
p13
I166
s(dp14
g12
I862
sg13
I166
stp15
sS'hhints'
p16
((dp17
g12
I-21
sg13
I126
stp18
ssS'org.robofab.postScriptHintData'
p19
(dp20
s."
HStem: -21 126
VStem: 162 166 862 166
AnchorPoint: "bot" 573 0 basechar 0
AnchorPoint: "ogonek" 946 0 basechar 0
AnchorPoint: "top" 596 1082 basechar 0
LayerCount: 2
Fore
SplineSet
880 240 m 1
 880 1082 l 1
 1001 1082 l 1
 1001 0 l 1
 898 0 l 1
 887 142 l 1
 814 34 713 -20 546 -20 c 0
 300 -20 167 118 167 415 c 2
 167 1082 l 1
 288 1082 l 1
 288 383 l 2
 288 192 363 71 552 71 c 0
 738 71 829 162 880 240 c 1
EndSplineSet
EndChar

StartChar: underscore
Encoding: 95 95 368
Width: 868
VWidth: 0
GlyphClass: 2
Flags: HW
PickledData: "(dp1
S'org.pippin.gimp.org.kernagic'
p2
(dp3
S'lstem'
p4
I0
sS'rstem'
p5
I0
ssS'com.typemytype.robofont.layerData'
p6
(dp7
sS'org.robofab.postScriptHintData'
p8
(dp9
s."
LayerCount: 2
Fore
SplineSet
0 -250 m 1
 0 -158 l 1
 868 -158 l 1
 868 -250 l 1
 0 -250 l 1
EndSplineSet
EndChar

StartChar: uni00AD
Encoding: 173 173 371
Width: 1050
VWidth: 0
GlyphClass: 2
Flags: HW
PickledData: "(dp1
S'org.robofab.postScriptHintData'
p2
(dp3
s."
LayerCount: 2
Fore
SplineSet
127 268 m 1
 127 366 l 1
 913 366 l 1
 913 268 l 1
 127 268 l 1
EndSplineSet
EndChar

StartChar: uni00B2
Encoding: 178 178 372
Width: 750
VWidth: 0
GlyphClass: 2
Flags: HW
PickledData: "(dp1
S'org.robofab.postScriptHintData'
p2
(dp3
sS'com.typemytype.robofont.layerData'
p4
(dp5
s."
LayerCount: 2
Fore
SplineSet
149 679 m 1
 149 755 l 1
 260 864 332 928 417 1020 c 0
 513 1126 551 1193 551 1264 c 0
 551 1365 487 1435 381 1435 c 0
 268 1435 195 1392 134 1320 c 1
 82 1379 l 1
 151 1465 247 1514 380 1514 c 0
 523 1514 643 1429 643 1266 c 0
 643 1149 590 1073 483 964 c 0
 419 898 370 852 274 754 c 1
 641 754 l 1
 638 679 l 1
 149 679 l 1
EndSplineSet
EndChar

StartChar: uni00B3
Encoding: 179 179 373
Width: 872
VWidth: 0
GlyphClass: 2
Flags: HW
PickledData: "(dp1
S'org.robofab.postScriptHintData'
p2
(dp3
sS'com.typemytype.robofont.layerData'
p4
(dp5
s."
LayerCount: 2
Fore
SplineSet
440 658 m 0
 336 658 236 691 181 752 c 1
 225 814 l 1
 269 766 338 733 440 733 c 0
 541 733 618 788 618 889 c 0
 618 991 542 1061 424 1061 c 1
 314 1060 l 1
 314 1131 l 1
 424 1131 l 2
 544 1131 611 1198 611 1293 c 0
 611 1391 537 1436 439 1436 c 0
 339 1436 273 1403 226 1356 c 1
 183 1414 l 1
 238 1476 337 1511 444 1511 c 0
 576 1511 695 1448 695 1296 c 0
 695 1188 627 1121 536 1097 c 1
 627 1074 701 1004 701 888 c 0
 701 733 578 658 440 658 c 0
EndSplineSet
EndChar

StartChar: uni00B5
Encoding: 181 181 374
Width: 1176
VWidth: 0
GlyphClass: 2
Flags: HW
PickledData: "(dp1
S'org.robofab.postScriptHintData'
p2
(dp3
sS'com.typemytype.robofont.layerData'
p4
(dp5
s."
LayerCount: 2
Fore
SplineSet
879 240 m 1
 879 1082 l 1
 1000 1082 l 1
 1000 0 l 1
 897 0 l 1
 886 142 l 1
 813 34 712 -20 545 -20 c 0
 436 -20 350 6 287 62 c 1
 287 -329 l 1
 166 -329 l 1
 166 1082 l 1
 287 1082 l 1
 287 383 l 2
 287 192 362 71 551 71 c 0
 737 71 828 162 879 240 c 1
EndSplineSet
EndChar

StartChar: uni00B9
Encoding: 185 185 375
Width: 900
VWidth: 0
GlyphClass: 2
Flags: HW
PickledData: "(dp1
S'org.robofab.postScriptHintData'
p2
(dp3
sS'com.typemytype.robofont.layerData'
p4
(dp5
s."
LayerCount: 2
Fore
SplineSet
278 672 m 1
 278 750 l 1
 470 750 l 1
 470 1397 l 1
 433 1372 332 1335 277 1323 c 1
 277 1403 l 1
 334 1418 444 1462 487 1503 c 1
 572 1503 l 1
 572 750 l 1
 754 750 l 1
 754 672 l 1
 278 672 l 1
EndSplineSet
EndChar

StartChar: uni02C9
Encoding: 713 713 444
Width: 600
VWidth: 0
GlyphClass: 4
Flags: HW
PickledData: "(dp1
S'org.robofab.postScriptHintData'
p2
(dp3
s."
AnchorPoint: "top" 316 1057 mark 0
LayerCount: 2
Fore
SplineSet
24 1296 m 1
 24 1398 l 1
 574 1398 l 1
 574 1296 l 1
 24 1296 l 1
EndSplineSet
EndChar

StartChar: uni0307
Encoding: 775 775 445
Width: 322
VWidth: 0
GlyphClass: 2
Flags: HW
PickledData: "(dp1
S'org.robofab.postScriptHintData'
p2
(dp3
sS'com.typemytype.robofont.layerData'
p4
(dp5
s."
LayerCount: 2
Fore
SplineSet
258 1450 m 0
 258 1392 228 1361 169 1361 c 0
 108 1361 78 1392 78 1450 c 0
 78 1507 108 1538 169 1538 c 0
 228 1538 258 1507 258 1450 c 0
EndSplineSet
EndChar

StartChar: uni2074
Encoding: 8308 8308 464
Width: 709
VWidth: 0
GlyphClass: 2
Flags: HW
PickledData: "(dp1
S'org.robofab.postScriptHintData'
p2
(dp3
sS'com.typemytype.robofont.layerData'
p4
(dp5
s."
LayerCount: 2
Fore
SplineSet
181 940 m 1
 445 940 l 1
 447 1384 l 1
 181 940 l 1
445 644 m 1
 445 867 l 1
 84 867 l 1
 84 946 l 1
 438 1506 l 1
 543 1506 l 1
 543 940 l 1
 666 940 l 1
 667 867 l 1
 540 867 l 1
 542 644 l 1
 445 644 l 1
EndSplineSet
EndChar

StartChar: uni2113
Encoding: 8467 8467 465
Width: 1135
VWidth: 0
GlyphClass: 2
Flags: HW
PickledData: "(dp1
S'org.robofab.postScriptHintData'
p2
(dp3
s."
LayerCount: 2
Fore
SplineSet
562 800 m 1
 618 856 789 1005 797 1005 c 1
 1005 1176 1059 1304 1059 1407 c 0
 1059 1516 989 1581 908 1581 c 0
 826 1581 733 1513 695 1352 c 2
 562 800 l 1
312 237 m 0
 312 311 327 403 360 514 c 1
 125 334 l 1
 87 391 l 1
 387 622 l 1
 597 1396 l 2
 660 1628 780 1677 896 1677 c 0
 1023 1676 1145 1601 1145 1411 c 0
 1145 1201 1053 1069 816 865 c 2
 516 607 l 1
 470 417 l 2
 451 342 441 280 441 229 c 0
 441 128 482 76 581 76 c 0
 665 76 750 112 852 174 c 1
 873 98 l 1
 873 98 738 -21 535 -21 c 0
 398 -21 312 53 312 237 c 0
EndSplineSet
EndChar

StartChar: uni2206
Encoding: 8710 8710 467
Width: 1326
VWidth: 0
GlyphClass: 2
Flags: HW
PickledData: "(dp1
S'org.pippin.gimp.org.kernagic'
p2
(dp3
S'lstem'
p4
I0
sS'rstem'
p5
I0
ssS'com.typemytype.robofont.layerData'
p6
(dp7
S'b'
(dp8
S'name'
p9
S'uni2206'
p10
sS'lib'
p11
(dp12
sS'unicodes'
p13
(tsS'width'
p14
I1278
sS'contours'
p15
(tsS'components'
p16
(tsS'anchors'
p17
(tsssS'org.robofab.postScriptHintData'
p18
(dp19
s."
LayerCount: 2
Fore
SplineSet
691 1265 m 1
 657 1381 l 1
 625 1265 l 1
 217 129 l 1
 1097 129 l 1
 691 1265 l 1
602 1515 m 1
 728 1515 l 1
 1239 84 l 1
 1239 0 l 1
 90 0 l 1
 90 84 l 1
 602 1515 l 1
EndSplineSet
EndChar

StartChar: v
Encoding: 118 118 478
Width: 1052
VWidth: 0
GlyphClass: 2
Flags: HW
PickledData: "(dp1
S'org.pippin.gimp.org.kernagic'
p2
(dp3
S'lstem'
p4
I0
sS'rstem'
p5
I0
ssS'com.typemytype.robofont.guides'
p6
((dp7
S'y'
I552
sS'x'
I438
sS'magnetic'
p8
I5
sS'angle'
p9
I0
sS'isGlobal'
p10
I00
stp11
sS'com.typemytype.robofont.layerData'
p12
(dp13
sS'org.robofab.postScriptHintData'
p14
(dp15
s."
LayerCount: 2
Fore
SplineSet
463 0 m 1
 64 1082 l 1
 184 1082 l 1
 297 761 408 439 527 123 c 1
 645 439 758 761 871 1082 c 1
 991 1082 l 1
 592 0 l 1
 463 0 l 1
EndSplineSet
EndChar

StartChar: w
Encoding: 119 119 479
Width: 1507
VWidth: 0
GlyphClass: 2
Flags: HW
PickledData: "(dp1
S'org.pippin.gimp.org.kernagic'
p2
(dp3
S'lstem'
p4
I0
sS'rstem'
p5
I0
ssS'com.typemytype.robofont.layerData'
p6
(dp7
sS'org.robofab.postScriptHintData'
p8
(dp9
s."
AnchorPoint: "top" 755 1082 basechar 0
LayerCount: 2
Fore
SplineSet
756 968 m 1
 438 0 l 1
 336 0 l 1
 50 1082 l 1
 161 1082 l 1
 391 145 l 1
 690 1065 l 1
 817 1065 l 1
 1120 144 l 1
 1350 1082 l 1
 1457 1082 l 1
 1173 0 l 1
 1074 0 l 1
 756 968 l 1
EndSplineSet
EndChar

StartChar: x
Encoding: 120 120 484
Width: 1028
VWidth: 0
GlyphClass: 2
Flags: HW
PickledData: "(dp1
S'org.pippin.gimp.org.kernagic'
p2
(dp3
S'lstem'
p4
I0
sS'rstem'
p5
I0
ssS'com.typemytype.robofont.layerData'
p6
(dp7
sS'com.fontlab.hintData'
p8
(dp9
S'hhints'
p10
((dp11
S'position'
p12
I0
sS'width'
p13
I22
s(dp14
g12
I1034
sg13
I21
stp15
ssS'org.robofab.postScriptHintData'
p16
(dp17
s."
HStem: 0 22 1034 21
LayerCount: 2
Fore
SplineSet
592 545 m 1
 975 0 l 1
 842 0 l 1
 514 465 l 1
 178 0 l 1
 50 0 l 1
 454 550 l 1
 79 1082 l 1
 214 1082 l 1
 533 629 l 1
 849 1082 l 1
 977 1082 l 1
 592 545 l 1
EndSplineSet
EndChar

StartChar: y
Encoding: 121 121 485
Width: 1091
VWidth: 0
GlyphClass: 2
Flags: HW
PickledData: "(dp1
S'org.pippin.gimp.org.kernagic'
p2
(dp3
S'lstem'
p4
I0
sS'rstem'
p5
I0
ssS'com.typemytype.robofont.layerData'
p6
(dp7
sS'org.robofab.postScriptHintData'
p8
(dp9
s."
AnchorPoint: "top" 571 1082 basechar 0
LayerCount: 2
Fore
SplineSet
1035 1082 m 1
 456 -405 l 1
 357 -372 l 1
 518 43 l 1
 64 1082 l 1
 189 1082 l 1
 574 183 l 1
 919 1082 l 1
 1035 1082 l 1
EndSplineSet
EndChar

StartChar: yen
Encoding: 165 165 489
Width: 1278
VWidth: 0
GlyphClass: 2
Flags: HW
PickledData: "(dp1
S'org.pippin.gimp.org.kernagic'
p2
(dp3
S'lstem'
p4
I0
sS'rstem'
p5
I0
ssS'com.typemytype.robofont.layerData'
p6
(dp7
S'b'
(dp8
S'name'
p9
S'yen'
p10
sS'lib'
p11
(dp12
sS'unicodes'
p13
(tsS'width'
p14
I1366
sS'contours'
p15
(tsS'components'
p16
(tsS'anchors'
p17
(tsssS'org.robofab.postScriptHintData'
p18
(dp19
s."
LayerCount: 2
Fore
SplineSet
258 560 m 1
 258 639 l 1
 550 639 l 1
 72 1455 l 1
 180 1455 l 1
 646 675 l 1
 1077 1455 l 1
 1191 1455 l 1
 741 639 l 1
 1020 639 l 1
 1020 560 l 1
 706 560 l 1
 706 379 l 1
 1020 379 l 1
 1020 300 l 1
 706 300 l 1
 706 0 l 1
 588 0 l 1
 588 300 l 1
 258 300 l 1
 258 379 l 1
 588 379 l 1
 588 560 l 1
 258 560 l 1
EndSplineSet
EndChar

StartChar: z
Encoding: 122 122 491
Width: 939
VWidth: 0
GlyphClass: 2
Flags: HW
PickledData: "(dp1
S'org.pippin.gimp.org.kernagic'
p2
(dp3
S'lstem'
p4
I0
sS'rstem'
p5
I0
ssS'com.typemytype.robofont.layerData'
p6
(dp7
sS'org.robofab.postScriptHintData'
p8
(dp9
s."
AnchorPoint: "bot" 457 0 basechar 0
AnchorPoint: "top" 489 1082 basechar 0
LayerCount: 2
Fore
SplineSet
136 1082 m 1
 821 1082 l 1
 821 998 l 1
 230 86 l 1
 824 86 l 1
 827 0 l 1
 115 0 l 1
 115 83 l 1
 708 997 l 1
 139 997 l 1
 136 1082 l 1
EndSplineSet
EndChar

StartChar: zero
Encoding: 48 48 495
Width: 1240
VWidth: 0
GlyphClass: 2
Flags: HW
PickledData: "(dp1
S'org.pippin.gimp.org.kernagic'
p2
(dp3
S'lstem'
p4
I0
sS'rstem'
p5
I0
ssS'com.typemytype.robofont.layerData'
p6
(dp7
S'b'
(dp8
S'name'
p9
S'zero'
p10
sS'lib'
p11
(dp12
sS'unicodes'
p13
(tsS'width'
p14
I1248
sS'contours'
p15
(tsS'components'
p16
(tsS'anchors'
p17
(tsssS'org.robofab.postScriptHintData'
p18
(dp19
s."
LayerCount: 2
Fore
SplineSet
624 -20 m 0
 299 -20 142 253 142 717 c 0
 142 1209 320 1476 624 1476 c 0
 925 1476 1090 1211 1090 717 c 0
 1090 253 947 -20 624 -20 c 0
624 83 m 0
 829 83 973 235 973 722 c 0
 973 1220 829 1372 624 1372 c 0
 418 1372 261 1182 261 728 c 2
 261 719 l 2
 261 233 418 83 624 83 c 0
EndSplineSet
EndChar
